<svg xmlns="http://www.w3.org/2000/svg" xmlns:xlink="http://www.w3.org/1999/xlink" width="1920" height="540" viewBox="0 0 1920 540">
  <defs>
    <clipPath id="clip-path">
      <rect id="Rectangle_359" data-name="Rectangle 359" width="1920" height="540" transform="translate(4684 -948)" fill="#444"/>
    </clipPath>
    <linearGradient id="linear-gradient" x1="1.188" y1="0.5" x2="-0.173" y2="0.5" gradientUnits="objectBoundingBox">
      <stop offset="0" stop-color="#1a1818"/>
      <stop offset="0.516" stop-color="#b52c2a"/>
      <stop offset="1" stop-color="#1a1818"/>
    </linearGradient>
    <clipPath id="clip-path-2">
      <rect width="1996" height="540" fill="none"/>
    </clipPath>
  </defs>
  <g id="AKTIVITETE" transform="translate(-4608 506)">
    <g id="Mask_Group_14" data-name="Mask Group 14" transform="translate(-76 442)" clip-path="url(#clip-path)">
      <rect id="Rectangle_358" data-name="Rectangle 358" width="1920" height="540" transform="translate(4684 -948)" fill="url(#linear-gradient)"/>
      <g id="Repeat_Grid_3" data-name="Repeat Grid 3" transform="translate(4608 -948)" clip-path="url(#clip-path-2)" style="mix-blend-mode: multiply;isolation: isolate">
        <g transform="translate(-5093.604 859.943)">
          <g id="Group_480" data-name="Group 480" transform="translate(334.419 -442.396)">
            <path id="Path_905" data-name="Path 905" d="M78.087,48.232A29.854,29.854,0,0,1,48.232,78.087H0V29.859A29.852,29.852,0,0,1,29.859,0H48.232A29.851,29.851,0,0,1,78.087,29.859ZM67.6,32.328A21.836,21.836,0,0,0,45.758,10.5H32.328A21.832,21.832,0,0,0,10.5,32.328V67.6H45.758A21.84,21.84,0,0,0,67.6,45.758Z" transform="translate(4843 -417.548)" fill="#eaeaea"/>
            <path id="Path_906" data-name="Path 906" d="M47.92,78.087A29.858,29.858,0,0,1,18.061,48.232V0H66.293A29.859,29.859,0,0,1,96.153,29.859V48.232A29.855,29.855,0,0,1,66.293,78.087Zm15.9-10.49A21.832,21.832,0,0,0,85.657,45.763V32.328A21.832,21.832,0,0,0,63.824,10.5H28.556V45.763A21.836,21.836,0,0,0,50.394,67.6Z" transform="translate(4914.478 -417.548)" fill="#eaeaea"/>
          </g>
          <g id="Group_481" data-name="Group 481" transform="translate(250.604 -351.396)">
            <path id="Path_907" data-name="Path 907" d="M78.087,48.232A29.854,29.854,0,0,1,48.232,78.087H0V29.859A29.852,29.852,0,0,1,29.859,0H48.232A29.851,29.851,0,0,1,78.087,29.859ZM67.6,32.328A21.836,21.836,0,0,0,45.758,10.5H32.328A21.832,21.832,0,0,0,10.5,32.328V67.6H45.758A21.84,21.84,0,0,0,67.6,45.758Z" transform="translate(4843 -417.548)" fill="#eaeaea"/>
            <path id="Path_908" data-name="Path 908" d="M47.92,78.087A29.858,29.858,0,0,1,18.061,48.232V0H66.293A29.859,29.859,0,0,1,96.153,29.859V48.232A29.855,29.855,0,0,1,66.293,78.087Zm15.9-10.49A21.832,21.832,0,0,0,85.657,45.763V32.328A21.832,21.832,0,0,0,63.824,10.5H28.556V45.763A21.836,21.836,0,0,0,50.394,67.6Z" transform="translate(4914.478 -417.548)" fill="#eaeaea"/>
          </g>
        </g>
        <g transform="translate(-4914.604 859.943)">
          <g id="Group_482" data-name="Group 482" transform="translate(334.419 -442.396)">
            <path id="Path_909" data-name="Path 909" d="M78.087,48.232A29.854,29.854,0,0,1,48.232,78.087H0V29.859A29.852,29.852,0,0,1,29.859,0H48.232A29.851,29.851,0,0,1,78.087,29.859ZM67.6,32.328A21.836,21.836,0,0,0,45.758,10.5H32.328A21.832,21.832,0,0,0,10.5,32.328V67.6H45.758A21.84,21.84,0,0,0,67.6,45.758Z" transform="translate(4843 -417.548)" fill="#eaeaea"/>
            <path id="Path_910" data-name="Path 910" d="M47.92,78.087A29.858,29.858,0,0,1,18.061,48.232V0H66.293A29.859,29.859,0,0,1,96.153,29.859V48.232A29.855,29.855,0,0,1,66.293,78.087Zm15.9-10.49A21.832,21.832,0,0,0,85.657,45.763V32.328A21.832,21.832,0,0,0,63.824,10.5H28.556V45.763A21.836,21.836,0,0,0,50.394,67.6Z" transform="translate(4914.478 -417.548)" fill="#eaeaea"/>
          </g>
          <g id="Group_483" data-name="Group 483" transform="translate(250.604 -351.396)">
            <path id="Path_911" data-name="Path 911" d="M78.087,48.232A29.854,29.854,0,0,1,48.232,78.087H0V29.859A29.852,29.852,0,0,1,29.859,0H48.232A29.851,29.851,0,0,1,78.087,29.859ZM67.6,32.328A21.836,21.836,0,0,0,45.758,10.5H32.328A21.832,21.832,0,0,0,10.5,32.328V67.6H45.758A21.84,21.84,0,0,0,67.6,45.758Z" transform="translate(4843 -417.548)" fill="#eaeaea"/>
            <path id="Path_912" data-name="Path 912" d="M47.92,78.087A29.858,29.858,0,0,1,18.061,48.232V0H66.293A29.859,29.859,0,0,1,96.153,29.859V48.232A29.855,29.855,0,0,1,66.293,78.087Zm15.9-10.49A21.832,21.832,0,0,0,85.657,45.763V32.328A21.832,21.832,0,0,0,63.824,10.5H28.556V45.763A21.836,21.836,0,0,0,50.394,67.6Z" transform="translate(4914.478 -417.548)" fill="#eaeaea"/>
          </g>
        </g>
        <g transform="translate(-4735.604 859.943)">
          <g id="Group_484" data-name="Group 484" transform="translate(334.419 -442.396)">
            <path id="Path_913" data-name="Path 913" d="M78.087,48.232A29.854,29.854,0,0,1,48.232,78.087H0V29.859A29.852,29.852,0,0,1,29.859,0H48.232A29.851,29.851,0,0,1,78.087,29.859ZM67.6,32.328A21.836,21.836,0,0,0,45.758,10.5H32.328A21.832,21.832,0,0,0,10.5,32.328V67.6H45.758A21.84,21.84,0,0,0,67.6,45.758Z" transform="translate(4843 -417.548)" fill="#eaeaea"/>
            <path id="Path_914" data-name="Path 914" d="M47.92,78.087A29.858,29.858,0,0,1,18.061,48.232V0H66.293A29.859,29.859,0,0,1,96.153,29.859V48.232A29.855,29.855,0,0,1,66.293,78.087Zm15.9-10.49A21.832,21.832,0,0,0,85.657,45.763V32.328A21.832,21.832,0,0,0,63.824,10.5H28.556V45.763A21.836,21.836,0,0,0,50.394,67.6Z" transform="translate(4914.478 -417.548)" fill="#eaeaea"/>
          </g>
          <g id="Group_485" data-name="Group 485" transform="translate(250.604 -351.396)">
            <path id="Path_915" data-name="Path 915" d="M78.087,48.232A29.854,29.854,0,0,1,48.232,78.087H0V29.859A29.852,29.852,0,0,1,29.859,0H48.232A29.851,29.851,0,0,1,78.087,29.859ZM67.6,32.328A21.836,21.836,0,0,0,45.758,10.5H32.328A21.832,21.832,0,0,0,10.5,32.328V67.6H45.758A21.84,21.84,0,0,0,67.6,45.758Z" transform="translate(4843 -417.548)" fill="#eaeaea"/>
            <path id="Path_916" data-name="Path 916" d="M47.92,78.087A29.858,29.858,0,0,1,18.061,48.232V0H66.293A29.859,29.859,0,0,1,96.153,29.859V48.232A29.855,29.855,0,0,1,66.293,78.087Zm15.9-10.49A21.832,21.832,0,0,0,85.657,45.763V32.328A21.832,21.832,0,0,0,63.824,10.5H28.556V45.763A21.836,21.836,0,0,0,50.394,67.6Z" transform="translate(4914.478 -417.548)" fill="#eaeaea"/>
          </g>
        </g>
        <g transform="translate(-4556.604 859.943)">
          <g id="Group_486" data-name="Group 486" transform="translate(334.419 -442.396)">
            <path id="Path_917" data-name="Path 917" d="M78.087,48.232A29.854,29.854,0,0,1,48.232,78.087H0V29.859A29.852,29.852,0,0,1,29.859,0H48.232A29.851,29.851,0,0,1,78.087,29.859ZM67.6,32.328A21.836,21.836,0,0,0,45.758,10.5H32.328A21.832,21.832,0,0,0,10.5,32.328V67.6H45.758A21.84,21.84,0,0,0,67.6,45.758Z" transform="translate(4843 -417.548)" fill="#eaeaea"/>
            <path id="Path_918" data-name="Path 918" d="M47.92,78.087A29.858,29.858,0,0,1,18.061,48.232V0H66.293A29.859,29.859,0,0,1,96.153,29.859V48.232A29.855,29.855,0,0,1,66.293,78.087Zm15.9-10.49A21.832,21.832,0,0,0,85.657,45.763V32.328A21.832,21.832,0,0,0,63.824,10.5H28.556V45.763A21.836,21.836,0,0,0,50.394,67.6Z" transform="translate(4914.478 -417.548)" fill="#eaeaea"/>
          </g>
          <g id="Group_487" data-name="Group 487" transform="translate(250.604 -351.396)">
            <path id="Path_919" data-name="Path 919" d="M78.087,48.232A29.854,29.854,0,0,1,48.232,78.087H0V29.859A29.852,29.852,0,0,1,29.859,0H48.232A29.851,29.851,0,0,1,78.087,29.859ZM67.6,32.328A21.836,21.836,0,0,0,45.758,10.5H32.328A21.832,21.832,0,0,0,10.5,32.328V67.6H45.758A21.84,21.84,0,0,0,67.6,45.758Z" transform="translate(4843 -417.548)" fill="#eaeaea"/>
            <path id="Path_920" data-name="Path 920" d="M47.92,78.087A29.858,29.858,0,0,1,18.061,48.232V0H66.293A29.859,29.859,0,0,1,96.153,29.859V48.232A29.855,29.855,0,0,1,66.293,78.087Zm15.9-10.49A21.832,21.832,0,0,0,85.657,45.763V32.328A21.832,21.832,0,0,0,63.824,10.5H28.556V45.763A21.836,21.836,0,0,0,50.394,67.6Z" transform="translate(4914.478 -417.548)" fill="#eaeaea"/>
          </g>
        </g>
        <g transform="translate(-4377.604 859.943)">
          <g id="Group_488" data-name="Group 488" transform="translate(334.419 -442.396)">
            <path id="Path_921" data-name="Path 921" d="M78.087,48.232A29.854,29.854,0,0,1,48.232,78.087H0V29.859A29.852,29.852,0,0,1,29.859,0H48.232A29.851,29.851,0,0,1,78.087,29.859ZM67.6,32.328A21.836,21.836,0,0,0,45.758,10.5H32.328A21.832,21.832,0,0,0,10.5,32.328V67.6H45.758A21.84,21.84,0,0,0,67.6,45.758Z" transform="translate(4843 -417.548)" fill="#eaeaea"/>
            <path id="Path_922" data-name="Path 922" d="M47.92,78.087A29.858,29.858,0,0,1,18.061,48.232V0H66.293A29.859,29.859,0,0,1,96.153,29.859V48.232A29.855,29.855,0,0,1,66.293,78.087Zm15.9-10.49A21.832,21.832,0,0,0,85.657,45.763V32.328A21.832,21.832,0,0,0,63.824,10.5H28.556V45.763A21.836,21.836,0,0,0,50.394,67.6Z" transform="translate(4914.478 -417.548)" fill="#eaeaea"/>
          </g>
          <g id="Group_489" data-name="Group 489" transform="translate(250.604 -351.396)">
            <path id="Path_923" data-name="Path 923" d="M78.087,48.232A29.854,29.854,0,0,1,48.232,78.087H0V29.859A29.852,29.852,0,0,1,29.859,0H48.232A29.851,29.851,0,0,1,78.087,29.859ZM67.6,32.328A21.836,21.836,0,0,0,45.758,10.5H32.328A21.832,21.832,0,0,0,10.5,32.328V67.6H45.758A21.84,21.84,0,0,0,67.6,45.758Z" transform="translate(4843 -417.548)" fill="#eaeaea"/>
            <path id="Path_924" data-name="Path 924" d="M47.92,78.087A29.858,29.858,0,0,1,18.061,48.232V0H66.293A29.859,29.859,0,0,1,96.153,29.859V48.232A29.855,29.855,0,0,1,66.293,78.087Zm15.9-10.49A21.832,21.832,0,0,0,85.657,45.763V32.328A21.832,21.832,0,0,0,63.824,10.5H28.556V45.763A21.836,21.836,0,0,0,50.394,67.6Z" transform="translate(4914.478 -417.548)" fill="#eaeaea"/>
          </g>
        </g>
        <g transform="translate(-4198.604 859.943)">
          <g id="Group_490" data-name="Group 490" transform="translate(334.419 -442.396)">
            <path id="Path_925" data-name="Path 925" d="M78.087,48.232A29.854,29.854,0,0,1,48.232,78.087H0V29.859A29.852,29.852,0,0,1,29.859,0H48.232A29.851,29.851,0,0,1,78.087,29.859ZM67.6,32.328A21.836,21.836,0,0,0,45.758,10.5H32.328A21.832,21.832,0,0,0,10.5,32.328V67.6H45.758A21.84,21.84,0,0,0,67.6,45.758Z" transform="translate(4843 -417.548)" fill="#eaeaea"/>
            <path id="Path_926" data-name="Path 926" d="M47.92,78.087A29.858,29.858,0,0,1,18.061,48.232V0H66.293A29.859,29.859,0,0,1,96.153,29.859V48.232A29.855,29.855,0,0,1,66.293,78.087Zm15.9-10.49A21.832,21.832,0,0,0,85.657,45.763V32.328A21.832,21.832,0,0,0,63.824,10.5H28.556V45.763A21.836,21.836,0,0,0,50.394,67.6Z" transform="translate(4914.478 -417.548)" fill="#eaeaea"/>
          </g>
          <g id="Group_491" data-name="Group 491" transform="translate(250.604 -351.396)">
            <path id="Path_927" data-name="Path 927" d="M78.087,48.232A29.854,29.854,0,0,1,48.232,78.087H0V29.859A29.852,29.852,0,0,1,29.859,0H48.232A29.851,29.851,0,0,1,78.087,29.859ZM67.6,32.328A21.836,21.836,0,0,0,45.758,10.5H32.328A21.832,21.832,0,0,0,10.5,32.328V67.6H45.758A21.84,21.84,0,0,0,67.6,45.758Z" transform="translate(4843 -417.548)" fill="#eaeaea"/>
            <path id="Path_928" data-name="Path 928" d="M47.92,78.087A29.858,29.858,0,0,1,18.061,48.232V0H66.293A29.859,29.859,0,0,1,96.153,29.859V48.232A29.855,29.855,0,0,1,66.293,78.087Zm15.9-10.49A21.832,21.832,0,0,0,85.657,45.763V32.328A21.832,21.832,0,0,0,63.824,10.5H28.556V45.763A21.836,21.836,0,0,0,50.394,67.6Z" transform="translate(4914.478 -417.548)" fill="#eaeaea"/>
          </g>
        </g>
        <g transform="translate(-4019.604 859.943)">
          <g id="Group_492" data-name="Group 492" transform="translate(334.419 -442.396)">
            <path id="Path_929" data-name="Path 929" d="M78.087,48.232A29.854,29.854,0,0,1,48.232,78.087H0V29.859A29.852,29.852,0,0,1,29.859,0H48.232A29.851,29.851,0,0,1,78.087,29.859ZM67.6,32.328A21.836,21.836,0,0,0,45.758,10.5H32.328A21.832,21.832,0,0,0,10.5,32.328V67.6H45.758A21.84,21.84,0,0,0,67.6,45.758Z" transform="translate(4843 -417.548)" fill="#eaeaea"/>
            <path id="Path_930" data-name="Path 930" d="M47.92,78.087A29.858,29.858,0,0,1,18.061,48.232V0H66.293A29.859,29.859,0,0,1,96.153,29.859V48.232A29.855,29.855,0,0,1,66.293,78.087Zm15.9-10.49A21.832,21.832,0,0,0,85.657,45.763V32.328A21.832,21.832,0,0,0,63.824,10.5H28.556V45.763A21.836,21.836,0,0,0,50.394,67.6Z" transform="translate(4914.478 -417.548)" fill="#eaeaea"/>
          </g>
          <g id="Group_493" data-name="Group 493" transform="translate(250.604 -351.396)">
            <path id="Path_931" data-name="Path 931" d="M78.087,48.232A29.854,29.854,0,0,1,48.232,78.087H0V29.859A29.852,29.852,0,0,1,29.859,0H48.232A29.851,29.851,0,0,1,78.087,29.859ZM67.6,32.328A21.836,21.836,0,0,0,45.758,10.5H32.328A21.832,21.832,0,0,0,10.5,32.328V67.6H45.758A21.84,21.84,0,0,0,67.6,45.758Z" transform="translate(4843 -417.548)" fill="#eaeaea"/>
            <path id="Path_932" data-name="Path 932" d="M47.92,78.087A29.858,29.858,0,0,1,18.061,48.232V0H66.293A29.859,29.859,0,0,1,96.153,29.859V48.232A29.855,29.855,0,0,1,66.293,78.087Zm15.9-10.49A21.832,21.832,0,0,0,85.657,45.763V32.328A21.832,21.832,0,0,0,63.824,10.5H28.556V45.763A21.836,21.836,0,0,0,50.394,67.6Z" transform="translate(4914.478 -417.548)" fill="#eaeaea"/>
          </g>
        </g>
        <g transform="translate(-3840.604 859.943)">
          <g id="Group_494" data-name="Group 494" transform="translate(334.419 -442.396)">
            <path id="Path_933" data-name="Path 933" d="M78.087,48.232A29.854,29.854,0,0,1,48.232,78.087H0V29.859A29.852,29.852,0,0,1,29.859,0H48.232A29.851,29.851,0,0,1,78.087,29.859ZM67.6,32.328A21.836,21.836,0,0,0,45.758,10.5H32.328A21.832,21.832,0,0,0,10.5,32.328V67.6H45.758A21.84,21.84,0,0,0,67.6,45.758Z" transform="translate(4843 -417.548)" fill="#eaeaea"/>
            <path id="Path_934" data-name="Path 934" d="M47.92,78.087A29.858,29.858,0,0,1,18.061,48.232V0H66.293A29.859,29.859,0,0,1,96.153,29.859V48.232A29.855,29.855,0,0,1,66.293,78.087Zm15.9-10.49A21.832,21.832,0,0,0,85.657,45.763V32.328A21.832,21.832,0,0,0,63.824,10.5H28.556V45.763A21.836,21.836,0,0,0,50.394,67.6Z" transform="translate(4914.478 -417.548)" fill="#eaeaea"/>
          </g>
          <g id="Group_495" data-name="Group 495" transform="translate(250.604 -351.396)">
            <path id="Path_935" data-name="Path 935" d="M78.087,48.232A29.854,29.854,0,0,1,48.232,78.087H0V29.859A29.852,29.852,0,0,1,29.859,0H48.232A29.851,29.851,0,0,1,78.087,29.859ZM67.6,32.328A21.836,21.836,0,0,0,45.758,10.5H32.328A21.832,21.832,0,0,0,10.5,32.328V67.6H45.758A21.84,21.84,0,0,0,67.6,45.758Z" transform="translate(4843 -417.548)" fill="#eaeaea"/>
            <path id="Path_936" data-name="Path 936" d="M47.92,78.087A29.858,29.858,0,0,1,18.061,48.232V0H66.293A29.859,29.859,0,0,1,96.153,29.859V48.232A29.855,29.855,0,0,1,66.293,78.087Zm15.9-10.49A21.832,21.832,0,0,0,85.657,45.763V32.328A21.832,21.832,0,0,0,63.824,10.5H28.556V45.763A21.836,21.836,0,0,0,50.394,67.6Z" transform="translate(4914.478 -417.548)" fill="#eaeaea"/>
          </g>
        </g>
        <g transform="translate(-3661.604 859.943)">
          <g id="Group_496" data-name="Group 496" transform="translate(334.419 -442.396)">
            <path id="Path_937" data-name="Path 937" d="M78.087,48.232A29.854,29.854,0,0,1,48.232,78.087H0V29.859A29.852,29.852,0,0,1,29.859,0H48.232A29.851,29.851,0,0,1,78.087,29.859ZM67.6,32.328A21.836,21.836,0,0,0,45.758,10.5H32.328A21.832,21.832,0,0,0,10.5,32.328V67.6H45.758A21.84,21.84,0,0,0,67.6,45.758Z" transform="translate(4843 -417.548)" fill="#eaeaea"/>
            <path id="Path_938" data-name="Path 938" d="M47.92,78.087A29.858,29.858,0,0,1,18.061,48.232V0H66.293A29.859,29.859,0,0,1,96.153,29.859V48.232A29.855,29.855,0,0,1,66.293,78.087Zm15.9-10.49A21.832,21.832,0,0,0,85.657,45.763V32.328A21.832,21.832,0,0,0,63.824,10.5H28.556V45.763A21.836,21.836,0,0,0,50.394,67.6Z" transform="translate(4914.478 -417.548)" fill="#eaeaea"/>
          </g>
          <g id="Group_497" data-name="Group 497" transform="translate(250.604 -351.396)">
            <path id="Path_939" data-name="Path 939" d="M78.087,48.232A29.854,29.854,0,0,1,48.232,78.087H0V29.859A29.852,29.852,0,0,1,29.859,0H48.232A29.851,29.851,0,0,1,78.087,29.859ZM67.6,32.328A21.836,21.836,0,0,0,45.758,10.5H32.328A21.832,21.832,0,0,0,10.5,32.328V67.6H45.758A21.84,21.84,0,0,0,67.6,45.758Z" transform="translate(4843 -417.548)" fill="#eaeaea"/>
            <path id="Path_940" data-name="Path 940" d="M47.92,78.087A29.858,29.858,0,0,1,18.061,48.232V0H66.293A29.859,29.859,0,0,1,96.153,29.859V48.232A29.855,29.855,0,0,1,66.293,78.087Zm15.9-10.49A21.832,21.832,0,0,0,85.657,45.763V32.328A21.832,21.832,0,0,0,63.824,10.5H28.556V45.763A21.836,21.836,0,0,0,50.394,67.6Z" transform="translate(4914.478 -417.548)" fill="#eaeaea"/>
          </g>
        </g>
        <g transform="translate(-3482.604 859.943)">
          <g id="Group_498" data-name="Group 498" transform="translate(334.419 -442.396)">
            <path id="Path_941" data-name="Path 941" d="M78.087,48.232A29.854,29.854,0,0,1,48.232,78.087H0V29.859A29.852,29.852,0,0,1,29.859,0H48.232A29.851,29.851,0,0,1,78.087,29.859ZM67.6,32.328A21.836,21.836,0,0,0,45.758,10.5H32.328A21.832,21.832,0,0,0,10.5,32.328V67.6H45.758A21.84,21.84,0,0,0,67.6,45.758Z" transform="translate(4843 -417.548)" fill="#eaeaea"/>
            <path id="Path_942" data-name="Path 942" d="M47.92,78.087A29.858,29.858,0,0,1,18.061,48.232V0H66.293A29.859,29.859,0,0,1,96.153,29.859V48.232A29.855,29.855,0,0,1,66.293,78.087Zm15.9-10.49A21.832,21.832,0,0,0,85.657,45.763V32.328A21.832,21.832,0,0,0,63.824,10.5H28.556V45.763A21.836,21.836,0,0,0,50.394,67.6Z" transform="translate(4914.478 -417.548)" fill="#eaeaea"/>
          </g>
          <g id="Group_499" data-name="Group 499" transform="translate(250.604 -351.396)">
            <path id="Path_943" data-name="Path 943" d="M78.087,48.232A29.854,29.854,0,0,1,48.232,78.087H0V29.859A29.852,29.852,0,0,1,29.859,0H48.232A29.851,29.851,0,0,1,78.087,29.859ZM67.6,32.328A21.836,21.836,0,0,0,45.758,10.5H32.328A21.832,21.832,0,0,0,10.5,32.328V67.6H45.758A21.84,21.84,0,0,0,67.6,45.758Z" transform="translate(4843 -417.548)" fill="#eaeaea"/>
            <path id="Path_944" data-name="Path 944" d="M47.92,78.087A29.858,29.858,0,0,1,18.061,48.232V0H66.293A29.859,29.859,0,0,1,96.153,29.859V48.232A29.855,29.855,0,0,1,66.293,78.087Zm15.9-10.49A21.832,21.832,0,0,0,85.657,45.763V32.328A21.832,21.832,0,0,0,63.824,10.5H28.556V45.763A21.836,21.836,0,0,0,50.394,67.6Z" transform="translate(4914.478 -417.548)" fill="#eaeaea"/>
          </g>
        </g>
        <g transform="translate(-3303.604 859.943)">
          <g id="Group_500" data-name="Group 500" transform="translate(334.419 -442.396)">
            <path id="Path_945" data-name="Path 945" d="M78.087,48.232A29.854,29.854,0,0,1,48.232,78.087H0V29.859A29.852,29.852,0,0,1,29.859,0H48.232A29.851,29.851,0,0,1,78.087,29.859ZM67.6,32.328A21.836,21.836,0,0,0,45.758,10.5H32.328A21.832,21.832,0,0,0,10.5,32.328V67.6H45.758A21.84,21.84,0,0,0,67.6,45.758Z" transform="translate(4843 -417.548)" fill="#eaeaea"/>
            <path id="Path_946" data-name="Path 946" d="M47.92,78.087A29.858,29.858,0,0,1,18.061,48.232V0H66.293A29.859,29.859,0,0,1,96.153,29.859V48.232A29.855,29.855,0,0,1,66.293,78.087Zm15.9-10.49A21.832,21.832,0,0,0,85.657,45.763V32.328A21.832,21.832,0,0,0,63.824,10.5H28.556V45.763A21.836,21.836,0,0,0,50.394,67.6Z" transform="translate(4914.478 -417.548)" fill="#eaeaea"/>
          </g>
          <g id="Group_501" data-name="Group 501" transform="translate(250.604 -351.396)">
            <path id="Path_947" data-name="Path 947" d="M78.087,48.232A29.854,29.854,0,0,1,48.232,78.087H0V29.859A29.852,29.852,0,0,1,29.859,0H48.232A29.851,29.851,0,0,1,78.087,29.859ZM67.6,32.328A21.836,21.836,0,0,0,45.758,10.5H32.328A21.832,21.832,0,0,0,10.5,32.328V67.6H45.758A21.84,21.84,0,0,0,67.6,45.758Z" transform="translate(4843 -417.548)" fill="#eaeaea"/>
            <path id="Path_948" data-name="Path 948" d="M47.92,78.087A29.858,29.858,0,0,1,18.061,48.232V0H66.293A29.859,29.859,0,0,1,96.153,29.859V48.232A29.855,29.855,0,0,1,66.293,78.087Zm15.9-10.49A21.832,21.832,0,0,0,85.657,45.763V32.328A21.832,21.832,0,0,0,63.824,10.5H28.556V45.763A21.836,21.836,0,0,0,50.394,67.6Z" transform="translate(4914.478 -417.548)" fill="#eaeaea"/>
          </g>
        </g>
        <g transform="translate(-3124.604 859.943)">
          <g id="Group_502" data-name="Group 502" transform="translate(334.419 -442.396)">
            <path id="Path_949" data-name="Path 949" d="M78.087,48.232A29.854,29.854,0,0,1,48.232,78.087H0V29.859A29.852,29.852,0,0,1,29.859,0H48.232A29.851,29.851,0,0,1,78.087,29.859ZM67.6,32.328A21.836,21.836,0,0,0,45.758,10.5H32.328A21.832,21.832,0,0,0,10.5,32.328V67.6H45.758A21.84,21.84,0,0,0,67.6,45.758Z" transform="translate(4843 -417.548)" fill="#eaeaea"/>
            <path id="Path_950" data-name="Path 950" d="M47.92,78.087A29.858,29.858,0,0,1,18.061,48.232V0H66.293A29.859,29.859,0,0,1,96.153,29.859V48.232A29.855,29.855,0,0,1,66.293,78.087Zm15.9-10.49A21.832,21.832,0,0,0,85.657,45.763V32.328A21.832,21.832,0,0,0,63.824,10.5H28.556V45.763A21.836,21.836,0,0,0,50.394,67.6Z" transform="translate(4914.478 -417.548)" fill="#eaeaea"/>
          </g>
          <g id="Group_503" data-name="Group 503" transform="translate(250.604 -351.396)">
            <path id="Path_951" data-name="Path 951" d="M78.087,48.232A29.854,29.854,0,0,1,48.232,78.087H0V29.859A29.852,29.852,0,0,1,29.859,0H48.232A29.851,29.851,0,0,1,78.087,29.859ZM67.6,32.328A21.836,21.836,0,0,0,45.758,10.5H32.328A21.832,21.832,0,0,0,10.5,32.328V67.6H45.758A21.84,21.84,0,0,0,67.6,45.758Z" transform="translate(4843 -417.548)" fill="#eaeaea"/>
            <path id="Path_952" data-name="Path 952" d="M47.92,78.087A29.858,29.858,0,0,1,18.061,48.232V0H66.293A29.859,29.859,0,0,1,96.153,29.859V48.232A29.855,29.855,0,0,1,66.293,78.087Zm15.9-10.49A21.832,21.832,0,0,0,85.657,45.763V32.328A21.832,21.832,0,0,0,63.824,10.5H28.556V45.763A21.836,21.836,0,0,0,50.394,67.6Z" transform="translate(4914.478 -417.548)" fill="#eaeaea"/>
          </g>
        </g>
        <g transform="translate(-5093.604 1035.943)">
          <g id="Group_504" data-name="Group 504" transform="translate(334.419 -442.396)">
            <path id="Path_953" data-name="Path 953" d="M78.087,48.232A29.854,29.854,0,0,1,48.232,78.087H0V29.859A29.852,29.852,0,0,1,29.859,0H48.232A29.851,29.851,0,0,1,78.087,29.859ZM67.6,32.328A21.836,21.836,0,0,0,45.758,10.5H32.328A21.832,21.832,0,0,0,10.5,32.328V67.6H45.758A21.84,21.84,0,0,0,67.6,45.758Z" transform="translate(4843 -417.548)" fill="#eaeaea"/>
            <path id="Path_954" data-name="Path 954" d="M47.92,78.087A29.858,29.858,0,0,1,18.061,48.232V0H66.293A29.859,29.859,0,0,1,96.153,29.859V48.232A29.855,29.855,0,0,1,66.293,78.087Zm15.9-10.49A21.832,21.832,0,0,0,85.657,45.763V32.328A21.832,21.832,0,0,0,63.824,10.5H28.556V45.763A21.836,21.836,0,0,0,50.394,67.6Z" transform="translate(4914.478 -417.548)" fill="#eaeaea"/>
          </g>
          <g id="Group_505" data-name="Group 505" transform="translate(250.604 -351.396)">
            <path id="Path_955" data-name="Path 955" d="M78.087,48.232A29.854,29.854,0,0,1,48.232,78.087H0V29.859A29.852,29.852,0,0,1,29.859,0H48.232A29.851,29.851,0,0,1,78.087,29.859ZM67.6,32.328A21.836,21.836,0,0,0,45.758,10.5H32.328A21.832,21.832,0,0,0,10.5,32.328V67.6H45.758A21.84,21.84,0,0,0,67.6,45.758Z" transform="translate(4843 -417.548)" fill="#eaeaea"/>
            <path id="Path_956" data-name="Path 956" d="M47.92,78.087A29.858,29.858,0,0,1,18.061,48.232V0H66.293A29.859,29.859,0,0,1,96.153,29.859V48.232A29.855,29.855,0,0,1,66.293,78.087Zm15.9-10.49A21.832,21.832,0,0,0,85.657,45.763V32.328A21.832,21.832,0,0,0,63.824,10.5H28.556V45.763A21.836,21.836,0,0,0,50.394,67.6Z" transform="translate(4914.478 -417.548)" fill="#eaeaea"/>
          </g>
        </g>
        <g transform="translate(-4914.604 1035.943)">
          <g id="Group_506" data-name="Group 506" transform="translate(334.419 -442.396)">
            <path id="Path_957" data-name="Path 957" d="M78.087,48.232A29.854,29.854,0,0,1,48.232,78.087H0V29.859A29.852,29.852,0,0,1,29.859,0H48.232A29.851,29.851,0,0,1,78.087,29.859ZM67.6,32.328A21.836,21.836,0,0,0,45.758,10.5H32.328A21.832,21.832,0,0,0,10.5,32.328V67.6H45.758A21.84,21.84,0,0,0,67.6,45.758Z" transform="translate(4843 -417.548)" fill="#eaeaea"/>
            <path id="Path_958" data-name="Path 958" d="M47.92,78.087A29.858,29.858,0,0,1,18.061,48.232V0H66.293A29.859,29.859,0,0,1,96.153,29.859V48.232A29.855,29.855,0,0,1,66.293,78.087Zm15.9-10.49A21.832,21.832,0,0,0,85.657,45.763V32.328A21.832,21.832,0,0,0,63.824,10.5H28.556V45.763A21.836,21.836,0,0,0,50.394,67.6Z" transform="translate(4914.478 -417.548)" fill="#eaeaea"/>
          </g>
          <g id="Group_507" data-name="Group 507" transform="translate(250.604 -351.396)">
            <path id="Path_959" data-name="Path 959" d="M78.087,48.232A29.854,29.854,0,0,1,48.232,78.087H0V29.859A29.852,29.852,0,0,1,29.859,0H48.232A29.851,29.851,0,0,1,78.087,29.859ZM67.6,32.328A21.836,21.836,0,0,0,45.758,10.5H32.328A21.832,21.832,0,0,0,10.5,32.328V67.6H45.758A21.84,21.84,0,0,0,67.6,45.758Z" transform="translate(4843 -417.548)" fill="#eaeaea"/>
            <path id="Path_960" data-name="Path 960" d="M47.92,78.087A29.858,29.858,0,0,1,18.061,48.232V0H66.293A29.859,29.859,0,0,1,96.153,29.859V48.232A29.855,29.855,0,0,1,66.293,78.087Zm15.9-10.49A21.832,21.832,0,0,0,85.657,45.763V32.328A21.832,21.832,0,0,0,63.824,10.5H28.556V45.763A21.836,21.836,0,0,0,50.394,67.6Z" transform="translate(4914.478 -417.548)" fill="#eaeaea"/>
          </g>
        </g>
        <g transform="translate(-4735.604 1035.943)">
          <g id="Group_508" data-name="Group 508" transform="translate(334.419 -442.396)">
            <path id="Path_961" data-name="Path 961" d="M78.087,48.232A29.854,29.854,0,0,1,48.232,78.087H0V29.859A29.852,29.852,0,0,1,29.859,0H48.232A29.851,29.851,0,0,1,78.087,29.859ZM67.6,32.328A21.836,21.836,0,0,0,45.758,10.5H32.328A21.832,21.832,0,0,0,10.5,32.328V67.6H45.758A21.84,21.84,0,0,0,67.6,45.758Z" transform="translate(4843 -417.548)" fill="#eaeaea"/>
            <path id="Path_962" data-name="Path 962" d="M47.92,78.087A29.858,29.858,0,0,1,18.061,48.232V0H66.293A29.859,29.859,0,0,1,96.153,29.859V48.232A29.855,29.855,0,0,1,66.293,78.087Zm15.9-10.49A21.832,21.832,0,0,0,85.657,45.763V32.328A21.832,21.832,0,0,0,63.824,10.5H28.556V45.763A21.836,21.836,0,0,0,50.394,67.6Z" transform="translate(4914.478 -417.548)" fill="#eaeaea"/>
          </g>
          <g id="Group_509" data-name="Group 509" transform="translate(250.604 -351.396)">
            <path id="Path_963" data-name="Path 963" d="M78.087,48.232A29.854,29.854,0,0,1,48.232,78.087H0V29.859A29.852,29.852,0,0,1,29.859,0H48.232A29.851,29.851,0,0,1,78.087,29.859ZM67.6,32.328A21.836,21.836,0,0,0,45.758,10.5H32.328A21.832,21.832,0,0,0,10.5,32.328V67.6H45.758A21.84,21.84,0,0,0,67.6,45.758Z" transform="translate(4843 -417.548)" fill="#eaeaea"/>
            <path id="Path_964" data-name="Path 964" d="M47.92,78.087A29.858,29.858,0,0,1,18.061,48.232V0H66.293A29.859,29.859,0,0,1,96.153,29.859V48.232A29.855,29.855,0,0,1,66.293,78.087Zm15.9-10.49A21.832,21.832,0,0,0,85.657,45.763V32.328A21.832,21.832,0,0,0,63.824,10.5H28.556V45.763A21.836,21.836,0,0,0,50.394,67.6Z" transform="translate(4914.478 -417.548)" fill="#eaeaea"/>
          </g>
        </g>
        <g transform="translate(-4556.604 1035.943)">
          <g id="Group_510" data-name="Group 510" transform="translate(334.419 -442.396)">
            <path id="Path_965" data-name="Path 965" d="M78.087,48.232A29.854,29.854,0,0,1,48.232,78.087H0V29.859A29.852,29.852,0,0,1,29.859,0H48.232A29.851,29.851,0,0,1,78.087,29.859ZM67.6,32.328A21.836,21.836,0,0,0,45.758,10.5H32.328A21.832,21.832,0,0,0,10.5,32.328V67.6H45.758A21.84,21.84,0,0,0,67.6,45.758Z" transform="translate(4843 -417.548)" fill="#eaeaea"/>
            <path id="Path_966" data-name="Path 966" d="M47.92,78.087A29.858,29.858,0,0,1,18.061,48.232V0H66.293A29.859,29.859,0,0,1,96.153,29.859V48.232A29.855,29.855,0,0,1,66.293,78.087Zm15.9-10.49A21.832,21.832,0,0,0,85.657,45.763V32.328A21.832,21.832,0,0,0,63.824,10.5H28.556V45.763A21.836,21.836,0,0,0,50.394,67.6Z" transform="translate(4914.478 -417.548)" fill="#eaeaea"/>
          </g>
          <g id="Group_511" data-name="Group 511" transform="translate(250.604 -351.396)">
            <path id="Path_967" data-name="Path 967" d="M78.087,48.232A29.854,29.854,0,0,1,48.232,78.087H0V29.859A29.852,29.852,0,0,1,29.859,0H48.232A29.851,29.851,0,0,1,78.087,29.859ZM67.6,32.328A21.836,21.836,0,0,0,45.758,10.5H32.328A21.832,21.832,0,0,0,10.5,32.328V67.6H45.758A21.84,21.84,0,0,0,67.6,45.758Z" transform="translate(4843 -417.548)" fill="#eaeaea"/>
            <path id="Path_968" data-name="Path 968" d="M47.92,78.087A29.858,29.858,0,0,1,18.061,48.232V0H66.293A29.859,29.859,0,0,1,96.153,29.859V48.232A29.855,29.855,0,0,1,66.293,78.087Zm15.9-10.49A21.832,21.832,0,0,0,85.657,45.763V32.328A21.832,21.832,0,0,0,63.824,10.5H28.556V45.763A21.836,21.836,0,0,0,50.394,67.6Z" transform="translate(4914.478 -417.548)" fill="#eaeaea"/>
          </g>
        </g>
        <g transform="translate(-4377.604 1035.943)">
          <g id="Group_512" data-name="Group 512" transform="translate(334.419 -442.396)">
            <path id="Path_969" data-name="Path 969" d="M78.087,48.232A29.854,29.854,0,0,1,48.232,78.087H0V29.859A29.852,29.852,0,0,1,29.859,0H48.232A29.851,29.851,0,0,1,78.087,29.859ZM67.6,32.328A21.836,21.836,0,0,0,45.758,10.5H32.328A21.832,21.832,0,0,0,10.5,32.328V67.6H45.758A21.84,21.84,0,0,0,67.6,45.758Z" transform="translate(4843 -417.548)" fill="#eaeaea"/>
            <path id="Path_970" data-name="Path 970" d="M47.92,78.087A29.858,29.858,0,0,1,18.061,48.232V0H66.293A29.859,29.859,0,0,1,96.153,29.859V48.232A29.855,29.855,0,0,1,66.293,78.087Zm15.9-10.49A21.832,21.832,0,0,0,85.657,45.763V32.328A21.832,21.832,0,0,0,63.824,10.5H28.556V45.763A21.836,21.836,0,0,0,50.394,67.6Z" transform="translate(4914.478 -417.548)" fill="#eaeaea"/>
          </g>
          <g id="Group_513" data-name="Group 513" transform="translate(250.604 -351.396)">
            <path id="Path_971" data-name="Path 971" d="M78.087,48.232A29.854,29.854,0,0,1,48.232,78.087H0V29.859A29.852,29.852,0,0,1,29.859,0H48.232A29.851,29.851,0,0,1,78.087,29.859ZM67.6,32.328A21.836,21.836,0,0,0,45.758,10.5H32.328A21.832,21.832,0,0,0,10.5,32.328V67.6H45.758A21.84,21.84,0,0,0,67.6,45.758Z" transform="translate(4843 -417.548)" fill="#eaeaea"/>
            <path id="Path_972" data-name="Path 972" d="M47.92,78.087A29.858,29.858,0,0,1,18.061,48.232V0H66.293A29.859,29.859,0,0,1,96.153,29.859V48.232A29.855,29.855,0,0,1,66.293,78.087Zm15.9-10.49A21.832,21.832,0,0,0,85.657,45.763V32.328A21.832,21.832,0,0,0,63.824,10.5H28.556V45.763A21.836,21.836,0,0,0,50.394,67.6Z" transform="translate(4914.478 -417.548)" fill="#eaeaea"/>
          </g>
        </g>
        <g transform="translate(-4198.604 1035.943)">
          <g id="Group_514" data-name="Group 514" transform="translate(334.419 -442.396)">
            <path id="Path_973" data-name="Path 973" d="M78.087,48.232A29.854,29.854,0,0,1,48.232,78.087H0V29.859A29.852,29.852,0,0,1,29.859,0H48.232A29.851,29.851,0,0,1,78.087,29.859ZM67.6,32.328A21.836,21.836,0,0,0,45.758,10.5H32.328A21.832,21.832,0,0,0,10.5,32.328V67.6H45.758A21.84,21.84,0,0,0,67.6,45.758Z" transform="translate(4843 -417.548)" fill="#eaeaea"/>
            <path id="Path_974" data-name="Path 974" d="M47.92,78.087A29.858,29.858,0,0,1,18.061,48.232V0H66.293A29.859,29.859,0,0,1,96.153,29.859V48.232A29.855,29.855,0,0,1,66.293,78.087Zm15.9-10.49A21.832,21.832,0,0,0,85.657,45.763V32.328A21.832,21.832,0,0,0,63.824,10.5H28.556V45.763A21.836,21.836,0,0,0,50.394,67.6Z" transform="translate(4914.478 -417.548)" fill="#eaeaea"/>
          </g>
          <g id="Group_515" data-name="Group 515" transform="translate(250.604 -351.396)">
            <path id="Path_975" data-name="Path 975" d="M78.087,48.232A29.854,29.854,0,0,1,48.232,78.087H0V29.859A29.852,29.852,0,0,1,29.859,0H48.232A29.851,29.851,0,0,1,78.087,29.859ZM67.6,32.328A21.836,21.836,0,0,0,45.758,10.5H32.328A21.832,21.832,0,0,0,10.5,32.328V67.6H45.758A21.84,21.84,0,0,0,67.6,45.758Z" transform="translate(4843 -417.548)" fill="#eaeaea"/>
            <path id="Path_976" data-name="Path 976" d="M47.92,78.087A29.858,29.858,0,0,1,18.061,48.232V0H66.293A29.859,29.859,0,0,1,96.153,29.859V48.232A29.855,29.855,0,0,1,66.293,78.087Zm15.9-10.49A21.832,21.832,0,0,0,85.657,45.763V32.328A21.832,21.832,0,0,0,63.824,10.5H28.556V45.763A21.836,21.836,0,0,0,50.394,67.6Z" transform="translate(4914.478 -417.548)" fill="#eaeaea"/>
          </g>
        </g>
        <g transform="translate(-4019.604 1035.943)">
          <g id="Group_516" data-name="Group 516" transform="translate(334.419 -442.396)">
            <path id="Path_977" data-name="Path 977" d="M78.087,48.232A29.854,29.854,0,0,1,48.232,78.087H0V29.859A29.852,29.852,0,0,1,29.859,0H48.232A29.851,29.851,0,0,1,78.087,29.859ZM67.6,32.328A21.836,21.836,0,0,0,45.758,10.5H32.328A21.832,21.832,0,0,0,10.5,32.328V67.6H45.758A21.84,21.84,0,0,0,67.6,45.758Z" transform="translate(4843 -417.548)" fill="#eaeaea"/>
            <path id="Path_978" data-name="Path 978" d="M47.92,78.087A29.858,29.858,0,0,1,18.061,48.232V0H66.293A29.859,29.859,0,0,1,96.153,29.859V48.232A29.855,29.855,0,0,1,66.293,78.087Zm15.9-10.49A21.832,21.832,0,0,0,85.657,45.763V32.328A21.832,21.832,0,0,0,63.824,10.5H28.556V45.763A21.836,21.836,0,0,0,50.394,67.6Z" transform="translate(4914.478 -417.548)" fill="#eaeaea"/>
          </g>
          <g id="Group_517" data-name="Group 517" transform="translate(250.604 -351.396)">
            <path id="Path_979" data-name="Path 979" d="M78.087,48.232A29.854,29.854,0,0,1,48.232,78.087H0V29.859A29.852,29.852,0,0,1,29.859,0H48.232A29.851,29.851,0,0,1,78.087,29.859ZM67.6,32.328A21.836,21.836,0,0,0,45.758,10.5H32.328A21.832,21.832,0,0,0,10.5,32.328V67.6H45.758A21.84,21.84,0,0,0,67.6,45.758Z" transform="translate(4843 -417.548)" fill="#eaeaea"/>
            <path id="Path_980" data-name="Path 980" d="M47.92,78.087A29.858,29.858,0,0,1,18.061,48.232V0H66.293A29.859,29.859,0,0,1,96.153,29.859V48.232A29.855,29.855,0,0,1,66.293,78.087Zm15.9-10.49A21.832,21.832,0,0,0,85.657,45.763V32.328A21.832,21.832,0,0,0,63.824,10.5H28.556V45.763A21.836,21.836,0,0,0,50.394,67.6Z" transform="translate(4914.478 -417.548)" fill="#eaeaea"/>
          </g>
        </g>
        <g transform="translate(-3840.604 1035.943)">
          <g id="Group_518" data-name="Group 518" transform="translate(334.419 -442.396)">
            <path id="Path_981" data-name="Path 981" d="M78.087,48.232A29.854,29.854,0,0,1,48.232,78.087H0V29.859A29.852,29.852,0,0,1,29.859,0H48.232A29.851,29.851,0,0,1,78.087,29.859ZM67.6,32.328A21.836,21.836,0,0,0,45.758,10.5H32.328A21.832,21.832,0,0,0,10.5,32.328V67.6H45.758A21.84,21.84,0,0,0,67.6,45.758Z" transform="translate(4843 -417.548)" fill="#eaeaea"/>
            <path id="Path_982" data-name="Path 982" d="M47.92,78.087A29.858,29.858,0,0,1,18.061,48.232V0H66.293A29.859,29.859,0,0,1,96.153,29.859V48.232A29.855,29.855,0,0,1,66.293,78.087Zm15.9-10.49A21.832,21.832,0,0,0,85.657,45.763V32.328A21.832,21.832,0,0,0,63.824,10.5H28.556V45.763A21.836,21.836,0,0,0,50.394,67.6Z" transform="translate(4914.478 -417.548)" fill="#eaeaea"/>
          </g>
          <g id="Group_519" data-name="Group 519" transform="translate(250.604 -351.396)">
            <path id="Path_983" data-name="Path 983" d="M78.087,48.232A29.854,29.854,0,0,1,48.232,78.087H0V29.859A29.852,29.852,0,0,1,29.859,0H48.232A29.851,29.851,0,0,1,78.087,29.859ZM67.6,32.328A21.836,21.836,0,0,0,45.758,10.5H32.328A21.832,21.832,0,0,0,10.5,32.328V67.6H45.758A21.84,21.84,0,0,0,67.6,45.758Z" transform="translate(4843 -417.548)" fill="#eaeaea"/>
            <path id="Path_984" data-name="Path 984" d="M47.92,78.087A29.858,29.858,0,0,1,18.061,48.232V0H66.293A29.859,29.859,0,0,1,96.153,29.859V48.232A29.855,29.855,0,0,1,66.293,78.087Zm15.9-10.49A21.832,21.832,0,0,0,85.657,45.763V32.328A21.832,21.832,0,0,0,63.824,10.5H28.556V45.763A21.836,21.836,0,0,0,50.394,67.6Z" transform="translate(4914.478 -417.548)" fill="#eaeaea"/>
          </g>
        </g>
        <g transform="translate(-3661.604 1035.943)">
          <g id="Group_520" data-name="Group 520" transform="translate(334.419 -442.396)">
            <path id="Path_985" data-name="Path 985" d="M78.087,48.232A29.854,29.854,0,0,1,48.232,78.087H0V29.859A29.852,29.852,0,0,1,29.859,0H48.232A29.851,29.851,0,0,1,78.087,29.859ZM67.6,32.328A21.836,21.836,0,0,0,45.758,10.5H32.328A21.832,21.832,0,0,0,10.5,32.328V67.6H45.758A21.84,21.84,0,0,0,67.6,45.758Z" transform="translate(4843 -417.548)" fill="#eaeaea"/>
            <path id="Path_986" data-name="Path 986" d="M47.92,78.087A29.858,29.858,0,0,1,18.061,48.232V0H66.293A29.859,29.859,0,0,1,96.153,29.859V48.232A29.855,29.855,0,0,1,66.293,78.087Zm15.9-10.49A21.832,21.832,0,0,0,85.657,45.763V32.328A21.832,21.832,0,0,0,63.824,10.5H28.556V45.763A21.836,21.836,0,0,0,50.394,67.6Z" transform="translate(4914.478 -417.548)" fill="#eaeaea"/>
          </g>
          <g id="Group_521" data-name="Group 521" transform="translate(250.604 -351.396)">
            <path id="Path_987" data-name="Path 987" d="M78.087,48.232A29.854,29.854,0,0,1,48.232,78.087H0V29.859A29.852,29.852,0,0,1,29.859,0H48.232A29.851,29.851,0,0,1,78.087,29.859ZM67.6,32.328A21.836,21.836,0,0,0,45.758,10.5H32.328A21.832,21.832,0,0,0,10.5,32.328V67.6H45.758A21.84,21.84,0,0,0,67.6,45.758Z" transform="translate(4843 -417.548)" fill="#eaeaea"/>
            <path id="Path_988" data-name="Path 988" d="M47.92,78.087A29.858,29.858,0,0,1,18.061,48.232V0H66.293A29.859,29.859,0,0,1,96.153,29.859V48.232A29.855,29.855,0,0,1,66.293,78.087Zm15.9-10.49A21.832,21.832,0,0,0,85.657,45.763V32.328A21.832,21.832,0,0,0,63.824,10.5H28.556V45.763A21.836,21.836,0,0,0,50.394,67.6Z" transform="translate(4914.478 -417.548)" fill="#eaeaea"/>
          </g>
        </g>
        <g transform="translate(-3482.604 1035.943)">
          <g id="Group_522" data-name="Group 522" transform="translate(334.419 -442.396)">
            <path id="Path_989" data-name="Path 989" d="M78.087,48.232A29.854,29.854,0,0,1,48.232,78.087H0V29.859A29.852,29.852,0,0,1,29.859,0H48.232A29.851,29.851,0,0,1,78.087,29.859ZM67.6,32.328A21.836,21.836,0,0,0,45.758,10.5H32.328A21.832,21.832,0,0,0,10.5,32.328V67.6H45.758A21.84,21.84,0,0,0,67.6,45.758Z" transform="translate(4843 -417.548)" fill="#eaeaea"/>
            <path id="Path_990" data-name="Path 990" d="M47.92,78.087A29.858,29.858,0,0,1,18.061,48.232V0H66.293A29.859,29.859,0,0,1,96.153,29.859V48.232A29.855,29.855,0,0,1,66.293,78.087Zm15.9-10.49A21.832,21.832,0,0,0,85.657,45.763V32.328A21.832,21.832,0,0,0,63.824,10.5H28.556V45.763A21.836,21.836,0,0,0,50.394,67.6Z" transform="translate(4914.478 -417.548)" fill="#eaeaea"/>
          </g>
          <g id="Group_523" data-name="Group 523" transform="translate(250.604 -351.396)">
            <path id="Path_991" data-name="Path 991" d="M78.087,48.232A29.854,29.854,0,0,1,48.232,78.087H0V29.859A29.852,29.852,0,0,1,29.859,0H48.232A29.851,29.851,0,0,1,78.087,29.859ZM67.6,32.328A21.836,21.836,0,0,0,45.758,10.5H32.328A21.832,21.832,0,0,0,10.5,32.328V67.6H45.758A21.84,21.84,0,0,0,67.6,45.758Z" transform="translate(4843 -417.548)" fill="#eaeaea"/>
            <path id="Path_992" data-name="Path 992" d="M47.92,78.087A29.858,29.858,0,0,1,18.061,48.232V0H66.293A29.859,29.859,0,0,1,96.153,29.859V48.232A29.855,29.855,0,0,1,66.293,78.087Zm15.9-10.49A21.832,21.832,0,0,0,85.657,45.763V32.328A21.832,21.832,0,0,0,63.824,10.5H28.556V45.763A21.836,21.836,0,0,0,50.394,67.6Z" transform="translate(4914.478 -417.548)" fill="#eaeaea"/>
          </g>
        </g>
        <g transform="translate(-3303.604 1035.943)">
          <g id="Group_524" data-name="Group 524" transform="translate(334.419 -442.396)">
            <path id="Path_993" data-name="Path 993" d="M78.087,48.232A29.854,29.854,0,0,1,48.232,78.087H0V29.859A29.852,29.852,0,0,1,29.859,0H48.232A29.851,29.851,0,0,1,78.087,29.859ZM67.6,32.328A21.836,21.836,0,0,0,45.758,10.5H32.328A21.832,21.832,0,0,0,10.5,32.328V67.6H45.758A21.84,21.84,0,0,0,67.6,45.758Z" transform="translate(4843 -417.548)" fill="#eaeaea"/>
            <path id="Path_994" data-name="Path 994" d="M47.92,78.087A29.858,29.858,0,0,1,18.061,48.232V0H66.293A29.859,29.859,0,0,1,96.153,29.859V48.232A29.855,29.855,0,0,1,66.293,78.087Zm15.9-10.49A21.832,21.832,0,0,0,85.657,45.763V32.328A21.832,21.832,0,0,0,63.824,10.5H28.556V45.763A21.836,21.836,0,0,0,50.394,67.6Z" transform="translate(4914.478 -417.548)" fill="#eaeaea"/>
          </g>
          <g id="Group_525" data-name="Group 525" transform="translate(250.604 -351.396)">
            <path id="Path_995" data-name="Path 995" d="M78.087,48.232A29.854,29.854,0,0,1,48.232,78.087H0V29.859A29.852,29.852,0,0,1,29.859,0H48.232A29.851,29.851,0,0,1,78.087,29.859ZM67.6,32.328A21.836,21.836,0,0,0,45.758,10.5H32.328A21.832,21.832,0,0,0,10.5,32.328V67.6H45.758A21.84,21.84,0,0,0,67.6,45.758Z" transform="translate(4843 -417.548)" fill="#eaeaea"/>
            <path id="Path_996" data-name="Path 996" d="M47.92,78.087A29.858,29.858,0,0,1,18.061,48.232V0H66.293A29.859,29.859,0,0,1,96.153,29.859V48.232A29.855,29.855,0,0,1,66.293,78.087Zm15.9-10.49A21.832,21.832,0,0,0,85.657,45.763V32.328A21.832,21.832,0,0,0,63.824,10.5H28.556V45.763A21.836,21.836,0,0,0,50.394,67.6Z" transform="translate(4914.478 -417.548)" fill="#eaeaea"/>
          </g>
        </g>
        <g transform="translate(-3124.604 1035.943)">
          <g id="Group_526" data-name="Group 526" transform="translate(334.419 -442.396)">
            <path id="Path_997" data-name="Path 997" d="M78.087,48.232A29.854,29.854,0,0,1,48.232,78.087H0V29.859A29.852,29.852,0,0,1,29.859,0H48.232A29.851,29.851,0,0,1,78.087,29.859ZM67.6,32.328A21.836,21.836,0,0,0,45.758,10.5H32.328A21.832,21.832,0,0,0,10.5,32.328V67.6H45.758A21.84,21.84,0,0,0,67.6,45.758Z" transform="translate(4843 -417.548)" fill="#eaeaea"/>
            <path id="Path_998" data-name="Path 998" d="M47.92,78.087A29.858,29.858,0,0,1,18.061,48.232V0H66.293A29.859,29.859,0,0,1,96.153,29.859V48.232A29.855,29.855,0,0,1,66.293,78.087Zm15.9-10.49A21.832,21.832,0,0,0,85.657,45.763V32.328A21.832,21.832,0,0,0,63.824,10.5H28.556V45.763A21.836,21.836,0,0,0,50.394,67.6Z" transform="translate(4914.478 -417.548)" fill="#eaeaea"/>
          </g>
          <g id="Group_527" data-name="Group 527" transform="translate(250.604 -351.396)">
            <path id="Path_999" data-name="Path 999" d="M78.087,48.232A29.854,29.854,0,0,1,48.232,78.087H0V29.859A29.852,29.852,0,0,1,29.859,0H48.232A29.851,29.851,0,0,1,78.087,29.859ZM67.6,32.328A21.836,21.836,0,0,0,45.758,10.5H32.328A21.832,21.832,0,0,0,10.5,32.328V67.6H45.758A21.84,21.84,0,0,0,67.6,45.758Z" transform="translate(4843 -417.548)" fill="#eaeaea"/>
            <path id="Path_1000" data-name="Path 1000" d="M47.92,78.087A29.858,29.858,0,0,1,18.061,48.232V0H66.293A29.859,29.859,0,0,1,96.153,29.859V48.232A29.855,29.855,0,0,1,66.293,78.087Zm15.9-10.49A21.832,21.832,0,0,0,85.657,45.763V32.328A21.832,21.832,0,0,0,63.824,10.5H28.556V45.763A21.836,21.836,0,0,0,50.394,67.6Z" transform="translate(4914.478 -417.548)" fill="#eaeaea"/>
          </g>
        </g>
        <g transform="translate(-5093.604 1211.943)">
          <g id="Group_528" data-name="Group 528" transform="translate(334.419 -442.396)">
            <path id="Path_1001" data-name="Path 1001" d="M78.087,48.232A29.854,29.854,0,0,1,48.232,78.087H0V29.859A29.852,29.852,0,0,1,29.859,0H48.232A29.851,29.851,0,0,1,78.087,29.859ZM67.6,32.328A21.836,21.836,0,0,0,45.758,10.5H32.328A21.832,21.832,0,0,0,10.5,32.328V67.6H45.758A21.84,21.84,0,0,0,67.6,45.758Z" transform="translate(4843 -417.548)" fill="#eaeaea"/>
            <path id="Path_1002" data-name="Path 1002" d="M47.92,78.087A29.858,29.858,0,0,1,18.061,48.232V0H66.293A29.859,29.859,0,0,1,96.153,29.859V48.232A29.855,29.855,0,0,1,66.293,78.087Zm15.9-10.49A21.832,21.832,0,0,0,85.657,45.763V32.328A21.832,21.832,0,0,0,63.824,10.5H28.556V45.763A21.836,21.836,0,0,0,50.394,67.6Z" transform="translate(4914.478 -417.548)" fill="#eaeaea"/>
          </g>
          <g id="Group_529" data-name="Group 529" transform="translate(250.604 -351.396)">
            <path id="Path_1003" data-name="Path 1003" d="M78.087,48.232A29.854,29.854,0,0,1,48.232,78.087H0V29.859A29.852,29.852,0,0,1,29.859,0H48.232A29.851,29.851,0,0,1,78.087,29.859ZM67.6,32.328A21.836,21.836,0,0,0,45.758,10.5H32.328A21.832,21.832,0,0,0,10.5,32.328V67.6H45.758A21.84,21.84,0,0,0,67.6,45.758Z" transform="translate(4843 -417.548)" fill="#eaeaea"/>
            <path id="Path_1004" data-name="Path 1004" d="M47.92,78.087A29.858,29.858,0,0,1,18.061,48.232V0H66.293A29.859,29.859,0,0,1,96.153,29.859V48.232A29.855,29.855,0,0,1,66.293,78.087Zm15.9-10.49A21.832,21.832,0,0,0,85.657,45.763V32.328A21.832,21.832,0,0,0,63.824,10.5H28.556V45.763A21.836,21.836,0,0,0,50.394,67.6Z" transform="translate(4914.478 -417.548)" fill="#eaeaea"/>
          </g>
        </g>
        <g transform="translate(-4914.604 1211.943)">
          <g id="Group_530" data-name="Group 530" transform="translate(334.419 -442.396)">
            <path id="Path_1005" data-name="Path 1005" d="M78.087,48.232A29.854,29.854,0,0,1,48.232,78.087H0V29.859A29.852,29.852,0,0,1,29.859,0H48.232A29.851,29.851,0,0,1,78.087,29.859ZM67.6,32.328A21.836,21.836,0,0,0,45.758,10.5H32.328A21.832,21.832,0,0,0,10.5,32.328V67.6H45.758A21.84,21.84,0,0,0,67.6,45.758Z" transform="translate(4843 -417.548)" fill="#eaeaea"/>
            <path id="Path_1006" data-name="Path 1006" d="M47.92,78.087A29.858,29.858,0,0,1,18.061,48.232V0H66.293A29.859,29.859,0,0,1,96.153,29.859V48.232A29.855,29.855,0,0,1,66.293,78.087Zm15.9-10.49A21.832,21.832,0,0,0,85.657,45.763V32.328A21.832,21.832,0,0,0,63.824,10.5H28.556V45.763A21.836,21.836,0,0,0,50.394,67.6Z" transform="translate(4914.478 -417.548)" fill="#eaeaea"/>
          </g>
          <g id="Group_531" data-name="Group 531" transform="translate(250.604 -351.396)">
            <path id="Path_1007" data-name="Path 1007" d="M78.087,48.232A29.854,29.854,0,0,1,48.232,78.087H0V29.859A29.852,29.852,0,0,1,29.859,0H48.232A29.851,29.851,0,0,1,78.087,29.859ZM67.6,32.328A21.836,21.836,0,0,0,45.758,10.5H32.328A21.832,21.832,0,0,0,10.5,32.328V67.6H45.758A21.84,21.84,0,0,0,67.6,45.758Z" transform="translate(4843 -417.548)" fill="#eaeaea"/>
            <path id="Path_1008" data-name="Path 1008" d="M47.92,78.087A29.858,29.858,0,0,1,18.061,48.232V0H66.293A29.859,29.859,0,0,1,96.153,29.859V48.232A29.855,29.855,0,0,1,66.293,78.087Zm15.9-10.49A21.832,21.832,0,0,0,85.657,45.763V32.328A21.832,21.832,0,0,0,63.824,10.5H28.556V45.763A21.836,21.836,0,0,0,50.394,67.6Z" transform="translate(4914.478 -417.548)" fill="#eaeaea"/>
          </g>
        </g>
        <g transform="translate(-4735.604 1211.943)">
          <g id="Group_532" data-name="Group 532" transform="translate(334.419 -442.396)">
            <path id="Path_1009" data-name="Path 1009" d="M78.087,48.232A29.854,29.854,0,0,1,48.232,78.087H0V29.859A29.852,29.852,0,0,1,29.859,0H48.232A29.851,29.851,0,0,1,78.087,29.859ZM67.6,32.328A21.836,21.836,0,0,0,45.758,10.5H32.328A21.832,21.832,0,0,0,10.5,32.328V67.6H45.758A21.84,21.84,0,0,0,67.6,45.758Z" transform="translate(4843 -417.548)" fill="#eaeaea"/>
            <path id="Path_1010" data-name="Path 1010" d="M47.92,78.087A29.858,29.858,0,0,1,18.061,48.232V0H66.293A29.859,29.859,0,0,1,96.153,29.859V48.232A29.855,29.855,0,0,1,66.293,78.087Zm15.9-10.49A21.832,21.832,0,0,0,85.657,45.763V32.328A21.832,21.832,0,0,0,63.824,10.5H28.556V45.763A21.836,21.836,0,0,0,50.394,67.6Z" transform="translate(4914.478 -417.548)" fill="#eaeaea"/>
          </g>
          <g id="Group_533" data-name="Group 533" transform="translate(250.604 -351.396)">
            <path id="Path_1011" data-name="Path 1011" d="M78.087,48.232A29.854,29.854,0,0,1,48.232,78.087H0V29.859A29.852,29.852,0,0,1,29.859,0H48.232A29.851,29.851,0,0,1,78.087,29.859ZM67.6,32.328A21.836,21.836,0,0,0,45.758,10.5H32.328A21.832,21.832,0,0,0,10.5,32.328V67.6H45.758A21.84,21.84,0,0,0,67.6,45.758Z" transform="translate(4843 -417.548)" fill="#eaeaea"/>
            <path id="Path_1012" data-name="Path 1012" d="M47.92,78.087A29.858,29.858,0,0,1,18.061,48.232V0H66.293A29.859,29.859,0,0,1,96.153,29.859V48.232A29.855,29.855,0,0,1,66.293,78.087Zm15.9-10.49A21.832,21.832,0,0,0,85.657,45.763V32.328A21.832,21.832,0,0,0,63.824,10.5H28.556V45.763A21.836,21.836,0,0,0,50.394,67.6Z" transform="translate(4914.478 -417.548)" fill="#eaeaea"/>
          </g>
        </g>
        <g transform="translate(-4556.604 1211.943)">
          <g id="Group_534" data-name="Group 534" transform="translate(334.419 -442.396)">
            <path id="Path_1013" data-name="Path 1013" d="M78.087,48.232A29.854,29.854,0,0,1,48.232,78.087H0V29.859A29.852,29.852,0,0,1,29.859,0H48.232A29.851,29.851,0,0,1,78.087,29.859ZM67.6,32.328A21.836,21.836,0,0,0,45.758,10.5H32.328A21.832,21.832,0,0,0,10.5,32.328V67.6H45.758A21.84,21.84,0,0,0,67.6,45.758Z" transform="translate(4843 -417.548)" fill="#eaeaea"/>
            <path id="Path_1014" data-name="Path 1014" d="M47.92,78.087A29.858,29.858,0,0,1,18.061,48.232V0H66.293A29.859,29.859,0,0,1,96.153,29.859V48.232A29.855,29.855,0,0,1,66.293,78.087Zm15.9-10.49A21.832,21.832,0,0,0,85.657,45.763V32.328A21.832,21.832,0,0,0,63.824,10.5H28.556V45.763A21.836,21.836,0,0,0,50.394,67.6Z" transform="translate(4914.478 -417.548)" fill="#eaeaea"/>
          </g>
          <g id="Group_535" data-name="Group 535" transform="translate(250.604 -351.396)">
            <path id="Path_1015" data-name="Path 1015" d="M78.087,48.232A29.854,29.854,0,0,1,48.232,78.087H0V29.859A29.852,29.852,0,0,1,29.859,0H48.232A29.851,29.851,0,0,1,78.087,29.859ZM67.6,32.328A21.836,21.836,0,0,0,45.758,10.5H32.328A21.832,21.832,0,0,0,10.5,32.328V67.6H45.758A21.84,21.84,0,0,0,67.6,45.758Z" transform="translate(4843 -417.548)" fill="#eaeaea"/>
            <path id="Path_1016" data-name="Path 1016" d="M47.92,78.087A29.858,29.858,0,0,1,18.061,48.232V0H66.293A29.859,29.859,0,0,1,96.153,29.859V48.232A29.855,29.855,0,0,1,66.293,78.087Zm15.9-10.49A21.832,21.832,0,0,0,85.657,45.763V32.328A21.832,21.832,0,0,0,63.824,10.5H28.556V45.763A21.836,21.836,0,0,0,50.394,67.6Z" transform="translate(4914.478 -417.548)" fill="#eaeaea"/>
          </g>
        </g>
        <g transform="translate(-4377.604 1211.943)">
          <g id="Group_536" data-name="Group 536" transform="translate(334.419 -442.396)">
            <path id="Path_1017" data-name="Path 1017" d="M78.087,48.232A29.854,29.854,0,0,1,48.232,78.087H0V29.859A29.852,29.852,0,0,1,29.859,0H48.232A29.851,29.851,0,0,1,78.087,29.859ZM67.6,32.328A21.836,21.836,0,0,0,45.758,10.5H32.328A21.832,21.832,0,0,0,10.5,32.328V67.6H45.758A21.84,21.84,0,0,0,67.6,45.758Z" transform="translate(4843 -417.548)" fill="#eaeaea"/>
            <path id="Path_1018" data-name="Path 1018" d="M47.92,78.087A29.858,29.858,0,0,1,18.061,48.232V0H66.293A29.859,29.859,0,0,1,96.153,29.859V48.232A29.855,29.855,0,0,1,66.293,78.087Zm15.9-10.49A21.832,21.832,0,0,0,85.657,45.763V32.328A21.832,21.832,0,0,0,63.824,10.5H28.556V45.763A21.836,21.836,0,0,0,50.394,67.6Z" transform="translate(4914.478 -417.548)" fill="#eaeaea"/>
          </g>
          <g id="Group_537" data-name="Group 537" transform="translate(250.604 -351.396)">
            <path id="Path_1019" data-name="Path 1019" d="M78.087,48.232A29.854,29.854,0,0,1,48.232,78.087H0V29.859A29.852,29.852,0,0,1,29.859,0H48.232A29.851,29.851,0,0,1,78.087,29.859ZM67.6,32.328A21.836,21.836,0,0,0,45.758,10.5H32.328A21.832,21.832,0,0,0,10.5,32.328V67.6H45.758A21.84,21.84,0,0,0,67.6,45.758Z" transform="translate(4843 -417.548)" fill="#eaeaea"/>
            <path id="Path_1020" data-name="Path 1020" d="M47.92,78.087A29.858,29.858,0,0,1,18.061,48.232V0H66.293A29.859,29.859,0,0,1,96.153,29.859V48.232A29.855,29.855,0,0,1,66.293,78.087Zm15.9-10.49A21.832,21.832,0,0,0,85.657,45.763V32.328A21.832,21.832,0,0,0,63.824,10.5H28.556V45.763A21.836,21.836,0,0,0,50.394,67.6Z" transform="translate(4914.478 -417.548)" fill="#eaeaea"/>
          </g>
        </g>
        <g transform="translate(-4198.604 1211.943)">
          <g id="Group_538" data-name="Group 538" transform="translate(334.419 -442.396)">
            <path id="Path_1021" data-name="Path 1021" d="M78.087,48.232A29.854,29.854,0,0,1,48.232,78.087H0V29.859A29.852,29.852,0,0,1,29.859,0H48.232A29.851,29.851,0,0,1,78.087,29.859ZM67.6,32.328A21.836,21.836,0,0,0,45.758,10.5H32.328A21.832,21.832,0,0,0,10.5,32.328V67.6H45.758A21.84,21.84,0,0,0,67.6,45.758Z" transform="translate(4843 -417.548)" fill="#eaeaea"/>
            <path id="Path_1022" data-name="Path 1022" d="M47.92,78.087A29.858,29.858,0,0,1,18.061,48.232V0H66.293A29.859,29.859,0,0,1,96.153,29.859V48.232A29.855,29.855,0,0,1,66.293,78.087Zm15.9-10.49A21.832,21.832,0,0,0,85.657,45.763V32.328A21.832,21.832,0,0,0,63.824,10.5H28.556V45.763A21.836,21.836,0,0,0,50.394,67.6Z" transform="translate(4914.478 -417.548)" fill="#eaeaea"/>
          </g>
          <g id="Group_539" data-name="Group 539" transform="translate(250.604 -351.396)">
            <path id="Path_1023" data-name="Path 1023" d="M78.087,48.232A29.854,29.854,0,0,1,48.232,78.087H0V29.859A29.852,29.852,0,0,1,29.859,0H48.232A29.851,29.851,0,0,1,78.087,29.859ZM67.6,32.328A21.836,21.836,0,0,0,45.758,10.5H32.328A21.832,21.832,0,0,0,10.5,32.328V67.6H45.758A21.84,21.84,0,0,0,67.6,45.758Z" transform="translate(4843 -417.548)" fill="#eaeaea"/>
            <path id="Path_1024" data-name="Path 1024" d="M47.92,78.087A29.858,29.858,0,0,1,18.061,48.232V0H66.293A29.859,29.859,0,0,1,96.153,29.859V48.232A29.855,29.855,0,0,1,66.293,78.087Zm15.9-10.49A21.832,21.832,0,0,0,85.657,45.763V32.328A21.832,21.832,0,0,0,63.824,10.5H28.556V45.763A21.836,21.836,0,0,0,50.394,67.6Z" transform="translate(4914.478 -417.548)" fill="#eaeaea"/>
          </g>
        </g>
        <g transform="translate(-4019.604 1211.943)">
          <g id="Group_540" data-name="Group 540" transform="translate(334.419 -442.396)">
            <path id="Path_1025" data-name="Path 1025" d="M78.087,48.232A29.854,29.854,0,0,1,48.232,78.087H0V29.859A29.852,29.852,0,0,1,29.859,0H48.232A29.851,29.851,0,0,1,78.087,29.859ZM67.6,32.328A21.836,21.836,0,0,0,45.758,10.5H32.328A21.832,21.832,0,0,0,10.5,32.328V67.6H45.758A21.84,21.84,0,0,0,67.6,45.758Z" transform="translate(4843 -417.548)" fill="#eaeaea"/>
            <path id="Path_1026" data-name="Path 1026" d="M47.92,78.087A29.858,29.858,0,0,1,18.061,48.232V0H66.293A29.859,29.859,0,0,1,96.153,29.859V48.232A29.855,29.855,0,0,1,66.293,78.087Zm15.9-10.49A21.832,21.832,0,0,0,85.657,45.763V32.328A21.832,21.832,0,0,0,63.824,10.5H28.556V45.763A21.836,21.836,0,0,0,50.394,67.6Z" transform="translate(4914.478 -417.548)" fill="#eaeaea"/>
          </g>
          <g id="Group_541" data-name="Group 541" transform="translate(250.604 -351.396)">
            <path id="Path_1027" data-name="Path 1027" d="M78.087,48.232A29.854,29.854,0,0,1,48.232,78.087H0V29.859A29.852,29.852,0,0,1,29.859,0H48.232A29.851,29.851,0,0,1,78.087,29.859ZM67.6,32.328A21.836,21.836,0,0,0,45.758,10.5H32.328A21.832,21.832,0,0,0,10.5,32.328V67.6H45.758A21.84,21.84,0,0,0,67.6,45.758Z" transform="translate(4843 -417.548)" fill="#eaeaea"/>
            <path id="Path_1028" data-name="Path 1028" d="M47.92,78.087A29.858,29.858,0,0,1,18.061,48.232V0H66.293A29.859,29.859,0,0,1,96.153,29.859V48.232A29.855,29.855,0,0,1,66.293,78.087Zm15.9-10.49A21.832,21.832,0,0,0,85.657,45.763V32.328A21.832,21.832,0,0,0,63.824,10.5H28.556V45.763A21.836,21.836,0,0,0,50.394,67.6Z" transform="translate(4914.478 -417.548)" fill="#eaeaea"/>
          </g>
        </g>
        <g transform="translate(-3840.604 1211.943)">
          <g id="Group_542" data-name="Group 542" transform="translate(334.419 -442.396)">
            <path id="Path_1029" data-name="Path 1029" d="M78.087,48.232A29.854,29.854,0,0,1,48.232,78.087H0V29.859A29.852,29.852,0,0,1,29.859,0H48.232A29.851,29.851,0,0,1,78.087,29.859ZM67.6,32.328A21.836,21.836,0,0,0,45.758,10.5H32.328A21.832,21.832,0,0,0,10.5,32.328V67.6H45.758A21.84,21.84,0,0,0,67.6,45.758Z" transform="translate(4843 -417.548)" fill="#eaeaea"/>
            <path id="Path_1030" data-name="Path 1030" d="M47.92,78.087A29.858,29.858,0,0,1,18.061,48.232V0H66.293A29.859,29.859,0,0,1,96.153,29.859V48.232A29.855,29.855,0,0,1,66.293,78.087Zm15.9-10.49A21.832,21.832,0,0,0,85.657,45.763V32.328A21.832,21.832,0,0,0,63.824,10.5H28.556V45.763A21.836,21.836,0,0,0,50.394,67.6Z" transform="translate(4914.478 -417.548)" fill="#eaeaea"/>
          </g>
          <g id="Group_543" data-name="Group 543" transform="translate(250.604 -351.396)">
            <path id="Path_1031" data-name="Path 1031" d="M78.087,48.232A29.854,29.854,0,0,1,48.232,78.087H0V29.859A29.852,29.852,0,0,1,29.859,0H48.232A29.851,29.851,0,0,1,78.087,29.859ZM67.6,32.328A21.836,21.836,0,0,0,45.758,10.5H32.328A21.832,21.832,0,0,0,10.5,32.328V67.6H45.758A21.84,21.84,0,0,0,67.6,45.758Z" transform="translate(4843 -417.548)" fill="#eaeaea"/>
            <path id="Path_1032" data-name="Path 1032" d="M47.92,78.087A29.858,29.858,0,0,1,18.061,48.232V0H66.293A29.859,29.859,0,0,1,96.153,29.859V48.232A29.855,29.855,0,0,1,66.293,78.087Zm15.9-10.49A21.832,21.832,0,0,0,85.657,45.763V32.328A21.832,21.832,0,0,0,63.824,10.5H28.556V45.763A21.836,21.836,0,0,0,50.394,67.6Z" transform="translate(4914.478 -417.548)" fill="#eaeaea"/>
          </g>
        </g>
        <g transform="translate(-3661.604 1211.943)">
          <g id="Group_544" data-name="Group 544" transform="translate(334.419 -442.396)">
            <path id="Path_1033" data-name="Path 1033" d="M78.087,48.232A29.854,29.854,0,0,1,48.232,78.087H0V29.859A29.852,29.852,0,0,1,29.859,0H48.232A29.851,29.851,0,0,1,78.087,29.859ZM67.6,32.328A21.836,21.836,0,0,0,45.758,10.5H32.328A21.832,21.832,0,0,0,10.5,32.328V67.6H45.758A21.84,21.84,0,0,0,67.6,45.758Z" transform="translate(4843 -417.548)" fill="#eaeaea"/>
            <path id="Path_1034" data-name="Path 1034" d="M47.92,78.087A29.858,29.858,0,0,1,18.061,48.232V0H66.293A29.859,29.859,0,0,1,96.153,29.859V48.232A29.855,29.855,0,0,1,66.293,78.087Zm15.9-10.49A21.832,21.832,0,0,0,85.657,45.763V32.328A21.832,21.832,0,0,0,63.824,10.5H28.556V45.763A21.836,21.836,0,0,0,50.394,67.6Z" transform="translate(4914.478 -417.548)" fill="#eaeaea"/>
          </g>
          <g id="Group_545" data-name="Group 545" transform="translate(250.604 -351.396)">
            <path id="Path_1035" data-name="Path 1035" d="M78.087,48.232A29.854,29.854,0,0,1,48.232,78.087H0V29.859A29.852,29.852,0,0,1,29.859,0H48.232A29.851,29.851,0,0,1,78.087,29.859ZM67.6,32.328A21.836,21.836,0,0,0,45.758,10.5H32.328A21.832,21.832,0,0,0,10.5,32.328V67.6H45.758A21.84,21.84,0,0,0,67.6,45.758Z" transform="translate(4843 -417.548)" fill="#eaeaea"/>
            <path id="Path_1036" data-name="Path 1036" d="M47.92,78.087A29.858,29.858,0,0,1,18.061,48.232V0H66.293A29.859,29.859,0,0,1,96.153,29.859V48.232A29.855,29.855,0,0,1,66.293,78.087Zm15.9-10.49A21.832,21.832,0,0,0,85.657,45.763V32.328A21.832,21.832,0,0,0,63.824,10.5H28.556V45.763A21.836,21.836,0,0,0,50.394,67.6Z" transform="translate(4914.478 -417.548)" fill="#eaeaea"/>
          </g>
        </g>
        <g transform="translate(-3482.604 1211.943)">
          <g id="Group_546" data-name="Group 546" transform="translate(334.419 -442.396)">
            <path id="Path_1037" data-name="Path 1037" d="M78.087,48.232A29.854,29.854,0,0,1,48.232,78.087H0V29.859A29.852,29.852,0,0,1,29.859,0H48.232A29.851,29.851,0,0,1,78.087,29.859ZM67.6,32.328A21.836,21.836,0,0,0,45.758,10.5H32.328A21.832,21.832,0,0,0,10.5,32.328V67.6H45.758A21.84,21.84,0,0,0,67.6,45.758Z" transform="translate(4843 -417.548)" fill="#eaeaea"/>
            <path id="Path_1038" data-name="Path 1038" d="M47.92,78.087A29.858,29.858,0,0,1,18.061,48.232V0H66.293A29.859,29.859,0,0,1,96.153,29.859V48.232A29.855,29.855,0,0,1,66.293,78.087Zm15.9-10.49A21.832,21.832,0,0,0,85.657,45.763V32.328A21.832,21.832,0,0,0,63.824,10.5H28.556V45.763A21.836,21.836,0,0,0,50.394,67.6Z" transform="translate(4914.478 -417.548)" fill="#eaeaea"/>
          </g>
          <g id="Group_547" data-name="Group 547" transform="translate(250.604 -351.396)">
            <path id="Path_1039" data-name="Path 1039" d="M78.087,48.232A29.854,29.854,0,0,1,48.232,78.087H0V29.859A29.852,29.852,0,0,1,29.859,0H48.232A29.851,29.851,0,0,1,78.087,29.859ZM67.6,32.328A21.836,21.836,0,0,0,45.758,10.5H32.328A21.832,21.832,0,0,0,10.5,32.328V67.6H45.758A21.84,21.84,0,0,0,67.6,45.758Z" transform="translate(4843 -417.548)" fill="#eaeaea"/>
            <path id="Path_1040" data-name="Path 1040" d="M47.92,78.087A29.858,29.858,0,0,1,18.061,48.232V0H66.293A29.859,29.859,0,0,1,96.153,29.859V48.232A29.855,29.855,0,0,1,66.293,78.087Zm15.9-10.49A21.832,21.832,0,0,0,85.657,45.763V32.328A21.832,21.832,0,0,0,63.824,10.5H28.556V45.763A21.836,21.836,0,0,0,50.394,67.6Z" transform="translate(4914.478 -417.548)" fill="#eaeaea"/>
          </g>
        </g>
        <g transform="translate(-3303.604 1211.943)">
          <g id="Group_548" data-name="Group 548" transform="translate(334.419 -442.396)">
            <path id="Path_1041" data-name="Path 1041" d="M78.087,48.232A29.854,29.854,0,0,1,48.232,78.087H0V29.859A29.852,29.852,0,0,1,29.859,0H48.232A29.851,29.851,0,0,1,78.087,29.859ZM67.6,32.328A21.836,21.836,0,0,0,45.758,10.5H32.328A21.832,21.832,0,0,0,10.5,32.328V67.6H45.758A21.84,21.84,0,0,0,67.6,45.758Z" transform="translate(4843 -417.548)" fill="#eaeaea"/>
            <path id="Path_1042" data-name="Path 1042" d="M47.92,78.087A29.858,29.858,0,0,1,18.061,48.232V0H66.293A29.859,29.859,0,0,1,96.153,29.859V48.232A29.855,29.855,0,0,1,66.293,78.087Zm15.9-10.49A21.832,21.832,0,0,0,85.657,45.763V32.328A21.832,21.832,0,0,0,63.824,10.5H28.556V45.763A21.836,21.836,0,0,0,50.394,67.6Z" transform="translate(4914.478 -417.548)" fill="#eaeaea"/>
          </g>
          <g id="Group_549" data-name="Group 549" transform="translate(250.604 -351.396)">
            <path id="Path_1043" data-name="Path 1043" d="M78.087,48.232A29.854,29.854,0,0,1,48.232,78.087H0V29.859A29.852,29.852,0,0,1,29.859,0H48.232A29.851,29.851,0,0,1,78.087,29.859ZM67.6,32.328A21.836,21.836,0,0,0,45.758,10.5H32.328A21.832,21.832,0,0,0,10.5,32.328V67.6H45.758A21.84,21.84,0,0,0,67.6,45.758Z" transform="translate(4843 -417.548)" fill="#eaeaea"/>
            <path id="Path_1044" data-name="Path 1044" d="M47.92,78.087A29.858,29.858,0,0,1,18.061,48.232V0H66.293A29.859,29.859,0,0,1,96.153,29.859V48.232A29.855,29.855,0,0,1,66.293,78.087Zm15.9-10.49A21.832,21.832,0,0,0,85.657,45.763V32.328A21.832,21.832,0,0,0,63.824,10.5H28.556V45.763A21.836,21.836,0,0,0,50.394,67.6Z" transform="translate(4914.478 -417.548)" fill="#eaeaea"/>
          </g>
        </g>
        <g transform="translate(-3124.604 1211.943)">
          <g id="Group_550" data-name="Group 550" transform="translate(334.419 -442.396)">
            <path id="Path_1045" data-name="Path 1045" d="M78.087,48.232A29.854,29.854,0,0,1,48.232,78.087H0V29.859A29.852,29.852,0,0,1,29.859,0H48.232A29.851,29.851,0,0,1,78.087,29.859ZM67.6,32.328A21.836,21.836,0,0,0,45.758,10.5H32.328A21.832,21.832,0,0,0,10.5,32.328V67.6H45.758A21.84,21.84,0,0,0,67.6,45.758Z" transform="translate(4843 -417.548)" fill="#eaeaea"/>
            <path id="Path_1046" data-name="Path 1046" d="M47.92,78.087A29.858,29.858,0,0,1,18.061,48.232V0H66.293A29.859,29.859,0,0,1,96.153,29.859V48.232A29.855,29.855,0,0,1,66.293,78.087Zm15.9-10.49A21.832,21.832,0,0,0,85.657,45.763V32.328A21.832,21.832,0,0,0,63.824,10.5H28.556V45.763A21.836,21.836,0,0,0,50.394,67.6Z" transform="translate(4914.478 -417.548)" fill="#eaeaea"/>
          </g>
          <g id="Group_551" data-name="Group 551" transform="translate(250.604 -351.396)">
            <path id="Path_1047" data-name="Path 1047" d="M78.087,48.232A29.854,29.854,0,0,1,48.232,78.087H0V29.859A29.852,29.852,0,0,1,29.859,0H48.232A29.851,29.851,0,0,1,78.087,29.859ZM67.6,32.328A21.836,21.836,0,0,0,45.758,10.5H32.328A21.832,21.832,0,0,0,10.5,32.328V67.6H45.758A21.84,21.84,0,0,0,67.6,45.758Z" transform="translate(4843 -417.548)" fill="#eaeaea"/>
            <path id="Path_1048" data-name="Path 1048" d="M47.92,78.087A29.858,29.858,0,0,1,18.061,48.232V0H66.293A29.859,29.859,0,0,1,96.153,29.859V48.232A29.855,29.855,0,0,1,66.293,78.087Zm15.9-10.49A21.832,21.832,0,0,0,85.657,45.763V32.328A21.832,21.832,0,0,0,63.824,10.5H28.556V45.763A21.836,21.836,0,0,0,50.394,67.6Z" transform="translate(4914.478 -417.548)" fill="#eaeaea"/>
          </g>
        </g>
        <g transform="translate(-5093.604 1387.943)">
          <g id="Group_552" data-name="Group 552" transform="translate(334.419 -442.396)">
            <path id="Path_1049" data-name="Path 1049" d="M78.087,48.232A29.854,29.854,0,0,1,48.232,78.087H0V29.859A29.852,29.852,0,0,1,29.859,0H48.232A29.851,29.851,0,0,1,78.087,29.859ZM67.6,32.328A21.836,21.836,0,0,0,45.758,10.5H32.328A21.832,21.832,0,0,0,10.5,32.328V67.6H45.758A21.84,21.84,0,0,0,67.6,45.758Z" transform="translate(4843 -417.548)" fill="#eaeaea"/>
            <path id="Path_1050" data-name="Path 1050" d="M47.92,78.087A29.858,29.858,0,0,1,18.061,48.232V0H66.293A29.859,29.859,0,0,1,96.153,29.859V48.232A29.855,29.855,0,0,1,66.293,78.087Zm15.9-10.49A21.832,21.832,0,0,0,85.657,45.763V32.328A21.832,21.832,0,0,0,63.824,10.5H28.556V45.763A21.836,21.836,0,0,0,50.394,67.6Z" transform="translate(4914.478 -417.548)" fill="#eaeaea"/>
          </g>
          <g id="Group_553" data-name="Group 553" transform="translate(250.604 -351.396)">
            <path id="Path_1051" data-name="Path 1051" d="M78.087,48.232A29.854,29.854,0,0,1,48.232,78.087H0V29.859A29.852,29.852,0,0,1,29.859,0H48.232A29.851,29.851,0,0,1,78.087,29.859ZM67.6,32.328A21.836,21.836,0,0,0,45.758,10.5H32.328A21.832,21.832,0,0,0,10.5,32.328V67.6H45.758A21.84,21.84,0,0,0,67.6,45.758Z" transform="translate(4843 -417.548)" fill="#eaeaea"/>
            <path id="Path_1052" data-name="Path 1052" d="M47.92,78.087A29.858,29.858,0,0,1,18.061,48.232V0H66.293A29.859,29.859,0,0,1,96.153,29.859V48.232A29.855,29.855,0,0,1,66.293,78.087Zm15.9-10.49A21.832,21.832,0,0,0,85.657,45.763V32.328A21.832,21.832,0,0,0,63.824,10.5H28.556V45.763A21.836,21.836,0,0,0,50.394,67.6Z" transform="translate(4914.478 -417.548)" fill="#eaeaea"/>
          </g>
        </g>
        <g transform="translate(-4914.604 1387.943)">
          <g id="Group_554" data-name="Group 554" transform="translate(334.419 -442.396)">
            <path id="Path_1053" data-name="Path 1053" d="M78.087,48.232A29.854,29.854,0,0,1,48.232,78.087H0V29.859A29.852,29.852,0,0,1,29.859,0H48.232A29.851,29.851,0,0,1,78.087,29.859ZM67.6,32.328A21.836,21.836,0,0,0,45.758,10.5H32.328A21.832,21.832,0,0,0,10.5,32.328V67.6H45.758A21.84,21.84,0,0,0,67.6,45.758Z" transform="translate(4843 -417.548)" fill="#eaeaea"/>
            <path id="Path_1054" data-name="Path 1054" d="M47.92,78.087A29.858,29.858,0,0,1,18.061,48.232V0H66.293A29.859,29.859,0,0,1,96.153,29.859V48.232A29.855,29.855,0,0,1,66.293,78.087Zm15.9-10.49A21.832,21.832,0,0,0,85.657,45.763V32.328A21.832,21.832,0,0,0,63.824,10.5H28.556V45.763A21.836,21.836,0,0,0,50.394,67.6Z" transform="translate(4914.478 -417.548)" fill="#eaeaea"/>
          </g>
          <g id="Group_555" data-name="Group 555" transform="translate(250.604 -351.396)">
            <path id="Path_1055" data-name="Path 1055" d="M78.087,48.232A29.854,29.854,0,0,1,48.232,78.087H0V29.859A29.852,29.852,0,0,1,29.859,0H48.232A29.851,29.851,0,0,1,78.087,29.859ZM67.6,32.328A21.836,21.836,0,0,0,45.758,10.5H32.328A21.832,21.832,0,0,0,10.5,32.328V67.6H45.758A21.84,21.84,0,0,0,67.6,45.758Z" transform="translate(4843 -417.548)" fill="#eaeaea"/>
            <path id="Path_1056" data-name="Path 1056" d="M47.92,78.087A29.858,29.858,0,0,1,18.061,48.232V0H66.293A29.859,29.859,0,0,1,96.153,29.859V48.232A29.855,29.855,0,0,1,66.293,78.087Zm15.9-10.49A21.832,21.832,0,0,0,85.657,45.763V32.328A21.832,21.832,0,0,0,63.824,10.5H28.556V45.763A21.836,21.836,0,0,0,50.394,67.6Z" transform="translate(4914.478 -417.548)" fill="#eaeaea"/>
          </g>
        </g>
        <g transform="translate(-4735.604 1387.943)">
          <g id="Group_556" data-name="Group 556" transform="translate(334.419 -442.396)">
            <path id="Path_1057" data-name="Path 1057" d="M78.087,48.232A29.854,29.854,0,0,1,48.232,78.087H0V29.859A29.852,29.852,0,0,1,29.859,0H48.232A29.851,29.851,0,0,1,78.087,29.859ZM67.6,32.328A21.836,21.836,0,0,0,45.758,10.5H32.328A21.832,21.832,0,0,0,10.5,32.328V67.6H45.758A21.84,21.84,0,0,0,67.6,45.758Z" transform="translate(4843 -417.548)" fill="#eaeaea"/>
            <path id="Path_1058" data-name="Path 1058" d="M47.92,78.087A29.858,29.858,0,0,1,18.061,48.232V0H66.293A29.859,29.859,0,0,1,96.153,29.859V48.232A29.855,29.855,0,0,1,66.293,78.087Zm15.9-10.49A21.832,21.832,0,0,0,85.657,45.763V32.328A21.832,21.832,0,0,0,63.824,10.5H28.556V45.763A21.836,21.836,0,0,0,50.394,67.6Z" transform="translate(4914.478 -417.548)" fill="#eaeaea"/>
          </g>
          <g id="Group_557" data-name="Group 557" transform="translate(250.604 -351.396)">
            <path id="Path_1059" data-name="Path 1059" d="M78.087,48.232A29.854,29.854,0,0,1,48.232,78.087H0V29.859A29.852,29.852,0,0,1,29.859,0H48.232A29.851,29.851,0,0,1,78.087,29.859ZM67.6,32.328A21.836,21.836,0,0,0,45.758,10.5H32.328A21.832,21.832,0,0,0,10.5,32.328V67.6H45.758A21.84,21.84,0,0,0,67.6,45.758Z" transform="translate(4843 -417.548)" fill="#eaeaea"/>
            <path id="Path_1060" data-name="Path 1060" d="M47.92,78.087A29.858,29.858,0,0,1,18.061,48.232V0H66.293A29.859,29.859,0,0,1,96.153,29.859V48.232A29.855,29.855,0,0,1,66.293,78.087Zm15.9-10.49A21.832,21.832,0,0,0,85.657,45.763V32.328A21.832,21.832,0,0,0,63.824,10.5H28.556V45.763A21.836,21.836,0,0,0,50.394,67.6Z" transform="translate(4914.478 -417.548)" fill="#eaeaea"/>
          </g>
        </g>
        <g transform="translate(-4556.604 1387.943)">
          <g id="Group_558" data-name="Group 558" transform="translate(334.419 -442.396)">
            <path id="Path_1061" data-name="Path 1061" d="M78.087,48.232A29.854,29.854,0,0,1,48.232,78.087H0V29.859A29.852,29.852,0,0,1,29.859,0H48.232A29.851,29.851,0,0,1,78.087,29.859ZM67.6,32.328A21.836,21.836,0,0,0,45.758,10.5H32.328A21.832,21.832,0,0,0,10.5,32.328V67.6H45.758A21.84,21.84,0,0,0,67.6,45.758Z" transform="translate(4843 -417.548)" fill="#eaeaea"/>
            <path id="Path_1062" data-name="Path 1062" d="M47.92,78.087A29.858,29.858,0,0,1,18.061,48.232V0H66.293A29.859,29.859,0,0,1,96.153,29.859V48.232A29.855,29.855,0,0,1,66.293,78.087Zm15.9-10.49A21.832,21.832,0,0,0,85.657,45.763V32.328A21.832,21.832,0,0,0,63.824,10.5H28.556V45.763A21.836,21.836,0,0,0,50.394,67.6Z" transform="translate(4914.478 -417.548)" fill="#eaeaea"/>
          </g>
          <g id="Group_559" data-name="Group 559" transform="translate(250.604 -351.396)">
            <path id="Path_1063" data-name="Path 1063" d="M78.087,48.232A29.854,29.854,0,0,1,48.232,78.087H0V29.859A29.852,29.852,0,0,1,29.859,0H48.232A29.851,29.851,0,0,1,78.087,29.859ZM67.6,32.328A21.836,21.836,0,0,0,45.758,10.5H32.328A21.832,21.832,0,0,0,10.5,32.328V67.6H45.758A21.84,21.84,0,0,0,67.6,45.758Z" transform="translate(4843 -417.548)" fill="#eaeaea"/>
            <path id="Path_1064" data-name="Path 1064" d="M47.92,78.087A29.858,29.858,0,0,1,18.061,48.232V0H66.293A29.859,29.859,0,0,1,96.153,29.859V48.232A29.855,29.855,0,0,1,66.293,78.087Zm15.9-10.49A21.832,21.832,0,0,0,85.657,45.763V32.328A21.832,21.832,0,0,0,63.824,10.5H28.556V45.763A21.836,21.836,0,0,0,50.394,67.6Z" transform="translate(4914.478 -417.548)" fill="#eaeaea"/>
          </g>
        </g>
        <g transform="translate(-4377.604 1387.943)">
          <g id="Group_560" data-name="Group 560" transform="translate(334.419 -442.396)">
            <path id="Path_1065" data-name="Path 1065" d="M78.087,48.232A29.854,29.854,0,0,1,48.232,78.087H0V29.859A29.852,29.852,0,0,1,29.859,0H48.232A29.851,29.851,0,0,1,78.087,29.859ZM67.6,32.328A21.836,21.836,0,0,0,45.758,10.5H32.328A21.832,21.832,0,0,0,10.5,32.328V67.6H45.758A21.84,21.84,0,0,0,67.6,45.758Z" transform="translate(4843 -417.548)" fill="#eaeaea"/>
            <path id="Path_1066" data-name="Path 1066" d="M47.92,78.087A29.858,29.858,0,0,1,18.061,48.232V0H66.293A29.859,29.859,0,0,1,96.153,29.859V48.232A29.855,29.855,0,0,1,66.293,78.087Zm15.9-10.49A21.832,21.832,0,0,0,85.657,45.763V32.328A21.832,21.832,0,0,0,63.824,10.5H28.556V45.763A21.836,21.836,0,0,0,50.394,67.6Z" transform="translate(4914.478 -417.548)" fill="#eaeaea"/>
          </g>
          <g id="Group_561" data-name="Group 561" transform="translate(250.604 -351.396)">
            <path id="Path_1067" data-name="Path 1067" d="M78.087,48.232A29.854,29.854,0,0,1,48.232,78.087H0V29.859A29.852,29.852,0,0,1,29.859,0H48.232A29.851,29.851,0,0,1,78.087,29.859ZM67.6,32.328A21.836,21.836,0,0,0,45.758,10.5H32.328A21.832,21.832,0,0,0,10.5,32.328V67.6H45.758A21.84,21.84,0,0,0,67.6,45.758Z" transform="translate(4843 -417.548)" fill="#eaeaea"/>
            <path id="Path_1068" data-name="Path 1068" d="M47.92,78.087A29.858,29.858,0,0,1,18.061,48.232V0H66.293A29.859,29.859,0,0,1,96.153,29.859V48.232A29.855,29.855,0,0,1,66.293,78.087Zm15.9-10.49A21.832,21.832,0,0,0,85.657,45.763V32.328A21.832,21.832,0,0,0,63.824,10.5H28.556V45.763A21.836,21.836,0,0,0,50.394,67.6Z" transform="translate(4914.478 -417.548)" fill="#eaeaea"/>
          </g>
        </g>
        <g transform="translate(-4198.604 1387.943)">
          <g id="Group_562" data-name="Group 562" transform="translate(334.419 -442.396)">
            <path id="Path_1069" data-name="Path 1069" d="M78.087,48.232A29.854,29.854,0,0,1,48.232,78.087H0V29.859A29.852,29.852,0,0,1,29.859,0H48.232A29.851,29.851,0,0,1,78.087,29.859ZM67.6,32.328A21.836,21.836,0,0,0,45.758,10.5H32.328A21.832,21.832,0,0,0,10.5,32.328V67.6H45.758A21.84,21.84,0,0,0,67.6,45.758Z" transform="translate(4843 -417.548)" fill="#eaeaea"/>
            <path id="Path_1070" data-name="Path 1070" d="M47.92,78.087A29.858,29.858,0,0,1,18.061,48.232V0H66.293A29.859,29.859,0,0,1,96.153,29.859V48.232A29.855,29.855,0,0,1,66.293,78.087Zm15.9-10.49A21.832,21.832,0,0,0,85.657,45.763V32.328A21.832,21.832,0,0,0,63.824,10.5H28.556V45.763A21.836,21.836,0,0,0,50.394,67.6Z" transform="translate(4914.478 -417.548)" fill="#eaeaea"/>
          </g>
          <g id="Group_563" data-name="Group 563" transform="translate(250.604 -351.396)">
            <path id="Path_1071" data-name="Path 1071" d="M78.087,48.232A29.854,29.854,0,0,1,48.232,78.087H0V29.859A29.852,29.852,0,0,1,29.859,0H48.232A29.851,29.851,0,0,1,78.087,29.859ZM67.6,32.328A21.836,21.836,0,0,0,45.758,10.5H32.328A21.832,21.832,0,0,0,10.5,32.328V67.6H45.758A21.84,21.84,0,0,0,67.6,45.758Z" transform="translate(4843 -417.548)" fill="#eaeaea"/>
            <path id="Path_1072" data-name="Path 1072" d="M47.92,78.087A29.858,29.858,0,0,1,18.061,48.232V0H66.293A29.859,29.859,0,0,1,96.153,29.859V48.232A29.855,29.855,0,0,1,66.293,78.087Zm15.9-10.49A21.832,21.832,0,0,0,85.657,45.763V32.328A21.832,21.832,0,0,0,63.824,10.5H28.556V45.763A21.836,21.836,0,0,0,50.394,67.6Z" transform="translate(4914.478 -417.548)" fill="#eaeaea"/>
          </g>
        </g>
        <g transform="translate(-4019.604 1387.943)">
          <g id="Group_564" data-name="Group 564" transform="translate(334.419 -442.396)">
            <path id="Path_1073" data-name="Path 1073" d="M78.087,48.232A29.854,29.854,0,0,1,48.232,78.087H0V29.859A29.852,29.852,0,0,1,29.859,0H48.232A29.851,29.851,0,0,1,78.087,29.859ZM67.6,32.328A21.836,21.836,0,0,0,45.758,10.5H32.328A21.832,21.832,0,0,0,10.5,32.328V67.6H45.758A21.84,21.84,0,0,0,67.6,45.758Z" transform="translate(4843 -417.548)" fill="#eaeaea"/>
            <path id="Path_1074" data-name="Path 1074" d="M47.92,78.087A29.858,29.858,0,0,1,18.061,48.232V0H66.293A29.859,29.859,0,0,1,96.153,29.859V48.232A29.855,29.855,0,0,1,66.293,78.087Zm15.9-10.49A21.832,21.832,0,0,0,85.657,45.763V32.328A21.832,21.832,0,0,0,63.824,10.5H28.556V45.763A21.836,21.836,0,0,0,50.394,67.6Z" transform="translate(4914.478 -417.548)" fill="#eaeaea"/>
          </g>
          <g id="Group_565" data-name="Group 565" transform="translate(250.604 -351.396)">
            <path id="Path_1075" data-name="Path 1075" d="M78.087,48.232A29.854,29.854,0,0,1,48.232,78.087H0V29.859A29.852,29.852,0,0,1,29.859,0H48.232A29.851,29.851,0,0,1,78.087,29.859ZM67.6,32.328A21.836,21.836,0,0,0,45.758,10.5H32.328A21.832,21.832,0,0,0,10.5,32.328V67.6H45.758A21.84,21.84,0,0,0,67.6,45.758Z" transform="translate(4843 -417.548)" fill="#eaeaea"/>
            <path id="Path_1076" data-name="Path 1076" d="M47.92,78.087A29.858,29.858,0,0,1,18.061,48.232V0H66.293A29.859,29.859,0,0,1,96.153,29.859V48.232A29.855,29.855,0,0,1,66.293,78.087Zm15.9-10.49A21.832,21.832,0,0,0,85.657,45.763V32.328A21.832,21.832,0,0,0,63.824,10.5H28.556V45.763A21.836,21.836,0,0,0,50.394,67.6Z" transform="translate(4914.478 -417.548)" fill="#eaeaea"/>
          </g>
        </g>
        <g transform="translate(-3840.604 1387.943)">
          <g id="Group_566" data-name="Group 566" transform="translate(334.419 -442.396)">
            <path id="Path_1077" data-name="Path 1077" d="M78.087,48.232A29.854,29.854,0,0,1,48.232,78.087H0V29.859A29.852,29.852,0,0,1,29.859,0H48.232A29.851,29.851,0,0,1,78.087,29.859ZM67.6,32.328A21.836,21.836,0,0,0,45.758,10.5H32.328A21.832,21.832,0,0,0,10.5,32.328V67.6H45.758A21.84,21.84,0,0,0,67.6,45.758Z" transform="translate(4843 -417.548)" fill="#eaeaea"/>
            <path id="Path_1078" data-name="Path 1078" d="M47.92,78.087A29.858,29.858,0,0,1,18.061,48.232V0H66.293A29.859,29.859,0,0,1,96.153,29.859V48.232A29.855,29.855,0,0,1,66.293,78.087Zm15.9-10.49A21.832,21.832,0,0,0,85.657,45.763V32.328A21.832,21.832,0,0,0,63.824,10.5H28.556V45.763A21.836,21.836,0,0,0,50.394,67.6Z" transform="translate(4914.478 -417.548)" fill="#eaeaea"/>
          </g>
          <g id="Group_567" data-name="Group 567" transform="translate(250.604 -351.396)">
            <path id="Path_1079" data-name="Path 1079" d="M78.087,48.232A29.854,29.854,0,0,1,48.232,78.087H0V29.859A29.852,29.852,0,0,1,29.859,0H48.232A29.851,29.851,0,0,1,78.087,29.859ZM67.6,32.328A21.836,21.836,0,0,0,45.758,10.5H32.328A21.832,21.832,0,0,0,10.5,32.328V67.6H45.758A21.84,21.84,0,0,0,67.6,45.758Z" transform="translate(4843 -417.548)" fill="#eaeaea"/>
            <path id="Path_1080" data-name="Path 1080" d="M47.92,78.087A29.858,29.858,0,0,1,18.061,48.232V0H66.293A29.859,29.859,0,0,1,96.153,29.859V48.232A29.855,29.855,0,0,1,66.293,78.087Zm15.9-10.49A21.832,21.832,0,0,0,85.657,45.763V32.328A21.832,21.832,0,0,0,63.824,10.5H28.556V45.763A21.836,21.836,0,0,0,50.394,67.6Z" transform="translate(4914.478 -417.548)" fill="#eaeaea"/>
          </g>
        </g>
        <g transform="translate(-3661.604 1387.943)">
          <g id="Group_568" data-name="Group 568" transform="translate(334.419 -442.396)">
            <path id="Path_1081" data-name="Path 1081" d="M78.087,48.232A29.854,29.854,0,0,1,48.232,78.087H0V29.859A29.852,29.852,0,0,1,29.859,0H48.232A29.851,29.851,0,0,1,78.087,29.859ZM67.6,32.328A21.836,21.836,0,0,0,45.758,10.5H32.328A21.832,21.832,0,0,0,10.5,32.328V67.6H45.758A21.84,21.84,0,0,0,67.6,45.758Z" transform="translate(4843 -417.548)" fill="#eaeaea"/>
            <path id="Path_1082" data-name="Path 1082" d="M47.92,78.087A29.858,29.858,0,0,1,18.061,48.232V0H66.293A29.859,29.859,0,0,1,96.153,29.859V48.232A29.855,29.855,0,0,1,66.293,78.087Zm15.9-10.49A21.832,21.832,0,0,0,85.657,45.763V32.328A21.832,21.832,0,0,0,63.824,10.5H28.556V45.763A21.836,21.836,0,0,0,50.394,67.6Z" transform="translate(4914.478 -417.548)" fill="#eaeaea"/>
          </g>
          <g id="Group_569" data-name="Group 569" transform="translate(250.604 -351.396)">
            <path id="Path_1083" data-name="Path 1083" d="M78.087,48.232A29.854,29.854,0,0,1,48.232,78.087H0V29.859A29.852,29.852,0,0,1,29.859,0H48.232A29.851,29.851,0,0,1,78.087,29.859ZM67.6,32.328A21.836,21.836,0,0,0,45.758,10.5H32.328A21.832,21.832,0,0,0,10.5,32.328V67.6H45.758A21.84,21.84,0,0,0,67.6,45.758Z" transform="translate(4843 -417.548)" fill="#eaeaea"/>
            <path id="Path_1084" data-name="Path 1084" d="M47.92,78.087A29.858,29.858,0,0,1,18.061,48.232V0H66.293A29.859,29.859,0,0,1,96.153,29.859V48.232A29.855,29.855,0,0,1,66.293,78.087Zm15.9-10.49A21.832,21.832,0,0,0,85.657,45.763V32.328A21.832,21.832,0,0,0,63.824,10.5H28.556V45.763A21.836,21.836,0,0,0,50.394,67.6Z" transform="translate(4914.478 -417.548)" fill="#eaeaea"/>
          </g>
        </g>
        <g transform="translate(-3482.604 1387.943)">
          <g id="Group_570" data-name="Group 570" transform="translate(334.419 -442.396)">
            <path id="Path_1085" data-name="Path 1085" d="M78.087,48.232A29.854,29.854,0,0,1,48.232,78.087H0V29.859A29.852,29.852,0,0,1,29.859,0H48.232A29.851,29.851,0,0,1,78.087,29.859ZM67.6,32.328A21.836,21.836,0,0,0,45.758,10.5H32.328A21.832,21.832,0,0,0,10.5,32.328V67.6H45.758A21.84,21.84,0,0,0,67.6,45.758Z" transform="translate(4843 -417.548)" fill="#eaeaea"/>
            <path id="Path_1086" data-name="Path 1086" d="M47.92,78.087A29.858,29.858,0,0,1,18.061,48.232V0H66.293A29.859,29.859,0,0,1,96.153,29.859V48.232A29.855,29.855,0,0,1,66.293,78.087Zm15.9-10.49A21.832,21.832,0,0,0,85.657,45.763V32.328A21.832,21.832,0,0,0,63.824,10.5H28.556V45.763A21.836,21.836,0,0,0,50.394,67.6Z" transform="translate(4914.478 -417.548)" fill="#eaeaea"/>
          </g>
          <g id="Group_571" data-name="Group 571" transform="translate(250.604 -351.396)">
            <path id="Path_1087" data-name="Path 1087" d="M78.087,48.232A29.854,29.854,0,0,1,48.232,78.087H0V29.859A29.852,29.852,0,0,1,29.859,0H48.232A29.851,29.851,0,0,1,78.087,29.859ZM67.6,32.328A21.836,21.836,0,0,0,45.758,10.5H32.328A21.832,21.832,0,0,0,10.5,32.328V67.6H45.758A21.84,21.84,0,0,0,67.6,45.758Z" transform="translate(4843 -417.548)" fill="#eaeaea"/>
            <path id="Path_1088" data-name="Path 1088" d="M47.92,78.087A29.858,29.858,0,0,1,18.061,48.232V0H66.293A29.859,29.859,0,0,1,96.153,29.859V48.232A29.855,29.855,0,0,1,66.293,78.087Zm15.9-10.49A21.832,21.832,0,0,0,85.657,45.763V32.328A21.832,21.832,0,0,0,63.824,10.5H28.556V45.763A21.836,21.836,0,0,0,50.394,67.6Z" transform="translate(4914.478 -417.548)" fill="#eaeaea"/>
          </g>
        </g>
        <g transform="translate(-3303.604 1387.943)">
          <g id="Group_572" data-name="Group 572" transform="translate(334.419 -442.396)">
            <path id="Path_1089" data-name="Path 1089" d="M78.087,48.232A29.854,29.854,0,0,1,48.232,78.087H0V29.859A29.852,29.852,0,0,1,29.859,0H48.232A29.851,29.851,0,0,1,78.087,29.859ZM67.6,32.328A21.836,21.836,0,0,0,45.758,10.5H32.328A21.832,21.832,0,0,0,10.5,32.328V67.6H45.758A21.84,21.84,0,0,0,67.6,45.758Z" transform="translate(4843 -417.548)" fill="#eaeaea"/>
            <path id="Path_1090" data-name="Path 1090" d="M47.92,78.087A29.858,29.858,0,0,1,18.061,48.232V0H66.293A29.859,29.859,0,0,1,96.153,29.859V48.232A29.855,29.855,0,0,1,66.293,78.087Zm15.9-10.49A21.832,21.832,0,0,0,85.657,45.763V32.328A21.832,21.832,0,0,0,63.824,10.5H28.556V45.763A21.836,21.836,0,0,0,50.394,67.6Z" transform="translate(4914.478 -417.548)" fill="#eaeaea"/>
          </g>
          <g id="Group_573" data-name="Group 573" transform="translate(250.604 -351.396)">
            <path id="Path_1091" data-name="Path 1091" d="M78.087,48.232A29.854,29.854,0,0,1,48.232,78.087H0V29.859A29.852,29.852,0,0,1,29.859,0H48.232A29.851,29.851,0,0,1,78.087,29.859ZM67.6,32.328A21.836,21.836,0,0,0,45.758,10.5H32.328A21.832,21.832,0,0,0,10.5,32.328V67.6H45.758A21.84,21.84,0,0,0,67.6,45.758Z" transform="translate(4843 -417.548)" fill="#eaeaea"/>
            <path id="Path_1092" data-name="Path 1092" d="M47.92,78.087A29.858,29.858,0,0,1,18.061,48.232V0H66.293A29.859,29.859,0,0,1,96.153,29.859V48.232A29.855,29.855,0,0,1,66.293,78.087Zm15.9-10.49A21.832,21.832,0,0,0,85.657,45.763V32.328A21.832,21.832,0,0,0,63.824,10.5H28.556V45.763A21.836,21.836,0,0,0,50.394,67.6Z" transform="translate(4914.478 -417.548)" fill="#eaeaea"/>
          </g>
        </g>
        <g transform="translate(-3124.604 1387.943)">
          <g id="Group_574" data-name="Group 574" transform="translate(334.419 -442.396)">
            <path id="Path_1093" data-name="Path 1093" d="M78.087,48.232A29.854,29.854,0,0,1,48.232,78.087H0V29.859A29.852,29.852,0,0,1,29.859,0H48.232A29.851,29.851,0,0,1,78.087,29.859ZM67.6,32.328A21.836,21.836,0,0,0,45.758,10.5H32.328A21.832,21.832,0,0,0,10.5,32.328V67.6H45.758A21.84,21.84,0,0,0,67.6,45.758Z" transform="translate(4843 -417.548)" fill="#eaeaea"/>
            <path id="Path_1094" data-name="Path 1094" d="M47.92,78.087A29.858,29.858,0,0,1,18.061,48.232V0H66.293A29.859,29.859,0,0,1,96.153,29.859V48.232A29.855,29.855,0,0,1,66.293,78.087Zm15.9-10.49A21.832,21.832,0,0,0,85.657,45.763V32.328A21.832,21.832,0,0,0,63.824,10.5H28.556V45.763A21.836,21.836,0,0,0,50.394,67.6Z" transform="translate(4914.478 -417.548)" fill="#eaeaea"/>
          </g>
          <g id="Group_575" data-name="Group 575" transform="translate(250.604 -351.396)">
            <path id="Path_1095" data-name="Path 1095" d="M78.087,48.232A29.854,29.854,0,0,1,48.232,78.087H0V29.859A29.852,29.852,0,0,1,29.859,0H48.232A29.851,29.851,0,0,1,78.087,29.859ZM67.6,32.328A21.836,21.836,0,0,0,45.758,10.5H32.328A21.832,21.832,0,0,0,10.5,32.328V67.6H45.758A21.84,21.84,0,0,0,67.6,45.758Z" transform="translate(4843 -417.548)" fill="#eaeaea"/>
            <path id="Path_1096" data-name="Path 1096" d="M47.92,78.087A29.858,29.858,0,0,1,18.061,48.232V0H66.293A29.859,29.859,0,0,1,96.153,29.859V48.232A29.855,29.855,0,0,1,66.293,78.087Zm15.9-10.49A21.832,21.832,0,0,0,85.657,45.763V32.328A21.832,21.832,0,0,0,63.824,10.5H28.556V45.763A21.836,21.836,0,0,0,50.394,67.6Z" transform="translate(4914.478 -417.548)" fill="#eaeaea"/>
          </g>
        </g>
      </g>
    </g>
    <g id="Group_479" data-name="Group 479" transform="translate(4608 -697.353)">
      <path id="Path_1106" data-name="Path 1106" d="M9.72-25.96h5.92L24.16,0h-5l-1.8-5.6H7.72L5.88,0h-5Zm-.8,16.8H16.2L12.6-20.32Zm24.6-16.8v10.68L43.76-25.96h6.48L38.8-14.28,51,0H44.88L35.64-11,33.52-8.84V0H28.76V-25.96Zm17.92,0h20.8v4.08H64.2V0H59.48V-21.88H51.44Zm24.76,0h4.72V0H76.2Zm14.24,0L96.76-5.92l6.4-20.04h4.96L99.2,0H94.24l-8.8-25.96Zm22.2,0h4.72V0h-4.72Zm8.68,0h20.8v4.08h-8.04V0h-4.72V-21.88h-8.04Zm24.72,0h16.72v4.08h-12v6.84H162v4.08H150.76v6.84h12V0H146.04Zm20,0h20.8v4.08H178.8V0h-4.72V-21.88h-8.04Zm24.72,0h16.72v4.08h-12v6.84h11.24v4.08H195.48v6.84h12V0H190.76Z" transform="translate(854.5 520.647)" fill="#fff"/>
      <g id="Group_258" data-name="Group 258" transform="translate(-4163.143 772.901)">
        <path id="Path_455" data-name="Path 455" d="M64.041,39.557A24.484,24.484,0,0,1,39.557,64.041H0V24.489A24.483,24.483,0,0,1,24.489,0H39.557A24.482,24.482,0,0,1,64.041,24.489Zm-8.6-13.043A17.908,17.908,0,0,0,37.528,8.607H26.513A17.9,17.9,0,0,0,8.607,26.513V55.438h28.92a17.912,17.912,0,0,0,17.91-17.91Z" transform="translate(5054.403 -381.548)" fill="#fff"/>
        <path id="Path_456" data-name="Path 456" d="M42.55,64.041A24.487,24.487,0,0,1,18.061,39.557V0H57.618A24.488,24.488,0,0,1,82.106,24.489V39.557A24.485,24.485,0,0,1,57.618,64.041Zm13.043-8.6A17.9,17.9,0,0,0,73.5,37.532V26.513A17.9,17.9,0,0,0,55.593,8.607H26.668V37.532a17.908,17.908,0,0,0,17.91,17.906Z" transform="translate(5109.775 -381.548)" fill="#fff"/>
      </g>
    </g>
  </g>
</svg>
