<svg xmlns="http://www.w3.org/2000/svg" xmlns:xlink="http://www.w3.org/1999/xlink" width="1920" height="540" viewBox="0 0 1920 540">
  <defs>
    <clipPath id="clip-path">
      <rect id="Rectangle_359" data-name="Rectangle 359" width="1920" height="540" transform="translate(4684 -948)" fill="#444"/>
    </clipPath>
    <linearGradient id="linear-gradient" x1="1.188" y1="0.5" x2="-0.173" y2="0.5" gradientUnits="objectBoundingBox">
      <stop offset="0" stop-color="#1a1818"/>
      <stop offset="0.516" stop-color="#b52c2a"/>
      <stop offset="1" stop-color="#1a1818"/>
    </linearGradient>
    <clipPath id="clip-path-2">
      <rect width="1996" height="540" fill="none"/>
    </clipPath>
  </defs>
  <g id="CONTACT_US_HEADER" data-name="CONTACT US HEADER" transform="translate(-4608 506)">
    <g id="Mask_Group_14" data-name="Mask Group 14" transform="translate(-76 442)" clip-path="url(#clip-path)">
      <rect id="Rectangle_358" data-name="Rectangle 358" width="1920" height="540" transform="translate(4684 -948)" fill="url(#linear-gradient)"/>
      <g id="Repeat_Grid_3" data-name="Repeat Grid 3" transform="translate(4608 -948)" clip-path="url(#clip-path-2)" style="mix-blend-mode: multiply;isolation: isolate">
        <g transform="translate(-5093.604 859.943)">
          <g id="Group_480" data-name="Group 480" transform="translate(334.419 -442.396)">
            <path id="Path_905" data-name="Path 905" d="M78.087,48.232A29.854,29.854,0,0,1,48.232,78.087H0V29.859A29.852,29.852,0,0,1,29.859,0H48.232A29.851,29.851,0,0,1,78.087,29.859ZM67.6,32.328A21.836,21.836,0,0,0,45.758,10.5H32.328A21.832,21.832,0,0,0,10.5,32.328V67.6H45.758A21.84,21.84,0,0,0,67.6,45.758Z" transform="translate(4843 -417.548)" fill="#eaeaea"/>
            <path id="Path_906" data-name="Path 906" d="M47.92,78.087A29.858,29.858,0,0,1,18.061,48.232V0H66.293A29.859,29.859,0,0,1,96.153,29.859V48.232A29.855,29.855,0,0,1,66.293,78.087Zm15.9-10.49A21.832,21.832,0,0,0,85.657,45.763V32.328A21.832,21.832,0,0,0,63.824,10.5H28.556V45.763A21.836,21.836,0,0,0,50.394,67.6Z" transform="translate(4914.478 -417.548)" fill="#eaeaea"/>
          </g>
          <g id="Group_481" data-name="Group 481" transform="translate(250.604 -351.396)">
            <path id="Path_907" data-name="Path 907" d="M78.087,48.232A29.854,29.854,0,0,1,48.232,78.087H0V29.859A29.852,29.852,0,0,1,29.859,0H48.232A29.851,29.851,0,0,1,78.087,29.859ZM67.6,32.328A21.836,21.836,0,0,0,45.758,10.5H32.328A21.832,21.832,0,0,0,10.5,32.328V67.6H45.758A21.84,21.84,0,0,0,67.6,45.758Z" transform="translate(4843 -417.548)" fill="#eaeaea"/>
            <path id="Path_908" data-name="Path 908" d="M47.92,78.087A29.858,29.858,0,0,1,18.061,48.232V0H66.293A29.859,29.859,0,0,1,96.153,29.859V48.232A29.855,29.855,0,0,1,66.293,78.087Zm15.9-10.49A21.832,21.832,0,0,0,85.657,45.763V32.328A21.832,21.832,0,0,0,63.824,10.5H28.556V45.763A21.836,21.836,0,0,0,50.394,67.6Z" transform="translate(4914.478 -417.548)" fill="#eaeaea"/>
          </g>
        </g>
        <g transform="translate(-4914.604 859.943)">
          <g id="Group_482" data-name="Group 482" transform="translate(334.419 -442.396)">
            <path id="Path_909" data-name="Path 909" d="M78.087,48.232A29.854,29.854,0,0,1,48.232,78.087H0V29.859A29.852,29.852,0,0,1,29.859,0H48.232A29.851,29.851,0,0,1,78.087,29.859ZM67.6,32.328A21.836,21.836,0,0,0,45.758,10.5H32.328A21.832,21.832,0,0,0,10.5,32.328V67.6H45.758A21.84,21.84,0,0,0,67.6,45.758Z" transform="translate(4843 -417.548)" fill="#eaeaea"/>
            <path id="Path_910" data-name="Path 910" d="M47.92,78.087A29.858,29.858,0,0,1,18.061,48.232V0H66.293A29.859,29.859,0,0,1,96.153,29.859V48.232A29.855,29.855,0,0,1,66.293,78.087Zm15.9-10.49A21.832,21.832,0,0,0,85.657,45.763V32.328A21.832,21.832,0,0,0,63.824,10.5H28.556V45.763A21.836,21.836,0,0,0,50.394,67.6Z" transform="translate(4914.478 -417.548)" fill="#eaeaea"/>
          </g>
          <g id="Group_483" data-name="Group 483" transform="translate(250.604 -351.396)">
            <path id="Path_911" data-name="Path 911" d="M78.087,48.232A29.854,29.854,0,0,1,48.232,78.087H0V29.859A29.852,29.852,0,0,1,29.859,0H48.232A29.851,29.851,0,0,1,78.087,29.859ZM67.6,32.328A21.836,21.836,0,0,0,45.758,10.5H32.328A21.832,21.832,0,0,0,10.5,32.328V67.6H45.758A21.84,21.84,0,0,0,67.6,45.758Z" transform="translate(4843 -417.548)" fill="#eaeaea"/>
            <path id="Path_912" data-name="Path 912" d="M47.92,78.087A29.858,29.858,0,0,1,18.061,48.232V0H66.293A29.859,29.859,0,0,1,96.153,29.859V48.232A29.855,29.855,0,0,1,66.293,78.087Zm15.9-10.49A21.832,21.832,0,0,0,85.657,45.763V32.328A21.832,21.832,0,0,0,63.824,10.5H28.556V45.763A21.836,21.836,0,0,0,50.394,67.6Z" transform="translate(4914.478 -417.548)" fill="#eaeaea"/>
          </g>
        </g>
        <g transform="translate(-4735.604 859.943)">
          <g id="Group_484" data-name="Group 484" transform="translate(334.419 -442.396)">
            <path id="Path_913" data-name="Path 913" d="M78.087,48.232A29.854,29.854,0,0,1,48.232,78.087H0V29.859A29.852,29.852,0,0,1,29.859,0H48.232A29.851,29.851,0,0,1,78.087,29.859ZM67.6,32.328A21.836,21.836,0,0,0,45.758,10.5H32.328A21.832,21.832,0,0,0,10.5,32.328V67.6H45.758A21.84,21.84,0,0,0,67.6,45.758Z" transform="translate(4843 -417.548)" fill="#eaeaea"/>
            <path id="Path_914" data-name="Path 914" d="M47.92,78.087A29.858,29.858,0,0,1,18.061,48.232V0H66.293A29.859,29.859,0,0,1,96.153,29.859V48.232A29.855,29.855,0,0,1,66.293,78.087Zm15.9-10.49A21.832,21.832,0,0,0,85.657,45.763V32.328A21.832,21.832,0,0,0,63.824,10.5H28.556V45.763A21.836,21.836,0,0,0,50.394,67.6Z" transform="translate(4914.478 -417.548)" fill="#eaeaea"/>
          </g>
          <g id="Group_485" data-name="Group 485" transform="translate(250.604 -351.396)">
            <path id="Path_915" data-name="Path 915" d="M78.087,48.232A29.854,29.854,0,0,1,48.232,78.087H0V29.859A29.852,29.852,0,0,1,29.859,0H48.232A29.851,29.851,0,0,1,78.087,29.859ZM67.6,32.328A21.836,21.836,0,0,0,45.758,10.5H32.328A21.832,21.832,0,0,0,10.5,32.328V67.6H45.758A21.84,21.84,0,0,0,67.6,45.758Z" transform="translate(4843 -417.548)" fill="#eaeaea"/>
            <path id="Path_916" data-name="Path 916" d="M47.92,78.087A29.858,29.858,0,0,1,18.061,48.232V0H66.293A29.859,29.859,0,0,1,96.153,29.859V48.232A29.855,29.855,0,0,1,66.293,78.087Zm15.9-10.49A21.832,21.832,0,0,0,85.657,45.763V32.328A21.832,21.832,0,0,0,63.824,10.5H28.556V45.763A21.836,21.836,0,0,0,50.394,67.6Z" transform="translate(4914.478 -417.548)" fill="#eaeaea"/>
          </g>
        </g>
        <g transform="translate(-4556.604 859.943)">
          <g id="Group_486" data-name="Group 486" transform="translate(334.419 -442.396)">
            <path id="Path_917" data-name="Path 917" d="M78.087,48.232A29.854,29.854,0,0,1,48.232,78.087H0V29.859A29.852,29.852,0,0,1,29.859,0H48.232A29.851,29.851,0,0,1,78.087,29.859ZM67.6,32.328A21.836,21.836,0,0,0,45.758,10.5H32.328A21.832,21.832,0,0,0,10.5,32.328V67.6H45.758A21.84,21.84,0,0,0,67.6,45.758Z" transform="translate(4843 -417.548)" fill="#eaeaea"/>
            <path id="Path_918" data-name="Path 918" d="M47.92,78.087A29.858,29.858,0,0,1,18.061,48.232V0H66.293A29.859,29.859,0,0,1,96.153,29.859V48.232A29.855,29.855,0,0,1,66.293,78.087Zm15.9-10.49A21.832,21.832,0,0,0,85.657,45.763V32.328A21.832,21.832,0,0,0,63.824,10.5H28.556V45.763A21.836,21.836,0,0,0,50.394,67.6Z" transform="translate(4914.478 -417.548)" fill="#eaeaea"/>
          </g>
          <g id="Group_487" data-name="Group 487" transform="translate(250.604 -351.396)">
            <path id="Path_919" data-name="Path 919" d="M78.087,48.232A29.854,29.854,0,0,1,48.232,78.087H0V29.859A29.852,29.852,0,0,1,29.859,0H48.232A29.851,29.851,0,0,1,78.087,29.859ZM67.6,32.328A21.836,21.836,0,0,0,45.758,10.5H32.328A21.832,21.832,0,0,0,10.5,32.328V67.6H45.758A21.84,21.84,0,0,0,67.6,45.758Z" transform="translate(4843 -417.548)" fill="#eaeaea"/>
            <path id="Path_920" data-name="Path 920" d="M47.92,78.087A29.858,29.858,0,0,1,18.061,48.232V0H66.293A29.859,29.859,0,0,1,96.153,29.859V48.232A29.855,29.855,0,0,1,66.293,78.087Zm15.9-10.49A21.832,21.832,0,0,0,85.657,45.763V32.328A21.832,21.832,0,0,0,63.824,10.5H28.556V45.763A21.836,21.836,0,0,0,50.394,67.6Z" transform="translate(4914.478 -417.548)" fill="#eaeaea"/>
          </g>
        </g>
        <g transform="translate(-4377.604 859.943)">
          <g id="Group_488" data-name="Group 488" transform="translate(334.419 -442.396)">
            <path id="Path_921" data-name="Path 921" d="M78.087,48.232A29.854,29.854,0,0,1,48.232,78.087H0V29.859A29.852,29.852,0,0,1,29.859,0H48.232A29.851,29.851,0,0,1,78.087,29.859ZM67.6,32.328A21.836,21.836,0,0,0,45.758,10.5H32.328A21.832,21.832,0,0,0,10.5,32.328V67.6H45.758A21.84,21.84,0,0,0,67.6,45.758Z" transform="translate(4843 -417.548)" fill="#eaeaea"/>
            <path id="Path_922" data-name="Path 922" d="M47.92,78.087A29.858,29.858,0,0,1,18.061,48.232V0H66.293A29.859,29.859,0,0,1,96.153,29.859V48.232A29.855,29.855,0,0,1,66.293,78.087Zm15.9-10.49A21.832,21.832,0,0,0,85.657,45.763V32.328A21.832,21.832,0,0,0,63.824,10.5H28.556V45.763A21.836,21.836,0,0,0,50.394,67.6Z" transform="translate(4914.478 -417.548)" fill="#eaeaea"/>
          </g>
          <g id="Group_489" data-name="Group 489" transform="translate(250.604 -351.396)">
            <path id="Path_923" data-name="Path 923" d="M78.087,48.232A29.854,29.854,0,0,1,48.232,78.087H0V29.859A29.852,29.852,0,0,1,29.859,0H48.232A29.851,29.851,0,0,1,78.087,29.859ZM67.6,32.328A21.836,21.836,0,0,0,45.758,10.5H32.328A21.832,21.832,0,0,0,10.5,32.328V67.6H45.758A21.84,21.84,0,0,0,67.6,45.758Z" transform="translate(4843 -417.548)" fill="#eaeaea"/>
            <path id="Path_924" data-name="Path 924" d="M47.92,78.087A29.858,29.858,0,0,1,18.061,48.232V0H66.293A29.859,29.859,0,0,1,96.153,29.859V48.232A29.855,29.855,0,0,1,66.293,78.087Zm15.9-10.49A21.832,21.832,0,0,0,85.657,45.763V32.328A21.832,21.832,0,0,0,63.824,10.5H28.556V45.763A21.836,21.836,0,0,0,50.394,67.6Z" transform="translate(4914.478 -417.548)" fill="#eaeaea"/>
          </g>
        </g>
        <g transform="translate(-4198.604 859.943)">
          <g id="Group_490" data-name="Group 490" transform="translate(334.419 -442.396)">
            <path id="Path_925" data-name="Path 925" d="M78.087,48.232A29.854,29.854,0,0,1,48.232,78.087H0V29.859A29.852,29.852,0,0,1,29.859,0H48.232A29.851,29.851,0,0,1,78.087,29.859ZM67.6,32.328A21.836,21.836,0,0,0,45.758,10.5H32.328A21.832,21.832,0,0,0,10.5,32.328V67.6H45.758A21.84,21.84,0,0,0,67.6,45.758Z" transform="translate(4843 -417.548)" fill="#eaeaea"/>
            <path id="Path_926" data-name="Path 926" d="M47.92,78.087A29.858,29.858,0,0,1,18.061,48.232V0H66.293A29.859,29.859,0,0,1,96.153,29.859V48.232A29.855,29.855,0,0,1,66.293,78.087Zm15.9-10.49A21.832,21.832,0,0,0,85.657,45.763V32.328A21.832,21.832,0,0,0,63.824,10.5H28.556V45.763A21.836,21.836,0,0,0,50.394,67.6Z" transform="translate(4914.478 -417.548)" fill="#eaeaea"/>
          </g>
          <g id="Group_491" data-name="Group 491" transform="translate(250.604 -351.396)">
            <path id="Path_927" data-name="Path 927" d="M78.087,48.232A29.854,29.854,0,0,1,48.232,78.087H0V29.859A29.852,29.852,0,0,1,29.859,0H48.232A29.851,29.851,0,0,1,78.087,29.859ZM67.6,32.328A21.836,21.836,0,0,0,45.758,10.5H32.328A21.832,21.832,0,0,0,10.5,32.328V67.6H45.758A21.84,21.84,0,0,0,67.6,45.758Z" transform="translate(4843 -417.548)" fill="#eaeaea"/>
            <path id="Path_928" data-name="Path 928" d="M47.92,78.087A29.858,29.858,0,0,1,18.061,48.232V0H66.293A29.859,29.859,0,0,1,96.153,29.859V48.232A29.855,29.855,0,0,1,66.293,78.087Zm15.9-10.49A21.832,21.832,0,0,0,85.657,45.763V32.328A21.832,21.832,0,0,0,63.824,10.5H28.556V45.763A21.836,21.836,0,0,0,50.394,67.6Z" transform="translate(4914.478 -417.548)" fill="#eaeaea"/>
          </g>
        </g>
        <g transform="translate(-4019.604 859.943)">
          <g id="Group_492" data-name="Group 492" transform="translate(334.419 -442.396)">
            <path id="Path_929" data-name="Path 929" d="M78.087,48.232A29.854,29.854,0,0,1,48.232,78.087H0V29.859A29.852,29.852,0,0,1,29.859,0H48.232A29.851,29.851,0,0,1,78.087,29.859ZM67.6,32.328A21.836,21.836,0,0,0,45.758,10.5H32.328A21.832,21.832,0,0,0,10.5,32.328V67.6H45.758A21.84,21.84,0,0,0,67.6,45.758Z" transform="translate(4843 -417.548)" fill="#eaeaea"/>
            <path id="Path_930" data-name="Path 930" d="M47.92,78.087A29.858,29.858,0,0,1,18.061,48.232V0H66.293A29.859,29.859,0,0,1,96.153,29.859V48.232A29.855,29.855,0,0,1,66.293,78.087Zm15.9-10.49A21.832,21.832,0,0,0,85.657,45.763V32.328A21.832,21.832,0,0,0,63.824,10.5H28.556V45.763A21.836,21.836,0,0,0,50.394,67.6Z" transform="translate(4914.478 -417.548)" fill="#eaeaea"/>
          </g>
          <g id="Group_493" data-name="Group 493" transform="translate(250.604 -351.396)">
            <path id="Path_931" data-name="Path 931" d="M78.087,48.232A29.854,29.854,0,0,1,48.232,78.087H0V29.859A29.852,29.852,0,0,1,29.859,0H48.232A29.851,29.851,0,0,1,78.087,29.859ZM67.6,32.328A21.836,21.836,0,0,0,45.758,10.5H32.328A21.832,21.832,0,0,0,10.5,32.328V67.6H45.758A21.84,21.84,0,0,0,67.6,45.758Z" transform="translate(4843 -417.548)" fill="#eaeaea"/>
            <path id="Path_932" data-name="Path 932" d="M47.92,78.087A29.858,29.858,0,0,1,18.061,48.232V0H66.293A29.859,29.859,0,0,1,96.153,29.859V48.232A29.855,29.855,0,0,1,66.293,78.087Zm15.9-10.49A21.832,21.832,0,0,0,85.657,45.763V32.328A21.832,21.832,0,0,0,63.824,10.5H28.556V45.763A21.836,21.836,0,0,0,50.394,67.6Z" transform="translate(4914.478 -417.548)" fill="#eaeaea"/>
          </g>
        </g>
        <g transform="translate(-3840.604 859.943)">
          <g id="Group_494" data-name="Group 494" transform="translate(334.419 -442.396)">
            <path id="Path_933" data-name="Path 933" d="M78.087,48.232A29.854,29.854,0,0,1,48.232,78.087H0V29.859A29.852,29.852,0,0,1,29.859,0H48.232A29.851,29.851,0,0,1,78.087,29.859ZM67.6,32.328A21.836,21.836,0,0,0,45.758,10.5H32.328A21.832,21.832,0,0,0,10.5,32.328V67.6H45.758A21.84,21.84,0,0,0,67.6,45.758Z" transform="translate(4843 -417.548)" fill="#eaeaea"/>
            <path id="Path_934" data-name="Path 934" d="M47.92,78.087A29.858,29.858,0,0,1,18.061,48.232V0H66.293A29.859,29.859,0,0,1,96.153,29.859V48.232A29.855,29.855,0,0,1,66.293,78.087Zm15.9-10.49A21.832,21.832,0,0,0,85.657,45.763V32.328A21.832,21.832,0,0,0,63.824,10.5H28.556V45.763A21.836,21.836,0,0,0,50.394,67.6Z" transform="translate(4914.478 -417.548)" fill="#eaeaea"/>
          </g>
          <g id="Group_495" data-name="Group 495" transform="translate(250.604 -351.396)">
            <path id="Path_935" data-name="Path 935" d="M78.087,48.232A29.854,29.854,0,0,1,48.232,78.087H0V29.859A29.852,29.852,0,0,1,29.859,0H48.232A29.851,29.851,0,0,1,78.087,29.859ZM67.6,32.328A21.836,21.836,0,0,0,45.758,10.5H32.328A21.832,21.832,0,0,0,10.5,32.328V67.6H45.758A21.84,21.84,0,0,0,67.6,45.758Z" transform="translate(4843 -417.548)" fill="#eaeaea"/>
            <path id="Path_936" data-name="Path 936" d="M47.92,78.087A29.858,29.858,0,0,1,18.061,48.232V0H66.293A29.859,29.859,0,0,1,96.153,29.859V48.232A29.855,29.855,0,0,1,66.293,78.087Zm15.9-10.49A21.832,21.832,0,0,0,85.657,45.763V32.328A21.832,21.832,0,0,0,63.824,10.5H28.556V45.763A21.836,21.836,0,0,0,50.394,67.6Z" transform="translate(4914.478 -417.548)" fill="#eaeaea"/>
          </g>
        </g>
        <g transform="translate(-3661.604 859.943)">
          <g id="Group_496" data-name="Group 496" transform="translate(334.419 -442.396)">
            <path id="Path_937" data-name="Path 937" d="M78.087,48.232A29.854,29.854,0,0,1,48.232,78.087H0V29.859A29.852,29.852,0,0,1,29.859,0H48.232A29.851,29.851,0,0,1,78.087,29.859ZM67.6,32.328A21.836,21.836,0,0,0,45.758,10.5H32.328A21.832,21.832,0,0,0,10.5,32.328V67.6H45.758A21.84,21.84,0,0,0,67.6,45.758Z" transform="translate(4843 -417.548)" fill="#eaeaea"/>
            <path id="Path_938" data-name="Path 938" d="M47.92,78.087A29.858,29.858,0,0,1,18.061,48.232V0H66.293A29.859,29.859,0,0,1,96.153,29.859V48.232A29.855,29.855,0,0,1,66.293,78.087Zm15.9-10.49A21.832,21.832,0,0,0,85.657,45.763V32.328A21.832,21.832,0,0,0,63.824,10.5H28.556V45.763A21.836,21.836,0,0,0,50.394,67.6Z" transform="translate(4914.478 -417.548)" fill="#eaeaea"/>
          </g>
          <g id="Group_497" data-name="Group 497" transform="translate(250.604 -351.396)">
            <path id="Path_939" data-name="Path 939" d="M78.087,48.232A29.854,29.854,0,0,1,48.232,78.087H0V29.859A29.852,29.852,0,0,1,29.859,0H48.232A29.851,29.851,0,0,1,78.087,29.859ZM67.6,32.328A21.836,21.836,0,0,0,45.758,10.5H32.328A21.832,21.832,0,0,0,10.5,32.328V67.6H45.758A21.84,21.84,0,0,0,67.6,45.758Z" transform="translate(4843 -417.548)" fill="#eaeaea"/>
            <path id="Path_940" data-name="Path 940" d="M47.92,78.087A29.858,29.858,0,0,1,18.061,48.232V0H66.293A29.859,29.859,0,0,1,96.153,29.859V48.232A29.855,29.855,0,0,1,66.293,78.087Zm15.9-10.49A21.832,21.832,0,0,0,85.657,45.763V32.328A21.832,21.832,0,0,0,63.824,10.5H28.556V45.763A21.836,21.836,0,0,0,50.394,67.6Z" transform="translate(4914.478 -417.548)" fill="#eaeaea"/>
          </g>
        </g>
        <g transform="translate(-3482.604 859.943)">
          <g id="Group_498" data-name="Group 498" transform="translate(334.419 -442.396)">
            <path id="Path_941" data-name="Path 941" d="M78.087,48.232A29.854,29.854,0,0,1,48.232,78.087H0V29.859A29.852,29.852,0,0,1,29.859,0H48.232A29.851,29.851,0,0,1,78.087,29.859ZM67.6,32.328A21.836,21.836,0,0,0,45.758,10.5H32.328A21.832,21.832,0,0,0,10.5,32.328V67.6H45.758A21.84,21.84,0,0,0,67.6,45.758Z" transform="translate(4843 -417.548)" fill="#eaeaea"/>
            <path id="Path_942" data-name="Path 942" d="M47.92,78.087A29.858,29.858,0,0,1,18.061,48.232V0H66.293A29.859,29.859,0,0,1,96.153,29.859V48.232A29.855,29.855,0,0,1,66.293,78.087Zm15.9-10.49A21.832,21.832,0,0,0,85.657,45.763V32.328A21.832,21.832,0,0,0,63.824,10.5H28.556V45.763A21.836,21.836,0,0,0,50.394,67.6Z" transform="translate(4914.478 -417.548)" fill="#eaeaea"/>
          </g>
          <g id="Group_499" data-name="Group 499" transform="translate(250.604 -351.396)">
            <path id="Path_943" data-name="Path 943" d="M78.087,48.232A29.854,29.854,0,0,1,48.232,78.087H0V29.859A29.852,29.852,0,0,1,29.859,0H48.232A29.851,29.851,0,0,1,78.087,29.859ZM67.6,32.328A21.836,21.836,0,0,0,45.758,10.5H32.328A21.832,21.832,0,0,0,10.5,32.328V67.6H45.758A21.84,21.84,0,0,0,67.6,45.758Z" transform="translate(4843 -417.548)" fill="#eaeaea"/>
            <path id="Path_944" data-name="Path 944" d="M47.92,78.087A29.858,29.858,0,0,1,18.061,48.232V0H66.293A29.859,29.859,0,0,1,96.153,29.859V48.232A29.855,29.855,0,0,1,66.293,78.087Zm15.9-10.49A21.832,21.832,0,0,0,85.657,45.763V32.328A21.832,21.832,0,0,0,63.824,10.5H28.556V45.763A21.836,21.836,0,0,0,50.394,67.6Z" transform="translate(4914.478 -417.548)" fill="#eaeaea"/>
          </g>
        </g>
        <g transform="translate(-3303.604 859.943)">
          <g id="Group_500" data-name="Group 500" transform="translate(334.419 -442.396)">
            <path id="Path_945" data-name="Path 945" d="M78.087,48.232A29.854,29.854,0,0,1,48.232,78.087H0V29.859A29.852,29.852,0,0,1,29.859,0H48.232A29.851,29.851,0,0,1,78.087,29.859ZM67.6,32.328A21.836,21.836,0,0,0,45.758,10.5H32.328A21.832,21.832,0,0,0,10.5,32.328V67.6H45.758A21.84,21.84,0,0,0,67.6,45.758Z" transform="translate(4843 -417.548)" fill="#eaeaea"/>
            <path id="Path_946" data-name="Path 946" d="M47.92,78.087A29.858,29.858,0,0,1,18.061,48.232V0H66.293A29.859,29.859,0,0,1,96.153,29.859V48.232A29.855,29.855,0,0,1,66.293,78.087Zm15.9-10.49A21.832,21.832,0,0,0,85.657,45.763V32.328A21.832,21.832,0,0,0,63.824,10.5H28.556V45.763A21.836,21.836,0,0,0,50.394,67.6Z" transform="translate(4914.478 -417.548)" fill="#eaeaea"/>
          </g>
          <g id="Group_501" data-name="Group 501" transform="translate(250.604 -351.396)">
            <path id="Path_947" data-name="Path 947" d="M78.087,48.232A29.854,29.854,0,0,1,48.232,78.087H0V29.859A29.852,29.852,0,0,1,29.859,0H48.232A29.851,29.851,0,0,1,78.087,29.859ZM67.6,32.328A21.836,21.836,0,0,0,45.758,10.5H32.328A21.832,21.832,0,0,0,10.5,32.328V67.6H45.758A21.84,21.84,0,0,0,67.6,45.758Z" transform="translate(4843 -417.548)" fill="#eaeaea"/>
            <path id="Path_948" data-name="Path 948" d="M47.92,78.087A29.858,29.858,0,0,1,18.061,48.232V0H66.293A29.859,29.859,0,0,1,96.153,29.859V48.232A29.855,29.855,0,0,1,66.293,78.087Zm15.9-10.49A21.832,21.832,0,0,0,85.657,45.763V32.328A21.832,21.832,0,0,0,63.824,10.5H28.556V45.763A21.836,21.836,0,0,0,50.394,67.6Z" transform="translate(4914.478 -417.548)" fill="#eaeaea"/>
          </g>
        </g>
        <g transform="translate(-3124.604 859.943)">
          <g id="Group_502" data-name="Group 502" transform="translate(334.419 -442.396)">
            <path id="Path_949" data-name="Path 949" d="M78.087,48.232A29.854,29.854,0,0,1,48.232,78.087H0V29.859A29.852,29.852,0,0,1,29.859,0H48.232A29.851,29.851,0,0,1,78.087,29.859ZM67.6,32.328A21.836,21.836,0,0,0,45.758,10.5H32.328A21.832,21.832,0,0,0,10.5,32.328V67.6H45.758A21.84,21.84,0,0,0,67.6,45.758Z" transform="translate(4843 -417.548)" fill="#eaeaea"/>
            <path id="Path_950" data-name="Path 950" d="M47.92,78.087A29.858,29.858,0,0,1,18.061,48.232V0H66.293A29.859,29.859,0,0,1,96.153,29.859V48.232A29.855,29.855,0,0,1,66.293,78.087Zm15.9-10.49A21.832,21.832,0,0,0,85.657,45.763V32.328A21.832,21.832,0,0,0,63.824,10.5H28.556V45.763A21.836,21.836,0,0,0,50.394,67.6Z" transform="translate(4914.478 -417.548)" fill="#eaeaea"/>
          </g>
          <g id="Group_503" data-name="Group 503" transform="translate(250.604 -351.396)">
            <path id="Path_951" data-name="Path 951" d="M78.087,48.232A29.854,29.854,0,0,1,48.232,78.087H0V29.859A29.852,29.852,0,0,1,29.859,0H48.232A29.851,29.851,0,0,1,78.087,29.859ZM67.6,32.328A21.836,21.836,0,0,0,45.758,10.5H32.328A21.832,21.832,0,0,0,10.5,32.328V67.6H45.758A21.84,21.84,0,0,0,67.6,45.758Z" transform="translate(4843 -417.548)" fill="#eaeaea"/>
            <path id="Path_952" data-name="Path 952" d="M47.92,78.087A29.858,29.858,0,0,1,18.061,48.232V0H66.293A29.859,29.859,0,0,1,96.153,29.859V48.232A29.855,29.855,0,0,1,66.293,78.087Zm15.9-10.49A21.832,21.832,0,0,0,85.657,45.763V32.328A21.832,21.832,0,0,0,63.824,10.5H28.556V45.763A21.836,21.836,0,0,0,50.394,67.6Z" transform="translate(4914.478 -417.548)" fill="#eaeaea"/>
          </g>
        </g>
        <g transform="translate(-5093.604 1035.943)">
          <g id="Group_504" data-name="Group 504" transform="translate(334.419 -442.396)">
            <path id="Path_953" data-name="Path 953" d="M78.087,48.232A29.854,29.854,0,0,1,48.232,78.087H0V29.859A29.852,29.852,0,0,1,29.859,0H48.232A29.851,29.851,0,0,1,78.087,29.859ZM67.6,32.328A21.836,21.836,0,0,0,45.758,10.5H32.328A21.832,21.832,0,0,0,10.5,32.328V67.6H45.758A21.84,21.84,0,0,0,67.6,45.758Z" transform="translate(4843 -417.548)" fill="#eaeaea"/>
            <path id="Path_954" data-name="Path 954" d="M47.92,78.087A29.858,29.858,0,0,1,18.061,48.232V0H66.293A29.859,29.859,0,0,1,96.153,29.859V48.232A29.855,29.855,0,0,1,66.293,78.087Zm15.9-10.49A21.832,21.832,0,0,0,85.657,45.763V32.328A21.832,21.832,0,0,0,63.824,10.5H28.556V45.763A21.836,21.836,0,0,0,50.394,67.6Z" transform="translate(4914.478 -417.548)" fill="#eaeaea"/>
          </g>
          <g id="Group_505" data-name="Group 505" transform="translate(250.604 -351.396)">
            <path id="Path_955" data-name="Path 955" d="M78.087,48.232A29.854,29.854,0,0,1,48.232,78.087H0V29.859A29.852,29.852,0,0,1,29.859,0H48.232A29.851,29.851,0,0,1,78.087,29.859ZM67.6,32.328A21.836,21.836,0,0,0,45.758,10.5H32.328A21.832,21.832,0,0,0,10.5,32.328V67.6H45.758A21.84,21.84,0,0,0,67.6,45.758Z" transform="translate(4843 -417.548)" fill="#eaeaea"/>
            <path id="Path_956" data-name="Path 956" d="M47.92,78.087A29.858,29.858,0,0,1,18.061,48.232V0H66.293A29.859,29.859,0,0,1,96.153,29.859V48.232A29.855,29.855,0,0,1,66.293,78.087Zm15.9-10.49A21.832,21.832,0,0,0,85.657,45.763V32.328A21.832,21.832,0,0,0,63.824,10.5H28.556V45.763A21.836,21.836,0,0,0,50.394,67.6Z" transform="translate(4914.478 -417.548)" fill="#eaeaea"/>
          </g>
        </g>
        <g transform="translate(-4914.604 1035.943)">
          <g id="Group_506" data-name="Group 506" transform="translate(334.419 -442.396)">
            <path id="Path_957" data-name="Path 957" d="M78.087,48.232A29.854,29.854,0,0,1,48.232,78.087H0V29.859A29.852,29.852,0,0,1,29.859,0H48.232A29.851,29.851,0,0,1,78.087,29.859ZM67.6,32.328A21.836,21.836,0,0,0,45.758,10.5H32.328A21.832,21.832,0,0,0,10.5,32.328V67.6H45.758A21.84,21.84,0,0,0,67.6,45.758Z" transform="translate(4843 -417.548)" fill="#eaeaea"/>
            <path id="Path_958" data-name="Path 958" d="M47.92,78.087A29.858,29.858,0,0,1,18.061,48.232V0H66.293A29.859,29.859,0,0,1,96.153,29.859V48.232A29.855,29.855,0,0,1,66.293,78.087Zm15.9-10.49A21.832,21.832,0,0,0,85.657,45.763V32.328A21.832,21.832,0,0,0,63.824,10.5H28.556V45.763A21.836,21.836,0,0,0,50.394,67.6Z" transform="translate(4914.478 -417.548)" fill="#eaeaea"/>
          </g>
          <g id="Group_507" data-name="Group 507" transform="translate(250.604 -351.396)">
            <path id="Path_959" data-name="Path 959" d="M78.087,48.232A29.854,29.854,0,0,1,48.232,78.087H0V29.859A29.852,29.852,0,0,1,29.859,0H48.232A29.851,29.851,0,0,1,78.087,29.859ZM67.6,32.328A21.836,21.836,0,0,0,45.758,10.5H32.328A21.832,21.832,0,0,0,10.5,32.328V67.6H45.758A21.84,21.84,0,0,0,67.6,45.758Z" transform="translate(4843 -417.548)" fill="#eaeaea"/>
            <path id="Path_960" data-name="Path 960" d="M47.92,78.087A29.858,29.858,0,0,1,18.061,48.232V0H66.293A29.859,29.859,0,0,1,96.153,29.859V48.232A29.855,29.855,0,0,1,66.293,78.087Zm15.9-10.49A21.832,21.832,0,0,0,85.657,45.763V32.328A21.832,21.832,0,0,0,63.824,10.5H28.556V45.763A21.836,21.836,0,0,0,50.394,67.6Z" transform="translate(4914.478 -417.548)" fill="#eaeaea"/>
          </g>
        </g>
        <g transform="translate(-4735.604 1035.943)">
          <g id="Group_508" data-name="Group 508" transform="translate(334.419 -442.396)">
            <path id="Path_961" data-name="Path 961" d="M78.087,48.232A29.854,29.854,0,0,1,48.232,78.087H0V29.859A29.852,29.852,0,0,1,29.859,0H48.232A29.851,29.851,0,0,1,78.087,29.859ZM67.6,32.328A21.836,21.836,0,0,0,45.758,10.5H32.328A21.832,21.832,0,0,0,10.5,32.328V67.6H45.758A21.84,21.84,0,0,0,67.6,45.758Z" transform="translate(4843 -417.548)" fill="#eaeaea"/>
            <path id="Path_962" data-name="Path 962" d="M47.92,78.087A29.858,29.858,0,0,1,18.061,48.232V0H66.293A29.859,29.859,0,0,1,96.153,29.859V48.232A29.855,29.855,0,0,1,66.293,78.087Zm15.9-10.49A21.832,21.832,0,0,0,85.657,45.763V32.328A21.832,21.832,0,0,0,63.824,10.5H28.556V45.763A21.836,21.836,0,0,0,50.394,67.6Z" transform="translate(4914.478 -417.548)" fill="#eaeaea"/>
          </g>
          <g id="Group_509" data-name="Group 509" transform="translate(250.604 -351.396)">
            <path id="Path_963" data-name="Path 963" d="M78.087,48.232A29.854,29.854,0,0,1,48.232,78.087H0V29.859A29.852,29.852,0,0,1,29.859,0H48.232A29.851,29.851,0,0,1,78.087,29.859ZM67.6,32.328A21.836,21.836,0,0,0,45.758,10.5H32.328A21.832,21.832,0,0,0,10.5,32.328V67.6H45.758A21.84,21.84,0,0,0,67.6,45.758Z" transform="translate(4843 -417.548)" fill="#eaeaea"/>
            <path id="Path_964" data-name="Path 964" d="M47.92,78.087A29.858,29.858,0,0,1,18.061,48.232V0H66.293A29.859,29.859,0,0,1,96.153,29.859V48.232A29.855,29.855,0,0,1,66.293,78.087Zm15.9-10.49A21.832,21.832,0,0,0,85.657,45.763V32.328A21.832,21.832,0,0,0,63.824,10.5H28.556V45.763A21.836,21.836,0,0,0,50.394,67.6Z" transform="translate(4914.478 -417.548)" fill="#eaeaea"/>
          </g>
        </g>
        <g transform="translate(-4556.604 1035.943)">
          <g id="Group_510" data-name="Group 510" transform="translate(334.419 -442.396)">
            <path id="Path_965" data-name="Path 965" d="M78.087,48.232A29.854,29.854,0,0,1,48.232,78.087H0V29.859A29.852,29.852,0,0,1,29.859,0H48.232A29.851,29.851,0,0,1,78.087,29.859ZM67.6,32.328A21.836,21.836,0,0,0,45.758,10.5H32.328A21.832,21.832,0,0,0,10.5,32.328V67.6H45.758A21.84,21.84,0,0,0,67.6,45.758Z" transform="translate(4843 -417.548)" fill="#eaeaea"/>
            <path id="Path_966" data-name="Path 966" d="M47.92,78.087A29.858,29.858,0,0,1,18.061,48.232V0H66.293A29.859,29.859,0,0,1,96.153,29.859V48.232A29.855,29.855,0,0,1,66.293,78.087Zm15.9-10.49A21.832,21.832,0,0,0,85.657,45.763V32.328A21.832,21.832,0,0,0,63.824,10.5H28.556V45.763A21.836,21.836,0,0,0,50.394,67.6Z" transform="translate(4914.478 -417.548)" fill="#eaeaea"/>
          </g>
          <g id="Group_511" data-name="Group 511" transform="translate(250.604 -351.396)">
            <path id="Path_967" data-name="Path 967" d="M78.087,48.232A29.854,29.854,0,0,1,48.232,78.087H0V29.859A29.852,29.852,0,0,1,29.859,0H48.232A29.851,29.851,0,0,1,78.087,29.859ZM67.6,32.328A21.836,21.836,0,0,0,45.758,10.5H32.328A21.832,21.832,0,0,0,10.5,32.328V67.6H45.758A21.84,21.84,0,0,0,67.6,45.758Z" transform="translate(4843 -417.548)" fill="#eaeaea"/>
            <path id="Path_968" data-name="Path 968" d="M47.92,78.087A29.858,29.858,0,0,1,18.061,48.232V0H66.293A29.859,29.859,0,0,1,96.153,29.859V48.232A29.855,29.855,0,0,1,66.293,78.087Zm15.9-10.49A21.832,21.832,0,0,0,85.657,45.763V32.328A21.832,21.832,0,0,0,63.824,10.5H28.556V45.763A21.836,21.836,0,0,0,50.394,67.6Z" transform="translate(4914.478 -417.548)" fill="#eaeaea"/>
          </g>
        </g>
        <g transform="translate(-4377.604 1035.943)">
          <g id="Group_512" data-name="Group 512" transform="translate(334.419 -442.396)">
            <path id="Path_969" data-name="Path 969" d="M78.087,48.232A29.854,29.854,0,0,1,48.232,78.087H0V29.859A29.852,29.852,0,0,1,29.859,0H48.232A29.851,29.851,0,0,1,78.087,29.859ZM67.6,32.328A21.836,21.836,0,0,0,45.758,10.5H32.328A21.832,21.832,0,0,0,10.5,32.328V67.6H45.758A21.84,21.84,0,0,0,67.6,45.758Z" transform="translate(4843 -417.548)" fill="#eaeaea"/>
            <path id="Path_970" data-name="Path 970" d="M47.92,78.087A29.858,29.858,0,0,1,18.061,48.232V0H66.293A29.859,29.859,0,0,1,96.153,29.859V48.232A29.855,29.855,0,0,1,66.293,78.087Zm15.9-10.49A21.832,21.832,0,0,0,85.657,45.763V32.328A21.832,21.832,0,0,0,63.824,10.5H28.556V45.763A21.836,21.836,0,0,0,50.394,67.6Z" transform="translate(4914.478 -417.548)" fill="#eaeaea"/>
          </g>
          <g id="Group_513" data-name="Group 513" transform="translate(250.604 -351.396)">
            <path id="Path_971" data-name="Path 971" d="M78.087,48.232A29.854,29.854,0,0,1,48.232,78.087H0V29.859A29.852,29.852,0,0,1,29.859,0H48.232A29.851,29.851,0,0,1,78.087,29.859ZM67.6,32.328A21.836,21.836,0,0,0,45.758,10.5H32.328A21.832,21.832,0,0,0,10.5,32.328V67.6H45.758A21.84,21.84,0,0,0,67.6,45.758Z" transform="translate(4843 -417.548)" fill="#eaeaea"/>
            <path id="Path_972" data-name="Path 972" d="M47.92,78.087A29.858,29.858,0,0,1,18.061,48.232V0H66.293A29.859,29.859,0,0,1,96.153,29.859V48.232A29.855,29.855,0,0,1,66.293,78.087Zm15.9-10.49A21.832,21.832,0,0,0,85.657,45.763V32.328A21.832,21.832,0,0,0,63.824,10.5H28.556V45.763A21.836,21.836,0,0,0,50.394,67.6Z" transform="translate(4914.478 -417.548)" fill="#eaeaea"/>
          </g>
        </g>
        <g transform="translate(-4198.604 1035.943)">
          <g id="Group_514" data-name="Group 514" transform="translate(334.419 -442.396)">
            <path id="Path_973" data-name="Path 973" d="M78.087,48.232A29.854,29.854,0,0,1,48.232,78.087H0V29.859A29.852,29.852,0,0,1,29.859,0H48.232A29.851,29.851,0,0,1,78.087,29.859ZM67.6,32.328A21.836,21.836,0,0,0,45.758,10.5H32.328A21.832,21.832,0,0,0,10.5,32.328V67.6H45.758A21.84,21.84,0,0,0,67.6,45.758Z" transform="translate(4843 -417.548)" fill="#eaeaea"/>
            <path id="Path_974" data-name="Path 974" d="M47.92,78.087A29.858,29.858,0,0,1,18.061,48.232V0H66.293A29.859,29.859,0,0,1,96.153,29.859V48.232A29.855,29.855,0,0,1,66.293,78.087Zm15.9-10.49A21.832,21.832,0,0,0,85.657,45.763V32.328A21.832,21.832,0,0,0,63.824,10.5H28.556V45.763A21.836,21.836,0,0,0,50.394,67.6Z" transform="translate(4914.478 -417.548)" fill="#eaeaea"/>
          </g>
          <g id="Group_515" data-name="Group 515" transform="translate(250.604 -351.396)">
            <path id="Path_975" data-name="Path 975" d="M78.087,48.232A29.854,29.854,0,0,1,48.232,78.087H0V29.859A29.852,29.852,0,0,1,29.859,0H48.232A29.851,29.851,0,0,1,78.087,29.859ZM67.6,32.328A21.836,21.836,0,0,0,45.758,10.5H32.328A21.832,21.832,0,0,0,10.5,32.328V67.6H45.758A21.84,21.84,0,0,0,67.6,45.758Z" transform="translate(4843 -417.548)" fill="#eaeaea"/>
            <path id="Path_976" data-name="Path 976" d="M47.92,78.087A29.858,29.858,0,0,1,18.061,48.232V0H66.293A29.859,29.859,0,0,1,96.153,29.859V48.232A29.855,29.855,0,0,1,66.293,78.087Zm15.9-10.49A21.832,21.832,0,0,0,85.657,45.763V32.328A21.832,21.832,0,0,0,63.824,10.5H28.556V45.763A21.836,21.836,0,0,0,50.394,67.6Z" transform="translate(4914.478 -417.548)" fill="#eaeaea"/>
          </g>
        </g>
        <g transform="translate(-4019.604 1035.943)">
          <g id="Group_516" data-name="Group 516" transform="translate(334.419 -442.396)">
            <path id="Path_977" data-name="Path 977" d="M78.087,48.232A29.854,29.854,0,0,1,48.232,78.087H0V29.859A29.852,29.852,0,0,1,29.859,0H48.232A29.851,29.851,0,0,1,78.087,29.859ZM67.6,32.328A21.836,21.836,0,0,0,45.758,10.5H32.328A21.832,21.832,0,0,0,10.5,32.328V67.6H45.758A21.84,21.84,0,0,0,67.6,45.758Z" transform="translate(4843 -417.548)" fill="#eaeaea"/>
            <path id="Path_978" data-name="Path 978" d="M47.92,78.087A29.858,29.858,0,0,1,18.061,48.232V0H66.293A29.859,29.859,0,0,1,96.153,29.859V48.232A29.855,29.855,0,0,1,66.293,78.087Zm15.9-10.49A21.832,21.832,0,0,0,85.657,45.763V32.328A21.832,21.832,0,0,0,63.824,10.5H28.556V45.763A21.836,21.836,0,0,0,50.394,67.6Z" transform="translate(4914.478 -417.548)" fill="#eaeaea"/>
          </g>
          <g id="Group_517" data-name="Group 517" transform="translate(250.604 -351.396)">
            <path id="Path_979" data-name="Path 979" d="M78.087,48.232A29.854,29.854,0,0,1,48.232,78.087H0V29.859A29.852,29.852,0,0,1,29.859,0H48.232A29.851,29.851,0,0,1,78.087,29.859ZM67.6,32.328A21.836,21.836,0,0,0,45.758,10.5H32.328A21.832,21.832,0,0,0,10.5,32.328V67.6H45.758A21.84,21.84,0,0,0,67.6,45.758Z" transform="translate(4843 -417.548)" fill="#eaeaea"/>
            <path id="Path_980" data-name="Path 980" d="M47.92,78.087A29.858,29.858,0,0,1,18.061,48.232V0H66.293A29.859,29.859,0,0,1,96.153,29.859V48.232A29.855,29.855,0,0,1,66.293,78.087Zm15.9-10.49A21.832,21.832,0,0,0,85.657,45.763V32.328A21.832,21.832,0,0,0,63.824,10.5H28.556V45.763A21.836,21.836,0,0,0,50.394,67.6Z" transform="translate(4914.478 -417.548)" fill="#eaeaea"/>
          </g>
        </g>
        <g transform="translate(-3840.604 1035.943)">
          <g id="Group_518" data-name="Group 518" transform="translate(334.419 -442.396)">
            <path id="Path_981" data-name="Path 981" d="M78.087,48.232A29.854,29.854,0,0,1,48.232,78.087H0V29.859A29.852,29.852,0,0,1,29.859,0H48.232A29.851,29.851,0,0,1,78.087,29.859ZM67.6,32.328A21.836,21.836,0,0,0,45.758,10.5H32.328A21.832,21.832,0,0,0,10.5,32.328V67.6H45.758A21.84,21.84,0,0,0,67.6,45.758Z" transform="translate(4843 -417.548)" fill="#eaeaea"/>
            <path id="Path_982" data-name="Path 982" d="M47.92,78.087A29.858,29.858,0,0,1,18.061,48.232V0H66.293A29.859,29.859,0,0,1,96.153,29.859V48.232A29.855,29.855,0,0,1,66.293,78.087Zm15.9-10.49A21.832,21.832,0,0,0,85.657,45.763V32.328A21.832,21.832,0,0,0,63.824,10.5H28.556V45.763A21.836,21.836,0,0,0,50.394,67.6Z" transform="translate(4914.478 -417.548)" fill="#eaeaea"/>
          </g>
          <g id="Group_519" data-name="Group 519" transform="translate(250.604 -351.396)">
            <path id="Path_983" data-name="Path 983" d="M78.087,48.232A29.854,29.854,0,0,1,48.232,78.087H0V29.859A29.852,29.852,0,0,1,29.859,0H48.232A29.851,29.851,0,0,1,78.087,29.859ZM67.6,32.328A21.836,21.836,0,0,0,45.758,10.5H32.328A21.832,21.832,0,0,0,10.5,32.328V67.6H45.758A21.84,21.84,0,0,0,67.6,45.758Z" transform="translate(4843 -417.548)" fill="#eaeaea"/>
            <path id="Path_984" data-name="Path 984" d="M47.92,78.087A29.858,29.858,0,0,1,18.061,48.232V0H66.293A29.859,29.859,0,0,1,96.153,29.859V48.232A29.855,29.855,0,0,1,66.293,78.087Zm15.9-10.49A21.832,21.832,0,0,0,85.657,45.763V32.328A21.832,21.832,0,0,0,63.824,10.5H28.556V45.763A21.836,21.836,0,0,0,50.394,67.6Z" transform="translate(4914.478 -417.548)" fill="#eaeaea"/>
          </g>
        </g>
        <g transform="translate(-3661.604 1035.943)">
          <g id="Group_520" data-name="Group 520" transform="translate(334.419 -442.396)">
            <path id="Path_985" data-name="Path 985" d="M78.087,48.232A29.854,29.854,0,0,1,48.232,78.087H0V29.859A29.852,29.852,0,0,1,29.859,0H48.232A29.851,29.851,0,0,1,78.087,29.859ZM67.6,32.328A21.836,21.836,0,0,0,45.758,10.5H32.328A21.832,21.832,0,0,0,10.5,32.328V67.6H45.758A21.84,21.84,0,0,0,67.6,45.758Z" transform="translate(4843 -417.548)" fill="#eaeaea"/>
            <path id="Path_986" data-name="Path 986" d="M47.92,78.087A29.858,29.858,0,0,1,18.061,48.232V0H66.293A29.859,29.859,0,0,1,96.153,29.859V48.232A29.855,29.855,0,0,1,66.293,78.087Zm15.9-10.49A21.832,21.832,0,0,0,85.657,45.763V32.328A21.832,21.832,0,0,0,63.824,10.5H28.556V45.763A21.836,21.836,0,0,0,50.394,67.6Z" transform="translate(4914.478 -417.548)" fill="#eaeaea"/>
          </g>
          <g id="Group_521" data-name="Group 521" transform="translate(250.604 -351.396)">
            <path id="Path_987" data-name="Path 987" d="M78.087,48.232A29.854,29.854,0,0,1,48.232,78.087H0V29.859A29.852,29.852,0,0,1,29.859,0H48.232A29.851,29.851,0,0,1,78.087,29.859ZM67.6,32.328A21.836,21.836,0,0,0,45.758,10.5H32.328A21.832,21.832,0,0,0,10.5,32.328V67.6H45.758A21.84,21.84,0,0,0,67.6,45.758Z" transform="translate(4843 -417.548)" fill="#eaeaea"/>
            <path id="Path_988" data-name="Path 988" d="M47.92,78.087A29.858,29.858,0,0,1,18.061,48.232V0H66.293A29.859,29.859,0,0,1,96.153,29.859V48.232A29.855,29.855,0,0,1,66.293,78.087Zm15.9-10.49A21.832,21.832,0,0,0,85.657,45.763V32.328A21.832,21.832,0,0,0,63.824,10.5H28.556V45.763A21.836,21.836,0,0,0,50.394,67.6Z" transform="translate(4914.478 -417.548)" fill="#eaeaea"/>
          </g>
        </g>
        <g transform="translate(-3482.604 1035.943)">
          <g id="Group_522" data-name="Group 522" transform="translate(334.419 -442.396)">
            <path id="Path_989" data-name="Path 989" d="M78.087,48.232A29.854,29.854,0,0,1,48.232,78.087H0V29.859A29.852,29.852,0,0,1,29.859,0H48.232A29.851,29.851,0,0,1,78.087,29.859ZM67.6,32.328A21.836,21.836,0,0,0,45.758,10.5H32.328A21.832,21.832,0,0,0,10.5,32.328V67.6H45.758A21.84,21.84,0,0,0,67.6,45.758Z" transform="translate(4843 -417.548)" fill="#eaeaea"/>
            <path id="Path_990" data-name="Path 990" d="M47.92,78.087A29.858,29.858,0,0,1,18.061,48.232V0H66.293A29.859,29.859,0,0,1,96.153,29.859V48.232A29.855,29.855,0,0,1,66.293,78.087Zm15.9-10.49A21.832,21.832,0,0,0,85.657,45.763V32.328A21.832,21.832,0,0,0,63.824,10.5H28.556V45.763A21.836,21.836,0,0,0,50.394,67.6Z" transform="translate(4914.478 -417.548)" fill="#eaeaea"/>
          </g>
          <g id="Group_523" data-name="Group 523" transform="translate(250.604 -351.396)">
            <path id="Path_991" data-name="Path 991" d="M78.087,48.232A29.854,29.854,0,0,1,48.232,78.087H0V29.859A29.852,29.852,0,0,1,29.859,0H48.232A29.851,29.851,0,0,1,78.087,29.859ZM67.6,32.328A21.836,21.836,0,0,0,45.758,10.5H32.328A21.832,21.832,0,0,0,10.5,32.328V67.6H45.758A21.84,21.84,0,0,0,67.6,45.758Z" transform="translate(4843 -417.548)" fill="#eaeaea"/>
            <path id="Path_992" data-name="Path 992" d="M47.92,78.087A29.858,29.858,0,0,1,18.061,48.232V0H66.293A29.859,29.859,0,0,1,96.153,29.859V48.232A29.855,29.855,0,0,1,66.293,78.087Zm15.9-10.49A21.832,21.832,0,0,0,85.657,45.763V32.328A21.832,21.832,0,0,0,63.824,10.5H28.556V45.763A21.836,21.836,0,0,0,50.394,67.6Z" transform="translate(4914.478 -417.548)" fill="#eaeaea"/>
          </g>
        </g>
        <g transform="translate(-3303.604 1035.943)">
          <g id="Group_524" data-name="Group 524" transform="translate(334.419 -442.396)">
            <path id="Path_993" data-name="Path 993" d="M78.087,48.232A29.854,29.854,0,0,1,48.232,78.087H0V29.859A29.852,29.852,0,0,1,29.859,0H48.232A29.851,29.851,0,0,1,78.087,29.859ZM67.6,32.328A21.836,21.836,0,0,0,45.758,10.5H32.328A21.832,21.832,0,0,0,10.5,32.328V67.6H45.758A21.84,21.84,0,0,0,67.6,45.758Z" transform="translate(4843 -417.548)" fill="#eaeaea"/>
            <path id="Path_994" data-name="Path 994" d="M47.92,78.087A29.858,29.858,0,0,1,18.061,48.232V0H66.293A29.859,29.859,0,0,1,96.153,29.859V48.232A29.855,29.855,0,0,1,66.293,78.087Zm15.9-10.49A21.832,21.832,0,0,0,85.657,45.763V32.328A21.832,21.832,0,0,0,63.824,10.5H28.556V45.763A21.836,21.836,0,0,0,50.394,67.6Z" transform="translate(4914.478 -417.548)" fill="#eaeaea"/>
          </g>
          <g id="Group_525" data-name="Group 525" transform="translate(250.604 -351.396)">
            <path id="Path_995" data-name="Path 995" d="M78.087,48.232A29.854,29.854,0,0,1,48.232,78.087H0V29.859A29.852,29.852,0,0,1,29.859,0H48.232A29.851,29.851,0,0,1,78.087,29.859ZM67.6,32.328A21.836,21.836,0,0,0,45.758,10.5H32.328A21.832,21.832,0,0,0,10.5,32.328V67.6H45.758A21.84,21.84,0,0,0,67.6,45.758Z" transform="translate(4843 -417.548)" fill="#eaeaea"/>
            <path id="Path_996" data-name="Path 996" d="M47.92,78.087A29.858,29.858,0,0,1,18.061,48.232V0H66.293A29.859,29.859,0,0,1,96.153,29.859V48.232A29.855,29.855,0,0,1,66.293,78.087Zm15.9-10.49A21.832,21.832,0,0,0,85.657,45.763V32.328A21.832,21.832,0,0,0,63.824,10.5H28.556V45.763A21.836,21.836,0,0,0,50.394,67.6Z" transform="translate(4914.478 -417.548)" fill="#eaeaea"/>
          </g>
        </g>
        <g transform="translate(-3124.604 1035.943)">
          <g id="Group_526" data-name="Group 526" transform="translate(334.419 -442.396)">
            <path id="Path_997" data-name="Path 997" d="M78.087,48.232A29.854,29.854,0,0,1,48.232,78.087H0V29.859A29.852,29.852,0,0,1,29.859,0H48.232A29.851,29.851,0,0,1,78.087,29.859ZM67.6,32.328A21.836,21.836,0,0,0,45.758,10.5H32.328A21.832,21.832,0,0,0,10.5,32.328V67.6H45.758A21.84,21.84,0,0,0,67.6,45.758Z" transform="translate(4843 -417.548)" fill="#eaeaea"/>
            <path id="Path_998" data-name="Path 998" d="M47.92,78.087A29.858,29.858,0,0,1,18.061,48.232V0H66.293A29.859,29.859,0,0,1,96.153,29.859V48.232A29.855,29.855,0,0,1,66.293,78.087Zm15.9-10.49A21.832,21.832,0,0,0,85.657,45.763V32.328A21.832,21.832,0,0,0,63.824,10.5H28.556V45.763A21.836,21.836,0,0,0,50.394,67.6Z" transform="translate(4914.478 -417.548)" fill="#eaeaea"/>
          </g>
          <g id="Group_527" data-name="Group 527" transform="translate(250.604 -351.396)">
            <path id="Path_999" data-name="Path 999" d="M78.087,48.232A29.854,29.854,0,0,1,48.232,78.087H0V29.859A29.852,29.852,0,0,1,29.859,0H48.232A29.851,29.851,0,0,1,78.087,29.859ZM67.6,32.328A21.836,21.836,0,0,0,45.758,10.5H32.328A21.832,21.832,0,0,0,10.5,32.328V67.6H45.758A21.84,21.84,0,0,0,67.6,45.758Z" transform="translate(4843 -417.548)" fill="#eaeaea"/>
            <path id="Path_1000" data-name="Path 1000" d="M47.92,78.087A29.858,29.858,0,0,1,18.061,48.232V0H66.293A29.859,29.859,0,0,1,96.153,29.859V48.232A29.855,29.855,0,0,1,66.293,78.087Zm15.9-10.49A21.832,21.832,0,0,0,85.657,45.763V32.328A21.832,21.832,0,0,0,63.824,10.5H28.556V45.763A21.836,21.836,0,0,0,50.394,67.6Z" transform="translate(4914.478 -417.548)" fill="#eaeaea"/>
          </g>
        </g>
        <g transform="translate(-5093.604 1211.943)">
          <g id="Group_528" data-name="Group 528" transform="translate(334.419 -442.396)">
            <path id="Path_1001" data-name="Path 1001" d="M78.087,48.232A29.854,29.854,0,0,1,48.232,78.087H0V29.859A29.852,29.852,0,0,1,29.859,0H48.232A29.851,29.851,0,0,1,78.087,29.859ZM67.6,32.328A21.836,21.836,0,0,0,45.758,10.5H32.328A21.832,21.832,0,0,0,10.5,32.328V67.6H45.758A21.84,21.84,0,0,0,67.6,45.758Z" transform="translate(4843 -417.548)" fill="#eaeaea"/>
            <path id="Path_1002" data-name="Path 1002" d="M47.92,78.087A29.858,29.858,0,0,1,18.061,48.232V0H66.293A29.859,29.859,0,0,1,96.153,29.859V48.232A29.855,29.855,0,0,1,66.293,78.087Zm15.9-10.49A21.832,21.832,0,0,0,85.657,45.763V32.328A21.832,21.832,0,0,0,63.824,10.5H28.556V45.763A21.836,21.836,0,0,0,50.394,67.6Z" transform="translate(4914.478 -417.548)" fill="#eaeaea"/>
          </g>
          <g id="Group_529" data-name="Group 529" transform="translate(250.604 -351.396)">
            <path id="Path_1003" data-name="Path 1003" d="M78.087,48.232A29.854,29.854,0,0,1,48.232,78.087H0V29.859A29.852,29.852,0,0,1,29.859,0H48.232A29.851,29.851,0,0,1,78.087,29.859ZM67.6,32.328A21.836,21.836,0,0,0,45.758,10.5H32.328A21.832,21.832,0,0,0,10.5,32.328V67.6H45.758A21.84,21.84,0,0,0,67.6,45.758Z" transform="translate(4843 -417.548)" fill="#eaeaea"/>
            <path id="Path_1004" data-name="Path 1004" d="M47.92,78.087A29.858,29.858,0,0,1,18.061,48.232V0H66.293A29.859,29.859,0,0,1,96.153,29.859V48.232A29.855,29.855,0,0,1,66.293,78.087Zm15.9-10.49A21.832,21.832,0,0,0,85.657,45.763V32.328A21.832,21.832,0,0,0,63.824,10.5H28.556V45.763A21.836,21.836,0,0,0,50.394,67.6Z" transform="translate(4914.478 -417.548)" fill="#eaeaea"/>
          </g>
        </g>
        <g transform="translate(-4914.604 1211.943)">
          <g id="Group_530" data-name="Group 530" transform="translate(334.419 -442.396)">
            <path id="Path_1005" data-name="Path 1005" d="M78.087,48.232A29.854,29.854,0,0,1,48.232,78.087H0V29.859A29.852,29.852,0,0,1,29.859,0H48.232A29.851,29.851,0,0,1,78.087,29.859ZM67.6,32.328A21.836,21.836,0,0,0,45.758,10.5H32.328A21.832,21.832,0,0,0,10.5,32.328V67.6H45.758A21.84,21.84,0,0,0,67.6,45.758Z" transform="translate(4843 -417.548)" fill="#eaeaea"/>
            <path id="Path_1006" data-name="Path 1006" d="M47.92,78.087A29.858,29.858,0,0,1,18.061,48.232V0H66.293A29.859,29.859,0,0,1,96.153,29.859V48.232A29.855,29.855,0,0,1,66.293,78.087Zm15.9-10.49A21.832,21.832,0,0,0,85.657,45.763V32.328A21.832,21.832,0,0,0,63.824,10.5H28.556V45.763A21.836,21.836,0,0,0,50.394,67.6Z" transform="translate(4914.478 -417.548)" fill="#eaeaea"/>
          </g>
          <g id="Group_531" data-name="Group 531" transform="translate(250.604 -351.396)">
            <path id="Path_1007" data-name="Path 1007" d="M78.087,48.232A29.854,29.854,0,0,1,48.232,78.087H0V29.859A29.852,29.852,0,0,1,29.859,0H48.232A29.851,29.851,0,0,1,78.087,29.859ZM67.6,32.328A21.836,21.836,0,0,0,45.758,10.5H32.328A21.832,21.832,0,0,0,10.5,32.328V67.6H45.758A21.84,21.84,0,0,0,67.6,45.758Z" transform="translate(4843 -417.548)" fill="#eaeaea"/>
            <path id="Path_1008" data-name="Path 1008" d="M47.92,78.087A29.858,29.858,0,0,1,18.061,48.232V0H66.293A29.859,29.859,0,0,1,96.153,29.859V48.232A29.855,29.855,0,0,1,66.293,78.087Zm15.9-10.49A21.832,21.832,0,0,0,85.657,45.763V32.328A21.832,21.832,0,0,0,63.824,10.5H28.556V45.763A21.836,21.836,0,0,0,50.394,67.6Z" transform="translate(4914.478 -417.548)" fill="#eaeaea"/>
          </g>
        </g>
        <g transform="translate(-4735.604 1211.943)">
          <g id="Group_532" data-name="Group 532" transform="translate(334.419 -442.396)">
            <path id="Path_1009" data-name="Path 1009" d="M78.087,48.232A29.854,29.854,0,0,1,48.232,78.087H0V29.859A29.852,29.852,0,0,1,29.859,0H48.232A29.851,29.851,0,0,1,78.087,29.859ZM67.6,32.328A21.836,21.836,0,0,0,45.758,10.5H32.328A21.832,21.832,0,0,0,10.5,32.328V67.6H45.758A21.84,21.84,0,0,0,67.6,45.758Z" transform="translate(4843 -417.548)" fill="#eaeaea"/>
            <path id="Path_1010" data-name="Path 1010" d="M47.92,78.087A29.858,29.858,0,0,1,18.061,48.232V0H66.293A29.859,29.859,0,0,1,96.153,29.859V48.232A29.855,29.855,0,0,1,66.293,78.087Zm15.9-10.49A21.832,21.832,0,0,0,85.657,45.763V32.328A21.832,21.832,0,0,0,63.824,10.5H28.556V45.763A21.836,21.836,0,0,0,50.394,67.6Z" transform="translate(4914.478 -417.548)" fill="#eaeaea"/>
          </g>
          <g id="Group_533" data-name="Group 533" transform="translate(250.604 -351.396)">
            <path id="Path_1011" data-name="Path 1011" d="M78.087,48.232A29.854,29.854,0,0,1,48.232,78.087H0V29.859A29.852,29.852,0,0,1,29.859,0H48.232A29.851,29.851,0,0,1,78.087,29.859ZM67.6,32.328A21.836,21.836,0,0,0,45.758,10.5H32.328A21.832,21.832,0,0,0,10.5,32.328V67.6H45.758A21.84,21.84,0,0,0,67.6,45.758Z" transform="translate(4843 -417.548)" fill="#eaeaea"/>
            <path id="Path_1012" data-name="Path 1012" d="M47.92,78.087A29.858,29.858,0,0,1,18.061,48.232V0H66.293A29.859,29.859,0,0,1,96.153,29.859V48.232A29.855,29.855,0,0,1,66.293,78.087Zm15.9-10.49A21.832,21.832,0,0,0,85.657,45.763V32.328A21.832,21.832,0,0,0,63.824,10.5H28.556V45.763A21.836,21.836,0,0,0,50.394,67.6Z" transform="translate(4914.478 -417.548)" fill="#eaeaea"/>
          </g>
        </g>
        <g transform="translate(-4556.604 1211.943)">
          <g id="Group_534" data-name="Group 534" transform="translate(334.419 -442.396)">
            <path id="Path_1013" data-name="Path 1013" d="M78.087,48.232A29.854,29.854,0,0,1,48.232,78.087H0V29.859A29.852,29.852,0,0,1,29.859,0H48.232A29.851,29.851,0,0,1,78.087,29.859ZM67.6,32.328A21.836,21.836,0,0,0,45.758,10.5H32.328A21.832,21.832,0,0,0,10.5,32.328V67.6H45.758A21.84,21.84,0,0,0,67.6,45.758Z" transform="translate(4843 -417.548)" fill="#eaeaea"/>
            <path id="Path_1014" data-name="Path 1014" d="M47.92,78.087A29.858,29.858,0,0,1,18.061,48.232V0H66.293A29.859,29.859,0,0,1,96.153,29.859V48.232A29.855,29.855,0,0,1,66.293,78.087Zm15.9-10.49A21.832,21.832,0,0,0,85.657,45.763V32.328A21.832,21.832,0,0,0,63.824,10.5H28.556V45.763A21.836,21.836,0,0,0,50.394,67.6Z" transform="translate(4914.478 -417.548)" fill="#eaeaea"/>
          </g>
          <g id="Group_535" data-name="Group 535" transform="translate(250.604 -351.396)">
            <path id="Path_1015" data-name="Path 1015" d="M78.087,48.232A29.854,29.854,0,0,1,48.232,78.087H0V29.859A29.852,29.852,0,0,1,29.859,0H48.232A29.851,29.851,0,0,1,78.087,29.859ZM67.6,32.328A21.836,21.836,0,0,0,45.758,10.5H32.328A21.832,21.832,0,0,0,10.5,32.328V67.6H45.758A21.84,21.84,0,0,0,67.6,45.758Z" transform="translate(4843 -417.548)" fill="#eaeaea"/>
            <path id="Path_1016" data-name="Path 1016" d="M47.92,78.087A29.858,29.858,0,0,1,18.061,48.232V0H66.293A29.859,29.859,0,0,1,96.153,29.859V48.232A29.855,29.855,0,0,1,66.293,78.087Zm15.9-10.49A21.832,21.832,0,0,0,85.657,45.763V32.328A21.832,21.832,0,0,0,63.824,10.5H28.556V45.763A21.836,21.836,0,0,0,50.394,67.6Z" transform="translate(4914.478 -417.548)" fill="#eaeaea"/>
          </g>
        </g>
        <g transform="translate(-4377.604 1211.943)">
          <g id="Group_536" data-name="Group 536" transform="translate(334.419 -442.396)">
            <path id="Path_1017" data-name="Path 1017" d="M78.087,48.232A29.854,29.854,0,0,1,48.232,78.087H0V29.859A29.852,29.852,0,0,1,29.859,0H48.232A29.851,29.851,0,0,1,78.087,29.859ZM67.6,32.328A21.836,21.836,0,0,0,45.758,10.5H32.328A21.832,21.832,0,0,0,10.5,32.328V67.6H45.758A21.84,21.84,0,0,0,67.6,45.758Z" transform="translate(4843 -417.548)" fill="#eaeaea"/>
            <path id="Path_1018" data-name="Path 1018" d="M47.92,78.087A29.858,29.858,0,0,1,18.061,48.232V0H66.293A29.859,29.859,0,0,1,96.153,29.859V48.232A29.855,29.855,0,0,1,66.293,78.087Zm15.9-10.49A21.832,21.832,0,0,0,85.657,45.763V32.328A21.832,21.832,0,0,0,63.824,10.5H28.556V45.763A21.836,21.836,0,0,0,50.394,67.6Z" transform="translate(4914.478 -417.548)" fill="#eaeaea"/>
          </g>
          <g id="Group_537" data-name="Group 537" transform="translate(250.604 -351.396)">
            <path id="Path_1019" data-name="Path 1019" d="M78.087,48.232A29.854,29.854,0,0,1,48.232,78.087H0V29.859A29.852,29.852,0,0,1,29.859,0H48.232A29.851,29.851,0,0,1,78.087,29.859ZM67.6,32.328A21.836,21.836,0,0,0,45.758,10.5H32.328A21.832,21.832,0,0,0,10.5,32.328V67.6H45.758A21.84,21.84,0,0,0,67.6,45.758Z" transform="translate(4843 -417.548)" fill="#eaeaea"/>
            <path id="Path_1020" data-name="Path 1020" d="M47.92,78.087A29.858,29.858,0,0,1,18.061,48.232V0H66.293A29.859,29.859,0,0,1,96.153,29.859V48.232A29.855,29.855,0,0,1,66.293,78.087Zm15.9-10.49A21.832,21.832,0,0,0,85.657,45.763V32.328A21.832,21.832,0,0,0,63.824,10.5H28.556V45.763A21.836,21.836,0,0,0,50.394,67.6Z" transform="translate(4914.478 -417.548)" fill="#eaeaea"/>
          </g>
        </g>
        <g transform="translate(-4198.604 1211.943)">
          <g id="Group_538" data-name="Group 538" transform="translate(334.419 -442.396)">
            <path id="Path_1021" data-name="Path 1021" d="M78.087,48.232A29.854,29.854,0,0,1,48.232,78.087H0V29.859A29.852,29.852,0,0,1,29.859,0H48.232A29.851,29.851,0,0,1,78.087,29.859ZM67.6,32.328A21.836,21.836,0,0,0,45.758,10.5H32.328A21.832,21.832,0,0,0,10.5,32.328V67.6H45.758A21.84,21.84,0,0,0,67.6,45.758Z" transform="translate(4843 -417.548)" fill="#eaeaea"/>
            <path id="Path_1022" data-name="Path 1022" d="M47.92,78.087A29.858,29.858,0,0,1,18.061,48.232V0H66.293A29.859,29.859,0,0,1,96.153,29.859V48.232A29.855,29.855,0,0,1,66.293,78.087Zm15.9-10.49A21.832,21.832,0,0,0,85.657,45.763V32.328A21.832,21.832,0,0,0,63.824,10.5H28.556V45.763A21.836,21.836,0,0,0,50.394,67.6Z" transform="translate(4914.478 -417.548)" fill="#eaeaea"/>
          </g>
          <g id="Group_539" data-name="Group 539" transform="translate(250.604 -351.396)">
            <path id="Path_1023" data-name="Path 1023" d="M78.087,48.232A29.854,29.854,0,0,1,48.232,78.087H0V29.859A29.852,29.852,0,0,1,29.859,0H48.232A29.851,29.851,0,0,1,78.087,29.859ZM67.6,32.328A21.836,21.836,0,0,0,45.758,10.5H32.328A21.832,21.832,0,0,0,10.5,32.328V67.6H45.758A21.84,21.84,0,0,0,67.6,45.758Z" transform="translate(4843 -417.548)" fill="#eaeaea"/>
            <path id="Path_1024" data-name="Path 1024" d="M47.92,78.087A29.858,29.858,0,0,1,18.061,48.232V0H66.293A29.859,29.859,0,0,1,96.153,29.859V48.232A29.855,29.855,0,0,1,66.293,78.087Zm15.9-10.49A21.832,21.832,0,0,0,85.657,45.763V32.328A21.832,21.832,0,0,0,63.824,10.5H28.556V45.763A21.836,21.836,0,0,0,50.394,67.6Z" transform="translate(4914.478 -417.548)" fill="#eaeaea"/>
          </g>
        </g>
        <g transform="translate(-4019.604 1211.943)">
          <g id="Group_540" data-name="Group 540" transform="translate(334.419 -442.396)">
            <path id="Path_1025" data-name="Path 1025" d="M78.087,48.232A29.854,29.854,0,0,1,48.232,78.087H0V29.859A29.852,29.852,0,0,1,29.859,0H48.232A29.851,29.851,0,0,1,78.087,29.859ZM67.6,32.328A21.836,21.836,0,0,0,45.758,10.5H32.328A21.832,21.832,0,0,0,10.5,32.328V67.6H45.758A21.84,21.84,0,0,0,67.6,45.758Z" transform="translate(4843 -417.548)" fill="#eaeaea"/>
            <path id="Path_1026" data-name="Path 1026" d="M47.92,78.087A29.858,29.858,0,0,1,18.061,48.232V0H66.293A29.859,29.859,0,0,1,96.153,29.859V48.232A29.855,29.855,0,0,1,66.293,78.087Zm15.9-10.49A21.832,21.832,0,0,0,85.657,45.763V32.328A21.832,21.832,0,0,0,63.824,10.5H28.556V45.763A21.836,21.836,0,0,0,50.394,67.6Z" transform="translate(4914.478 -417.548)" fill="#eaeaea"/>
          </g>
          <g id="Group_541" data-name="Group 541" transform="translate(250.604 -351.396)">
            <path id="Path_1027" data-name="Path 1027" d="M78.087,48.232A29.854,29.854,0,0,1,48.232,78.087H0V29.859A29.852,29.852,0,0,1,29.859,0H48.232A29.851,29.851,0,0,1,78.087,29.859ZM67.6,32.328A21.836,21.836,0,0,0,45.758,10.5H32.328A21.832,21.832,0,0,0,10.5,32.328V67.6H45.758A21.84,21.84,0,0,0,67.6,45.758Z" transform="translate(4843 -417.548)" fill="#eaeaea"/>
            <path id="Path_1028" data-name="Path 1028" d="M47.92,78.087A29.858,29.858,0,0,1,18.061,48.232V0H66.293A29.859,29.859,0,0,1,96.153,29.859V48.232A29.855,29.855,0,0,1,66.293,78.087Zm15.9-10.49A21.832,21.832,0,0,0,85.657,45.763V32.328A21.832,21.832,0,0,0,63.824,10.5H28.556V45.763A21.836,21.836,0,0,0,50.394,67.6Z" transform="translate(4914.478 -417.548)" fill="#eaeaea"/>
          </g>
        </g>
        <g transform="translate(-3840.604 1211.943)">
          <g id="Group_542" data-name="Group 542" transform="translate(334.419 -442.396)">
            <path id="Path_1029" data-name="Path 1029" d="M78.087,48.232A29.854,29.854,0,0,1,48.232,78.087H0V29.859A29.852,29.852,0,0,1,29.859,0H48.232A29.851,29.851,0,0,1,78.087,29.859ZM67.6,32.328A21.836,21.836,0,0,0,45.758,10.5H32.328A21.832,21.832,0,0,0,10.5,32.328V67.6H45.758A21.84,21.84,0,0,0,67.6,45.758Z" transform="translate(4843 -417.548)" fill="#eaeaea"/>
            <path id="Path_1030" data-name="Path 1030" d="M47.92,78.087A29.858,29.858,0,0,1,18.061,48.232V0H66.293A29.859,29.859,0,0,1,96.153,29.859V48.232A29.855,29.855,0,0,1,66.293,78.087Zm15.9-10.49A21.832,21.832,0,0,0,85.657,45.763V32.328A21.832,21.832,0,0,0,63.824,10.5H28.556V45.763A21.836,21.836,0,0,0,50.394,67.6Z" transform="translate(4914.478 -417.548)" fill="#eaeaea"/>
          </g>
          <g id="Group_543" data-name="Group 543" transform="translate(250.604 -351.396)">
            <path id="Path_1031" data-name="Path 1031" d="M78.087,48.232A29.854,29.854,0,0,1,48.232,78.087H0V29.859A29.852,29.852,0,0,1,29.859,0H48.232A29.851,29.851,0,0,1,78.087,29.859ZM67.6,32.328A21.836,21.836,0,0,0,45.758,10.5H32.328A21.832,21.832,0,0,0,10.5,32.328V67.6H45.758A21.84,21.84,0,0,0,67.6,45.758Z" transform="translate(4843 -417.548)" fill="#eaeaea"/>
            <path id="Path_1032" data-name="Path 1032" d="M47.92,78.087A29.858,29.858,0,0,1,18.061,48.232V0H66.293A29.859,29.859,0,0,1,96.153,29.859V48.232A29.855,29.855,0,0,1,66.293,78.087Zm15.9-10.49A21.832,21.832,0,0,0,85.657,45.763V32.328A21.832,21.832,0,0,0,63.824,10.5H28.556V45.763A21.836,21.836,0,0,0,50.394,67.6Z" transform="translate(4914.478 -417.548)" fill="#eaeaea"/>
          </g>
        </g>
        <g transform="translate(-3661.604 1211.943)">
          <g id="Group_544" data-name="Group 544" transform="translate(334.419 -442.396)">
            <path id="Path_1033" data-name="Path 1033" d="M78.087,48.232A29.854,29.854,0,0,1,48.232,78.087H0V29.859A29.852,29.852,0,0,1,29.859,0H48.232A29.851,29.851,0,0,1,78.087,29.859ZM67.6,32.328A21.836,21.836,0,0,0,45.758,10.5H32.328A21.832,21.832,0,0,0,10.5,32.328V67.6H45.758A21.84,21.84,0,0,0,67.6,45.758Z" transform="translate(4843 -417.548)" fill="#eaeaea"/>
            <path id="Path_1034" data-name="Path 1034" d="M47.92,78.087A29.858,29.858,0,0,1,18.061,48.232V0H66.293A29.859,29.859,0,0,1,96.153,29.859V48.232A29.855,29.855,0,0,1,66.293,78.087Zm15.9-10.49A21.832,21.832,0,0,0,85.657,45.763V32.328A21.832,21.832,0,0,0,63.824,10.5H28.556V45.763A21.836,21.836,0,0,0,50.394,67.6Z" transform="translate(4914.478 -417.548)" fill="#eaeaea"/>
          </g>
          <g id="Group_545" data-name="Group 545" transform="translate(250.604 -351.396)">
            <path id="Path_1035" data-name="Path 1035" d="M78.087,48.232A29.854,29.854,0,0,1,48.232,78.087H0V29.859A29.852,29.852,0,0,1,29.859,0H48.232A29.851,29.851,0,0,1,78.087,29.859ZM67.6,32.328A21.836,21.836,0,0,0,45.758,10.5H32.328A21.832,21.832,0,0,0,10.5,32.328V67.6H45.758A21.84,21.84,0,0,0,67.6,45.758Z" transform="translate(4843 -417.548)" fill="#eaeaea"/>
            <path id="Path_1036" data-name="Path 1036" d="M47.92,78.087A29.858,29.858,0,0,1,18.061,48.232V0H66.293A29.859,29.859,0,0,1,96.153,29.859V48.232A29.855,29.855,0,0,1,66.293,78.087Zm15.9-10.49A21.832,21.832,0,0,0,85.657,45.763V32.328A21.832,21.832,0,0,0,63.824,10.5H28.556V45.763A21.836,21.836,0,0,0,50.394,67.6Z" transform="translate(4914.478 -417.548)" fill="#eaeaea"/>
          </g>
        </g>
        <g transform="translate(-3482.604 1211.943)">
          <g id="Group_546" data-name="Group 546" transform="translate(334.419 -442.396)">
            <path id="Path_1037" data-name="Path 1037" d="M78.087,48.232A29.854,29.854,0,0,1,48.232,78.087H0V29.859A29.852,29.852,0,0,1,29.859,0H48.232A29.851,29.851,0,0,1,78.087,29.859ZM67.6,32.328A21.836,21.836,0,0,0,45.758,10.5H32.328A21.832,21.832,0,0,0,10.5,32.328V67.6H45.758A21.84,21.84,0,0,0,67.6,45.758Z" transform="translate(4843 -417.548)" fill="#eaeaea"/>
            <path id="Path_1038" data-name="Path 1038" d="M47.92,78.087A29.858,29.858,0,0,1,18.061,48.232V0H66.293A29.859,29.859,0,0,1,96.153,29.859V48.232A29.855,29.855,0,0,1,66.293,78.087Zm15.9-10.49A21.832,21.832,0,0,0,85.657,45.763V32.328A21.832,21.832,0,0,0,63.824,10.5H28.556V45.763A21.836,21.836,0,0,0,50.394,67.6Z" transform="translate(4914.478 -417.548)" fill="#eaeaea"/>
          </g>
          <g id="Group_547" data-name="Group 547" transform="translate(250.604 -351.396)">
            <path id="Path_1039" data-name="Path 1039" d="M78.087,48.232A29.854,29.854,0,0,1,48.232,78.087H0V29.859A29.852,29.852,0,0,1,29.859,0H48.232A29.851,29.851,0,0,1,78.087,29.859ZM67.6,32.328A21.836,21.836,0,0,0,45.758,10.5H32.328A21.832,21.832,0,0,0,10.5,32.328V67.6H45.758A21.84,21.84,0,0,0,67.6,45.758Z" transform="translate(4843 -417.548)" fill="#eaeaea"/>
            <path id="Path_1040" data-name="Path 1040" d="M47.92,78.087A29.858,29.858,0,0,1,18.061,48.232V0H66.293A29.859,29.859,0,0,1,96.153,29.859V48.232A29.855,29.855,0,0,1,66.293,78.087Zm15.9-10.49A21.832,21.832,0,0,0,85.657,45.763V32.328A21.832,21.832,0,0,0,63.824,10.5H28.556V45.763A21.836,21.836,0,0,0,50.394,67.6Z" transform="translate(4914.478 -417.548)" fill="#eaeaea"/>
          </g>
        </g>
        <g transform="translate(-3303.604 1211.943)">
          <g id="Group_548" data-name="Group 548" transform="translate(334.419 -442.396)">
            <path id="Path_1041" data-name="Path 1041" d="M78.087,48.232A29.854,29.854,0,0,1,48.232,78.087H0V29.859A29.852,29.852,0,0,1,29.859,0H48.232A29.851,29.851,0,0,1,78.087,29.859ZM67.6,32.328A21.836,21.836,0,0,0,45.758,10.5H32.328A21.832,21.832,0,0,0,10.5,32.328V67.6H45.758A21.84,21.84,0,0,0,67.6,45.758Z" transform="translate(4843 -417.548)" fill="#eaeaea"/>
            <path id="Path_1042" data-name="Path 1042" d="M47.92,78.087A29.858,29.858,0,0,1,18.061,48.232V0H66.293A29.859,29.859,0,0,1,96.153,29.859V48.232A29.855,29.855,0,0,1,66.293,78.087Zm15.9-10.49A21.832,21.832,0,0,0,85.657,45.763V32.328A21.832,21.832,0,0,0,63.824,10.5H28.556V45.763A21.836,21.836,0,0,0,50.394,67.6Z" transform="translate(4914.478 -417.548)" fill="#eaeaea"/>
          </g>
          <g id="Group_549" data-name="Group 549" transform="translate(250.604 -351.396)">
            <path id="Path_1043" data-name="Path 1043" d="M78.087,48.232A29.854,29.854,0,0,1,48.232,78.087H0V29.859A29.852,29.852,0,0,1,29.859,0H48.232A29.851,29.851,0,0,1,78.087,29.859ZM67.6,32.328A21.836,21.836,0,0,0,45.758,10.5H32.328A21.832,21.832,0,0,0,10.5,32.328V67.6H45.758A21.84,21.84,0,0,0,67.6,45.758Z" transform="translate(4843 -417.548)" fill="#eaeaea"/>
            <path id="Path_1044" data-name="Path 1044" d="M47.92,78.087A29.858,29.858,0,0,1,18.061,48.232V0H66.293A29.859,29.859,0,0,1,96.153,29.859V48.232A29.855,29.855,0,0,1,66.293,78.087Zm15.9-10.49A21.832,21.832,0,0,0,85.657,45.763V32.328A21.832,21.832,0,0,0,63.824,10.5H28.556V45.763A21.836,21.836,0,0,0,50.394,67.6Z" transform="translate(4914.478 -417.548)" fill="#eaeaea"/>
          </g>
        </g>
        <g transform="translate(-3124.604 1211.943)">
          <g id="Group_550" data-name="Group 550" transform="translate(334.419 -442.396)">
            <path id="Path_1045" data-name="Path 1045" d="M78.087,48.232A29.854,29.854,0,0,1,48.232,78.087H0V29.859A29.852,29.852,0,0,1,29.859,0H48.232A29.851,29.851,0,0,1,78.087,29.859ZM67.6,32.328A21.836,21.836,0,0,0,45.758,10.5H32.328A21.832,21.832,0,0,0,10.5,32.328V67.6H45.758A21.84,21.84,0,0,0,67.6,45.758Z" transform="translate(4843 -417.548)" fill="#eaeaea"/>
            <path id="Path_1046" data-name="Path 1046" d="M47.92,78.087A29.858,29.858,0,0,1,18.061,48.232V0H66.293A29.859,29.859,0,0,1,96.153,29.859V48.232A29.855,29.855,0,0,1,66.293,78.087Zm15.9-10.49A21.832,21.832,0,0,0,85.657,45.763V32.328A21.832,21.832,0,0,0,63.824,10.5H28.556V45.763A21.836,21.836,0,0,0,50.394,67.6Z" transform="translate(4914.478 -417.548)" fill="#eaeaea"/>
          </g>
          <g id="Group_551" data-name="Group 551" transform="translate(250.604 -351.396)">
            <path id="Path_1047" data-name="Path 1047" d="M78.087,48.232A29.854,29.854,0,0,1,48.232,78.087H0V29.859A29.852,29.852,0,0,1,29.859,0H48.232A29.851,29.851,0,0,1,78.087,29.859ZM67.6,32.328A21.836,21.836,0,0,0,45.758,10.5H32.328A21.832,21.832,0,0,0,10.5,32.328V67.6H45.758A21.84,21.84,0,0,0,67.6,45.758Z" transform="translate(4843 -417.548)" fill="#eaeaea"/>
            <path id="Path_1048" data-name="Path 1048" d="M47.92,78.087A29.858,29.858,0,0,1,18.061,48.232V0H66.293A29.859,29.859,0,0,1,96.153,29.859V48.232A29.855,29.855,0,0,1,66.293,78.087Zm15.9-10.49A21.832,21.832,0,0,0,85.657,45.763V32.328A21.832,21.832,0,0,0,63.824,10.5H28.556V45.763A21.836,21.836,0,0,0,50.394,67.6Z" transform="translate(4914.478 -417.548)" fill="#eaeaea"/>
          </g>
        </g>
        <g transform="translate(-5093.604 1387.943)">
          <g id="Group_552" data-name="Group 552" transform="translate(334.419 -442.396)">
            <path id="Path_1049" data-name="Path 1049" d="M78.087,48.232A29.854,29.854,0,0,1,48.232,78.087H0V29.859A29.852,29.852,0,0,1,29.859,0H48.232A29.851,29.851,0,0,1,78.087,29.859ZM67.6,32.328A21.836,21.836,0,0,0,45.758,10.5H32.328A21.832,21.832,0,0,0,10.5,32.328V67.6H45.758A21.84,21.84,0,0,0,67.6,45.758Z" transform="translate(4843 -417.548)" fill="#eaeaea"/>
            <path id="Path_1050" data-name="Path 1050" d="M47.92,78.087A29.858,29.858,0,0,1,18.061,48.232V0H66.293A29.859,29.859,0,0,1,96.153,29.859V48.232A29.855,29.855,0,0,1,66.293,78.087Zm15.9-10.49A21.832,21.832,0,0,0,85.657,45.763V32.328A21.832,21.832,0,0,0,63.824,10.5H28.556V45.763A21.836,21.836,0,0,0,50.394,67.6Z" transform="translate(4914.478 -417.548)" fill="#eaeaea"/>
          </g>
          <g id="Group_553" data-name="Group 553" transform="translate(250.604 -351.396)">
            <path id="Path_1051" data-name="Path 1051" d="M78.087,48.232A29.854,29.854,0,0,1,48.232,78.087H0V29.859A29.852,29.852,0,0,1,29.859,0H48.232A29.851,29.851,0,0,1,78.087,29.859ZM67.6,32.328A21.836,21.836,0,0,0,45.758,10.5H32.328A21.832,21.832,0,0,0,10.5,32.328V67.6H45.758A21.84,21.84,0,0,0,67.6,45.758Z" transform="translate(4843 -417.548)" fill="#eaeaea"/>
            <path id="Path_1052" data-name="Path 1052" d="M47.92,78.087A29.858,29.858,0,0,1,18.061,48.232V0H66.293A29.859,29.859,0,0,1,96.153,29.859V48.232A29.855,29.855,0,0,1,66.293,78.087Zm15.9-10.49A21.832,21.832,0,0,0,85.657,45.763V32.328A21.832,21.832,0,0,0,63.824,10.5H28.556V45.763A21.836,21.836,0,0,0,50.394,67.6Z" transform="translate(4914.478 -417.548)" fill="#eaeaea"/>
          </g>
        </g>
        <g transform="translate(-4914.604 1387.943)">
          <g id="Group_554" data-name="Group 554" transform="translate(334.419 -442.396)">
            <path id="Path_1053" data-name="Path 1053" d="M78.087,48.232A29.854,29.854,0,0,1,48.232,78.087H0V29.859A29.852,29.852,0,0,1,29.859,0H48.232A29.851,29.851,0,0,1,78.087,29.859ZM67.6,32.328A21.836,21.836,0,0,0,45.758,10.5H32.328A21.832,21.832,0,0,0,10.5,32.328V67.6H45.758A21.84,21.84,0,0,0,67.6,45.758Z" transform="translate(4843 -417.548)" fill="#eaeaea"/>
            <path id="Path_1054" data-name="Path 1054" d="M47.92,78.087A29.858,29.858,0,0,1,18.061,48.232V0H66.293A29.859,29.859,0,0,1,96.153,29.859V48.232A29.855,29.855,0,0,1,66.293,78.087Zm15.9-10.49A21.832,21.832,0,0,0,85.657,45.763V32.328A21.832,21.832,0,0,0,63.824,10.5H28.556V45.763A21.836,21.836,0,0,0,50.394,67.6Z" transform="translate(4914.478 -417.548)" fill="#eaeaea"/>
          </g>
          <g id="Group_555" data-name="Group 555" transform="translate(250.604 -351.396)">
            <path id="Path_1055" data-name="Path 1055" d="M78.087,48.232A29.854,29.854,0,0,1,48.232,78.087H0V29.859A29.852,29.852,0,0,1,29.859,0H48.232A29.851,29.851,0,0,1,78.087,29.859ZM67.6,32.328A21.836,21.836,0,0,0,45.758,10.5H32.328A21.832,21.832,0,0,0,10.5,32.328V67.6H45.758A21.84,21.84,0,0,0,67.6,45.758Z" transform="translate(4843 -417.548)" fill="#eaeaea"/>
            <path id="Path_1056" data-name="Path 1056" d="M47.92,78.087A29.858,29.858,0,0,1,18.061,48.232V0H66.293A29.859,29.859,0,0,1,96.153,29.859V48.232A29.855,29.855,0,0,1,66.293,78.087Zm15.9-10.49A21.832,21.832,0,0,0,85.657,45.763V32.328A21.832,21.832,0,0,0,63.824,10.5H28.556V45.763A21.836,21.836,0,0,0,50.394,67.6Z" transform="translate(4914.478 -417.548)" fill="#eaeaea"/>
          </g>
        </g>
        <g transform="translate(-4735.604 1387.943)">
          <g id="Group_556" data-name="Group 556" transform="translate(334.419 -442.396)">
            <path id="Path_1057" data-name="Path 1057" d="M78.087,48.232A29.854,29.854,0,0,1,48.232,78.087H0V29.859A29.852,29.852,0,0,1,29.859,0H48.232A29.851,29.851,0,0,1,78.087,29.859ZM67.6,32.328A21.836,21.836,0,0,0,45.758,10.5H32.328A21.832,21.832,0,0,0,10.5,32.328V67.6H45.758A21.84,21.84,0,0,0,67.6,45.758Z" transform="translate(4843 -417.548)" fill="#eaeaea"/>
            <path id="Path_1058" data-name="Path 1058" d="M47.92,78.087A29.858,29.858,0,0,1,18.061,48.232V0H66.293A29.859,29.859,0,0,1,96.153,29.859V48.232A29.855,29.855,0,0,1,66.293,78.087Zm15.9-10.49A21.832,21.832,0,0,0,85.657,45.763V32.328A21.832,21.832,0,0,0,63.824,10.5H28.556V45.763A21.836,21.836,0,0,0,50.394,67.6Z" transform="translate(4914.478 -417.548)" fill="#eaeaea"/>
          </g>
          <g id="Group_557" data-name="Group 557" transform="translate(250.604 -351.396)">
            <path id="Path_1059" data-name="Path 1059" d="M78.087,48.232A29.854,29.854,0,0,1,48.232,78.087H0V29.859A29.852,29.852,0,0,1,29.859,0H48.232A29.851,29.851,0,0,1,78.087,29.859ZM67.6,32.328A21.836,21.836,0,0,0,45.758,10.5H32.328A21.832,21.832,0,0,0,10.5,32.328V67.6H45.758A21.84,21.84,0,0,0,67.6,45.758Z" transform="translate(4843 -417.548)" fill="#eaeaea"/>
            <path id="Path_1060" data-name="Path 1060" d="M47.92,78.087A29.858,29.858,0,0,1,18.061,48.232V0H66.293A29.859,29.859,0,0,1,96.153,29.859V48.232A29.855,29.855,0,0,1,66.293,78.087Zm15.9-10.49A21.832,21.832,0,0,0,85.657,45.763V32.328A21.832,21.832,0,0,0,63.824,10.5H28.556V45.763A21.836,21.836,0,0,0,50.394,67.6Z" transform="translate(4914.478 -417.548)" fill="#eaeaea"/>
          </g>
        </g>
        <g transform="translate(-4556.604 1387.943)">
          <g id="Group_558" data-name="Group 558" transform="translate(334.419 -442.396)">
            <path id="Path_1061" data-name="Path 1061" d="M78.087,48.232A29.854,29.854,0,0,1,48.232,78.087H0V29.859A29.852,29.852,0,0,1,29.859,0H48.232A29.851,29.851,0,0,1,78.087,29.859ZM67.6,32.328A21.836,21.836,0,0,0,45.758,10.5H32.328A21.832,21.832,0,0,0,10.5,32.328V67.6H45.758A21.84,21.84,0,0,0,67.6,45.758Z" transform="translate(4843 -417.548)" fill="#eaeaea"/>
            <path id="Path_1062" data-name="Path 1062" d="M47.92,78.087A29.858,29.858,0,0,1,18.061,48.232V0H66.293A29.859,29.859,0,0,1,96.153,29.859V48.232A29.855,29.855,0,0,1,66.293,78.087Zm15.9-10.49A21.832,21.832,0,0,0,85.657,45.763V32.328A21.832,21.832,0,0,0,63.824,10.5H28.556V45.763A21.836,21.836,0,0,0,50.394,67.6Z" transform="translate(4914.478 -417.548)" fill="#eaeaea"/>
          </g>
          <g id="Group_559" data-name="Group 559" transform="translate(250.604 -351.396)">
            <path id="Path_1063" data-name="Path 1063" d="M78.087,48.232A29.854,29.854,0,0,1,48.232,78.087H0V29.859A29.852,29.852,0,0,1,29.859,0H48.232A29.851,29.851,0,0,1,78.087,29.859ZM67.6,32.328A21.836,21.836,0,0,0,45.758,10.5H32.328A21.832,21.832,0,0,0,10.5,32.328V67.6H45.758A21.84,21.84,0,0,0,67.6,45.758Z" transform="translate(4843 -417.548)" fill="#eaeaea"/>
            <path id="Path_1064" data-name="Path 1064" d="M47.92,78.087A29.858,29.858,0,0,1,18.061,48.232V0H66.293A29.859,29.859,0,0,1,96.153,29.859V48.232A29.855,29.855,0,0,1,66.293,78.087Zm15.9-10.49A21.832,21.832,0,0,0,85.657,45.763V32.328A21.832,21.832,0,0,0,63.824,10.5H28.556V45.763A21.836,21.836,0,0,0,50.394,67.6Z" transform="translate(4914.478 -417.548)" fill="#eaeaea"/>
          </g>
        </g>
        <g transform="translate(-4377.604 1387.943)">
          <g id="Group_560" data-name="Group 560" transform="translate(334.419 -442.396)">
            <path id="Path_1065" data-name="Path 1065" d="M78.087,48.232A29.854,29.854,0,0,1,48.232,78.087H0V29.859A29.852,29.852,0,0,1,29.859,0H48.232A29.851,29.851,0,0,1,78.087,29.859ZM67.6,32.328A21.836,21.836,0,0,0,45.758,10.5H32.328A21.832,21.832,0,0,0,10.5,32.328V67.6H45.758A21.84,21.84,0,0,0,67.6,45.758Z" transform="translate(4843 -417.548)" fill="#eaeaea"/>
            <path id="Path_1066" data-name="Path 1066" d="M47.92,78.087A29.858,29.858,0,0,1,18.061,48.232V0H66.293A29.859,29.859,0,0,1,96.153,29.859V48.232A29.855,29.855,0,0,1,66.293,78.087Zm15.9-10.49A21.832,21.832,0,0,0,85.657,45.763V32.328A21.832,21.832,0,0,0,63.824,10.5H28.556V45.763A21.836,21.836,0,0,0,50.394,67.6Z" transform="translate(4914.478 -417.548)" fill="#eaeaea"/>
          </g>
          <g id="Group_561" data-name="Group 561" transform="translate(250.604 -351.396)">
            <path id="Path_1067" data-name="Path 1067" d="M78.087,48.232A29.854,29.854,0,0,1,48.232,78.087H0V29.859A29.852,29.852,0,0,1,29.859,0H48.232A29.851,29.851,0,0,1,78.087,29.859ZM67.6,32.328A21.836,21.836,0,0,0,45.758,10.5H32.328A21.832,21.832,0,0,0,10.5,32.328V67.6H45.758A21.84,21.84,0,0,0,67.6,45.758Z" transform="translate(4843 -417.548)" fill="#eaeaea"/>
            <path id="Path_1068" data-name="Path 1068" d="M47.92,78.087A29.858,29.858,0,0,1,18.061,48.232V0H66.293A29.859,29.859,0,0,1,96.153,29.859V48.232A29.855,29.855,0,0,1,66.293,78.087Zm15.9-10.49A21.832,21.832,0,0,0,85.657,45.763V32.328A21.832,21.832,0,0,0,63.824,10.5H28.556V45.763A21.836,21.836,0,0,0,50.394,67.6Z" transform="translate(4914.478 -417.548)" fill="#eaeaea"/>
          </g>
        </g>
        <g transform="translate(-4198.604 1387.943)">
          <g id="Group_562" data-name="Group 562" transform="translate(334.419 -442.396)">
            <path id="Path_1069" data-name="Path 1069" d="M78.087,48.232A29.854,29.854,0,0,1,48.232,78.087H0V29.859A29.852,29.852,0,0,1,29.859,0H48.232A29.851,29.851,0,0,1,78.087,29.859ZM67.6,32.328A21.836,21.836,0,0,0,45.758,10.5H32.328A21.832,21.832,0,0,0,10.5,32.328V67.6H45.758A21.84,21.84,0,0,0,67.6,45.758Z" transform="translate(4843 -417.548)" fill="#eaeaea"/>
            <path id="Path_1070" data-name="Path 1070" d="M47.92,78.087A29.858,29.858,0,0,1,18.061,48.232V0H66.293A29.859,29.859,0,0,1,96.153,29.859V48.232A29.855,29.855,0,0,1,66.293,78.087Zm15.9-10.49A21.832,21.832,0,0,0,85.657,45.763V32.328A21.832,21.832,0,0,0,63.824,10.5H28.556V45.763A21.836,21.836,0,0,0,50.394,67.6Z" transform="translate(4914.478 -417.548)" fill="#eaeaea"/>
          </g>
          <g id="Group_563" data-name="Group 563" transform="translate(250.604 -351.396)">
            <path id="Path_1071" data-name="Path 1071" d="M78.087,48.232A29.854,29.854,0,0,1,48.232,78.087H0V29.859A29.852,29.852,0,0,1,29.859,0H48.232A29.851,29.851,0,0,1,78.087,29.859ZM67.6,32.328A21.836,21.836,0,0,0,45.758,10.5H32.328A21.832,21.832,0,0,0,10.5,32.328V67.6H45.758A21.84,21.84,0,0,0,67.6,45.758Z" transform="translate(4843 -417.548)" fill="#eaeaea"/>
            <path id="Path_1072" data-name="Path 1072" d="M47.92,78.087A29.858,29.858,0,0,1,18.061,48.232V0H66.293A29.859,29.859,0,0,1,96.153,29.859V48.232A29.855,29.855,0,0,1,66.293,78.087Zm15.9-10.49A21.832,21.832,0,0,0,85.657,45.763V32.328A21.832,21.832,0,0,0,63.824,10.5H28.556V45.763A21.836,21.836,0,0,0,50.394,67.6Z" transform="translate(4914.478 -417.548)" fill="#eaeaea"/>
          </g>
        </g>
        <g transform="translate(-4019.604 1387.943)">
          <g id="Group_564" data-name="Group 564" transform="translate(334.419 -442.396)">
            <path id="Path_1073" data-name="Path 1073" d="M78.087,48.232A29.854,29.854,0,0,1,48.232,78.087H0V29.859A29.852,29.852,0,0,1,29.859,0H48.232A29.851,29.851,0,0,1,78.087,29.859ZM67.6,32.328A21.836,21.836,0,0,0,45.758,10.5H32.328A21.832,21.832,0,0,0,10.5,32.328V67.6H45.758A21.84,21.84,0,0,0,67.6,45.758Z" transform="translate(4843 -417.548)" fill="#eaeaea"/>
            <path id="Path_1074" data-name="Path 1074" d="M47.92,78.087A29.858,29.858,0,0,1,18.061,48.232V0H66.293A29.859,29.859,0,0,1,96.153,29.859V48.232A29.855,29.855,0,0,1,66.293,78.087Zm15.9-10.49A21.832,21.832,0,0,0,85.657,45.763V32.328A21.832,21.832,0,0,0,63.824,10.5H28.556V45.763A21.836,21.836,0,0,0,50.394,67.6Z" transform="translate(4914.478 -417.548)" fill="#eaeaea"/>
          </g>
          <g id="Group_565" data-name="Group 565" transform="translate(250.604 -351.396)">
            <path id="Path_1075" data-name="Path 1075" d="M78.087,48.232A29.854,29.854,0,0,1,48.232,78.087H0V29.859A29.852,29.852,0,0,1,29.859,0H48.232A29.851,29.851,0,0,1,78.087,29.859ZM67.6,32.328A21.836,21.836,0,0,0,45.758,10.5H32.328A21.832,21.832,0,0,0,10.5,32.328V67.6H45.758A21.84,21.84,0,0,0,67.6,45.758Z" transform="translate(4843 -417.548)" fill="#eaeaea"/>
            <path id="Path_1076" data-name="Path 1076" d="M47.92,78.087A29.858,29.858,0,0,1,18.061,48.232V0H66.293A29.859,29.859,0,0,1,96.153,29.859V48.232A29.855,29.855,0,0,1,66.293,78.087Zm15.9-10.49A21.832,21.832,0,0,0,85.657,45.763V32.328A21.832,21.832,0,0,0,63.824,10.5H28.556V45.763A21.836,21.836,0,0,0,50.394,67.6Z" transform="translate(4914.478 -417.548)" fill="#eaeaea"/>
          </g>
        </g>
        <g transform="translate(-3840.604 1387.943)">
          <g id="Group_566" data-name="Group 566" transform="translate(334.419 -442.396)">
            <path id="Path_1077" data-name="Path 1077" d="M78.087,48.232A29.854,29.854,0,0,1,48.232,78.087H0V29.859A29.852,29.852,0,0,1,29.859,0H48.232A29.851,29.851,0,0,1,78.087,29.859ZM67.6,32.328A21.836,21.836,0,0,0,45.758,10.5H32.328A21.832,21.832,0,0,0,10.5,32.328V67.6H45.758A21.84,21.84,0,0,0,67.6,45.758Z" transform="translate(4843 -417.548)" fill="#eaeaea"/>
            <path id="Path_1078" data-name="Path 1078" d="M47.92,78.087A29.858,29.858,0,0,1,18.061,48.232V0H66.293A29.859,29.859,0,0,1,96.153,29.859V48.232A29.855,29.855,0,0,1,66.293,78.087Zm15.9-10.49A21.832,21.832,0,0,0,85.657,45.763V32.328A21.832,21.832,0,0,0,63.824,10.5H28.556V45.763A21.836,21.836,0,0,0,50.394,67.6Z" transform="translate(4914.478 -417.548)" fill="#eaeaea"/>
          </g>
          <g id="Group_567" data-name="Group 567" transform="translate(250.604 -351.396)">
            <path id="Path_1079" data-name="Path 1079" d="M78.087,48.232A29.854,29.854,0,0,1,48.232,78.087H0V29.859A29.852,29.852,0,0,1,29.859,0H48.232A29.851,29.851,0,0,1,78.087,29.859ZM67.6,32.328A21.836,21.836,0,0,0,45.758,10.5H32.328A21.832,21.832,0,0,0,10.5,32.328V67.6H45.758A21.84,21.84,0,0,0,67.6,45.758Z" transform="translate(4843 -417.548)" fill="#eaeaea"/>
            <path id="Path_1080" data-name="Path 1080" d="M47.92,78.087A29.858,29.858,0,0,1,18.061,48.232V0H66.293A29.859,29.859,0,0,1,96.153,29.859V48.232A29.855,29.855,0,0,1,66.293,78.087Zm15.9-10.49A21.832,21.832,0,0,0,85.657,45.763V32.328A21.832,21.832,0,0,0,63.824,10.5H28.556V45.763A21.836,21.836,0,0,0,50.394,67.6Z" transform="translate(4914.478 -417.548)" fill="#eaeaea"/>
          </g>
        </g>
        <g transform="translate(-3661.604 1387.943)">
          <g id="Group_568" data-name="Group 568" transform="translate(334.419 -442.396)">
            <path id="Path_1081" data-name="Path 1081" d="M78.087,48.232A29.854,29.854,0,0,1,48.232,78.087H0V29.859A29.852,29.852,0,0,1,29.859,0H48.232A29.851,29.851,0,0,1,78.087,29.859ZM67.6,32.328A21.836,21.836,0,0,0,45.758,10.5H32.328A21.832,21.832,0,0,0,10.5,32.328V67.6H45.758A21.84,21.84,0,0,0,67.6,45.758Z" transform="translate(4843 -417.548)" fill="#eaeaea"/>
            <path id="Path_1082" data-name="Path 1082" d="M47.92,78.087A29.858,29.858,0,0,1,18.061,48.232V0H66.293A29.859,29.859,0,0,1,96.153,29.859V48.232A29.855,29.855,0,0,1,66.293,78.087Zm15.9-10.49A21.832,21.832,0,0,0,85.657,45.763V32.328A21.832,21.832,0,0,0,63.824,10.5H28.556V45.763A21.836,21.836,0,0,0,50.394,67.6Z" transform="translate(4914.478 -417.548)" fill="#eaeaea"/>
          </g>
          <g id="Group_569" data-name="Group 569" transform="translate(250.604 -351.396)">
            <path id="Path_1083" data-name="Path 1083" d="M78.087,48.232A29.854,29.854,0,0,1,48.232,78.087H0V29.859A29.852,29.852,0,0,1,29.859,0H48.232A29.851,29.851,0,0,1,78.087,29.859ZM67.6,32.328A21.836,21.836,0,0,0,45.758,10.5H32.328A21.832,21.832,0,0,0,10.5,32.328V67.6H45.758A21.84,21.84,0,0,0,67.6,45.758Z" transform="translate(4843 -417.548)" fill="#eaeaea"/>
            <path id="Path_1084" data-name="Path 1084" d="M47.92,78.087A29.858,29.858,0,0,1,18.061,48.232V0H66.293A29.859,29.859,0,0,1,96.153,29.859V48.232A29.855,29.855,0,0,1,66.293,78.087Zm15.9-10.49A21.832,21.832,0,0,0,85.657,45.763V32.328A21.832,21.832,0,0,0,63.824,10.5H28.556V45.763A21.836,21.836,0,0,0,50.394,67.6Z" transform="translate(4914.478 -417.548)" fill="#eaeaea"/>
          </g>
        </g>
        <g transform="translate(-3482.604 1387.943)">
          <g id="Group_570" data-name="Group 570" transform="translate(334.419 -442.396)">
            <path id="Path_1085" data-name="Path 1085" d="M78.087,48.232A29.854,29.854,0,0,1,48.232,78.087H0V29.859A29.852,29.852,0,0,1,29.859,0H48.232A29.851,29.851,0,0,1,78.087,29.859ZM67.6,32.328A21.836,21.836,0,0,0,45.758,10.5H32.328A21.832,21.832,0,0,0,10.5,32.328V67.6H45.758A21.84,21.84,0,0,0,67.6,45.758Z" transform="translate(4843 -417.548)" fill="#eaeaea"/>
            <path id="Path_1086" data-name="Path 1086" d="M47.92,78.087A29.858,29.858,0,0,1,18.061,48.232V0H66.293A29.859,29.859,0,0,1,96.153,29.859V48.232A29.855,29.855,0,0,1,66.293,78.087Zm15.9-10.49A21.832,21.832,0,0,0,85.657,45.763V32.328A21.832,21.832,0,0,0,63.824,10.5H28.556V45.763A21.836,21.836,0,0,0,50.394,67.6Z" transform="translate(4914.478 -417.548)" fill="#eaeaea"/>
          </g>
          <g id="Group_571" data-name="Group 571" transform="translate(250.604 -351.396)">
            <path id="Path_1087" data-name="Path 1087" d="M78.087,48.232A29.854,29.854,0,0,1,48.232,78.087H0V29.859A29.852,29.852,0,0,1,29.859,0H48.232A29.851,29.851,0,0,1,78.087,29.859ZM67.6,32.328A21.836,21.836,0,0,0,45.758,10.5H32.328A21.832,21.832,0,0,0,10.5,32.328V67.6H45.758A21.84,21.84,0,0,0,67.6,45.758Z" transform="translate(4843 -417.548)" fill="#eaeaea"/>
            <path id="Path_1088" data-name="Path 1088" d="M47.92,78.087A29.858,29.858,0,0,1,18.061,48.232V0H66.293A29.859,29.859,0,0,1,96.153,29.859V48.232A29.855,29.855,0,0,1,66.293,78.087Zm15.9-10.49A21.832,21.832,0,0,0,85.657,45.763V32.328A21.832,21.832,0,0,0,63.824,10.5H28.556V45.763A21.836,21.836,0,0,0,50.394,67.6Z" transform="translate(4914.478 -417.548)" fill="#eaeaea"/>
          </g>
        </g>
        <g transform="translate(-3303.604 1387.943)">
          <g id="Group_572" data-name="Group 572" transform="translate(334.419 -442.396)">
            <path id="Path_1089" data-name="Path 1089" d="M78.087,48.232A29.854,29.854,0,0,1,48.232,78.087H0V29.859A29.852,29.852,0,0,1,29.859,0H48.232A29.851,29.851,0,0,1,78.087,29.859ZM67.6,32.328A21.836,21.836,0,0,0,45.758,10.5H32.328A21.832,21.832,0,0,0,10.5,32.328V67.6H45.758A21.84,21.84,0,0,0,67.6,45.758Z" transform="translate(4843 -417.548)" fill="#eaeaea"/>
            <path id="Path_1090" data-name="Path 1090" d="M47.92,78.087A29.858,29.858,0,0,1,18.061,48.232V0H66.293A29.859,29.859,0,0,1,96.153,29.859V48.232A29.855,29.855,0,0,1,66.293,78.087Zm15.9-10.49A21.832,21.832,0,0,0,85.657,45.763V32.328A21.832,21.832,0,0,0,63.824,10.5H28.556V45.763A21.836,21.836,0,0,0,50.394,67.6Z" transform="translate(4914.478 -417.548)" fill="#eaeaea"/>
          </g>
          <g id="Group_573" data-name="Group 573" transform="translate(250.604 -351.396)">
            <path id="Path_1091" data-name="Path 1091" d="M78.087,48.232A29.854,29.854,0,0,1,48.232,78.087H0V29.859A29.852,29.852,0,0,1,29.859,0H48.232A29.851,29.851,0,0,1,78.087,29.859ZM67.6,32.328A21.836,21.836,0,0,0,45.758,10.5H32.328A21.832,21.832,0,0,0,10.5,32.328V67.6H45.758A21.84,21.84,0,0,0,67.6,45.758Z" transform="translate(4843 -417.548)" fill="#eaeaea"/>
            <path id="Path_1092" data-name="Path 1092" d="M47.92,78.087A29.858,29.858,0,0,1,18.061,48.232V0H66.293A29.859,29.859,0,0,1,96.153,29.859V48.232A29.855,29.855,0,0,1,66.293,78.087Zm15.9-10.49A21.832,21.832,0,0,0,85.657,45.763V32.328A21.832,21.832,0,0,0,63.824,10.5H28.556V45.763A21.836,21.836,0,0,0,50.394,67.6Z" transform="translate(4914.478 -417.548)" fill="#eaeaea"/>
          </g>
        </g>
        <g transform="translate(-3124.604 1387.943)">
          <g id="Group_574" data-name="Group 574" transform="translate(334.419 -442.396)">
            <path id="Path_1093" data-name="Path 1093" d="M78.087,48.232A29.854,29.854,0,0,1,48.232,78.087H0V29.859A29.852,29.852,0,0,1,29.859,0H48.232A29.851,29.851,0,0,1,78.087,29.859ZM67.6,32.328A21.836,21.836,0,0,0,45.758,10.5H32.328A21.832,21.832,0,0,0,10.5,32.328V67.6H45.758A21.84,21.84,0,0,0,67.6,45.758Z" transform="translate(4843 -417.548)" fill="#eaeaea"/>
            <path id="Path_1094" data-name="Path 1094" d="M47.92,78.087A29.858,29.858,0,0,1,18.061,48.232V0H66.293A29.859,29.859,0,0,1,96.153,29.859V48.232A29.855,29.855,0,0,1,66.293,78.087Zm15.9-10.49A21.832,21.832,0,0,0,85.657,45.763V32.328A21.832,21.832,0,0,0,63.824,10.5H28.556V45.763A21.836,21.836,0,0,0,50.394,67.6Z" transform="translate(4914.478 -417.548)" fill="#eaeaea"/>
          </g>
          <g id="Group_575" data-name="Group 575" transform="translate(250.604 -351.396)">
            <path id="Path_1095" data-name="Path 1095" d="M78.087,48.232A29.854,29.854,0,0,1,48.232,78.087H0V29.859A29.852,29.852,0,0,1,29.859,0H48.232A29.851,29.851,0,0,1,78.087,29.859ZM67.6,32.328A21.836,21.836,0,0,0,45.758,10.5H32.328A21.832,21.832,0,0,0,10.5,32.328V67.6H45.758A21.84,21.84,0,0,0,67.6,45.758Z" transform="translate(4843 -417.548)" fill="#eaeaea"/>
            <path id="Path_1096" data-name="Path 1096" d="M47.92,78.087A29.858,29.858,0,0,1,18.061,48.232V0H66.293A29.859,29.859,0,0,1,96.153,29.859V48.232A29.855,29.855,0,0,1,66.293,78.087Zm15.9-10.49A21.832,21.832,0,0,0,85.657,45.763V32.328A21.832,21.832,0,0,0,63.824,10.5H28.556V45.763A21.836,21.836,0,0,0,50.394,67.6Z" transform="translate(4914.478 -417.548)" fill="#eaeaea"/>
          </g>
        </g>
      </g>
    </g>
    <g id="Group_479" data-name="Group 479" transform="translate(4608 -697.353)">
      <path id="Path_1100" data-name="Path 1100" d="M12.76-25.6a9.92,9.92,0,0,1,6.5,2.02,10.24,10.24,0,0,1,3.38,5.26l-3.4.68a7.979,7.979,0,0,0-2.5-3.74,6.125,6.125,0,0,0-3.98-1.38,6.407,6.407,0,0,0-5.24,2.64q-2.08,2.64-2.08,7.34A13.577,13.577,0,0,0,7.3-5.24,6.114,6.114,0,0,0,12.76-2.4,6.786,6.786,0,0,0,17.5-3.98a5.375,5.375,0,0,0,1.74-4.18h3.4a7.853,7.853,0,0,1-2.7,6.28A10.984,10.984,0,0,1,12.54.44a9.29,9.29,0,0,1-7.6-3.6q-2.9-3.6-2.9-9.64t3-9.42A9.851,9.851,0,0,1,12.76-25.6Zm24.68,0a10.148,10.148,0,0,1,7.9,3.34q3.02,3.34,3.02,9.72t-3,9.68A10.191,10.191,0,0,1,37.44.44a10.071,10.071,0,0,1-7.9-3.34q-2.98-3.34-2.98-9.66,0-6.36,2.98-9.7A10.071,10.071,0,0,1,37.44-25.6Zm0,2.84a6.649,6.649,0,0,0-5.56,2.64q-2.04,2.64-2.04,7.6T31.88-5a6.728,6.728,0,0,0,5.56,2.56A6.784,6.784,0,0,0,43.02-5q2.06-2.56,2.06-7.52t-2.06-7.6A6.7,6.7,0,0,0,37.44-22.76Zm20.64-2.4L70.56-4.96v-20.2h3.16V0H70.2L57.52-20.48V0h-3.2V-25.16Zm19.92,0H97.56v2.72h-8.2V0H86.2V-22.44H78Zm27.88,0h3.84L118.16,0h-3.28l-2.16-6.4h-10L100.56,0H97.24ZM103.56-8.88h8.36l-4.16-12.4Zm28.4-16.72a9.92,9.92,0,0,1,6.5,2.02,10.24,10.24,0,0,1,3.38,5.26l-3.4.68a7.979,7.979,0,0,0-2.5-3.74,6.125,6.125,0,0,0-3.98-1.38,6.407,6.407,0,0,0-5.24,2.64q-2.08,2.64-2.08,7.34a13.577,13.577,0,0,0,1.86,7.54,6.114,6.114,0,0,0,5.46,2.84,6.786,6.786,0,0,0,4.74-1.58,5.375,5.375,0,0,0,1.74-4.18h3.4a7.853,7.853,0,0,1-2.7,6.28,10.984,10.984,0,0,1-7.4,2.32,9.29,9.29,0,0,1-7.6-3.6q-2.9-3.6-2.9-9.64t3-9.42A9.851,9.851,0,0,1,131.96-25.6Zm12,.44h19.56v2.72h-8.2V0h-3.16V-22.44h-8.2Zm37.36-.8V-9.8q0,3.2,1.62,4.6a6.164,6.164,0,0,0,4.18,1.4,6.164,6.164,0,0,0,4.18-1.4q1.62-1.4,1.62-4.6V-25.96h4.72V-9.8q0,4.96-2.76,7.66T187.12.56q-5,0-7.76-2.7T176.6-9.8V-25.96Zm36.92,7.16q-.64-3.4-4.8-3.4a5.368,5.368,0,0,0-3.18.82,2.392,2.392,0,0,0-1.14,1.98,2.313,2.313,0,0,0,.74,1.82,7.111,7.111,0,0,0,2.3,1.22l5.64,2.2a11.638,11.638,0,0,1,4.44,2.82,6.06,6.06,0,0,1,1.56,4.26,6.7,6.7,0,0,1-2.64,5.58Q218.52.56,213.64.56a10.95,10.95,0,0,1-7-2.12,8.231,8.231,0,0,1-3.16-6.56h4.68a3.871,3.871,0,0,0,3.32,4.04,10.1,10.1,0,0,0,2.64.28,5.91,5.91,0,0,0,3.04-.82,2.474,2.474,0,0,0,1.4-2.2,2.824,2.824,0,0,0-.76-2.12,7.2,7.2,0,0,0-2.48-1.38l-5.16-2.04a13.526,13.526,0,0,1-4.6-2.72,5.755,5.755,0,0,1-1.6-4.32,6.047,6.047,0,0,1,2.52-5.12,11.145,11.145,0,0,1,6.94-1.96q4.38,0,6.76,2.02a8.134,8.134,0,0,1,2.74,5.66Z" transform="translate(847.08 520.647)" fill="#fff"/>
      <g id="Group_258" data-name="Group 258" transform="translate(-4163.143 772.901)">
        <path id="Path_455" data-name="Path 455" d="M64.041,39.557A24.484,24.484,0,0,1,39.557,64.041H0V24.489A24.483,24.483,0,0,1,24.489,0H39.557A24.482,24.482,0,0,1,64.041,24.489Zm-8.6-13.043A17.908,17.908,0,0,0,37.528,8.607H26.513A17.9,17.9,0,0,0,8.607,26.513V55.438h28.92a17.912,17.912,0,0,0,17.91-17.91Z" transform="translate(5054.403 -381.548)" fill="#fff"/>
        <path id="Path_456" data-name="Path 456" d="M42.55,64.041A24.487,24.487,0,0,1,18.061,39.557V0H57.618A24.488,24.488,0,0,1,82.106,24.489V39.557A24.485,24.485,0,0,1,57.618,64.041Zm13.043-8.6A17.9,17.9,0,0,0,73.5,37.532V26.513A17.9,17.9,0,0,0,55.593,8.607H26.668V37.532a17.908,17.908,0,0,0,17.91,17.906Z" transform="translate(5109.775 -381.548)" fill="#fff"/>
      </g>
    </g>
  </g>
</svg>
