<?xml version="1.0" encoding="UTF-8"?>
<svg xmlns="http://www.w3.org/2000/svg" xmlns:xlink="http://www.w3.org/1999/xlink" viewBox="0 0 150 150">
  <defs>
    <style>
      .cls-1 {
        fill: url(#DEGRADE_02);
      }

      .cls-1, .cls-2, .cls-3, .cls-4, .cls-5, .cls-6, .cls-7, .cls-8, .cls-9, .cls-10 {
        stroke-width: 0px;
      }

      .cls-2 {
        fill: url(#DEGRADE_01);
      }

      .cls-11 {
        mix-blend-mode: darken;
      }

      .cls-12 {
        isolation: isolate;
      }

      .cls-3 {
        fill: #62bb46;
      }

      .cls-4 {
        fill: #231f20;
      }

      .cls-5 {
        fill: #b2d235;
      }

      .cls-6 {
        fill: #89c98a;
      }

      .cls-7 {
        fill: #00a651;
      }

      .cls-8 {
        fill: #fff;
      }

      .cls-9 {
        fill: #ed1c24;
      }

      .cls-10 {
        fill: #00ae4d;
      }
    </style>
    <linearGradient id="DEGRADE_01" x1="60.33" y1="-38.57" x2="95.37" y2="-38.57" gradientTransform="translate(12.01 111.93) rotate(-10.26)" gradientUnits="userSpaceOnUse">
      <stop offset="0" stop-color="#cbdb2a"/>
      <stop offset="1" stop-color="#00a651"/>
    </linearGradient>
    <linearGradient id="DEGRADE_02" x1="46.27" y1="49.86" x2="99.87" y2="49.86" gradientUnits="userSpaceOnUse">
      <stop offset="0" stop-color="#cbdb2a"/>
      <stop offset=".83" stop-color="#00a651"/>
    </linearGradient>
  </defs>
  <g class="cls-12">
    <g id="Layer_1" data-name="Layer 1">
      <g>
        <g class="cls-11">
          <path class="cls-6" d="M81.38,126.87c.78-.04,1.01-1.2.19-1.41-.92-.23-1.66-.28-2.45-.19-4.67-.2-9.81.33-14.43-.51,2.79-.22,5.56-.59,8.3-1.14,2.68.23,5.36.34,8.07.22.68.06,1.37.11,2.05.18.54.05.8-.34.8-.76.43-.58.29-1.5-.59-1.83-1.49-.55-3-1.06-4.51-1.54,1.44.11,2.88.23,4.32.34.35.03.62-.1.81-.3,3.27.49,6.54.98,9.81,1.54,1.47.25,2.08-1.78.62-2.26-2.03-.68-4.07-1.29-6.12-1.85.74-.43.66-1.85-.31-2.17-.45-.15-.9-.28-1.35-.42,1.63.29,3.26.59,4.89.91,1.47.29,2.05-1.76.62-2.25-.42-.14-.84-.27-1.26-.41-.01,0-.02-.02-.03-.03,1.72.24,3.43.48,5.14.74,1.24.19,1.82-1.62.53-1.93-.39-.09-.78-.17-1.17-.26,2,.23,4,.46,6,.72,1.17.15,1.4-1.77.28-2.05-1.7-.42-3.41-.8-5.11-1.16-.12-.47-.47-.9-1.08-.97-.61-.07-1.22-.13-1.82-.2-.05-.42-.31-.79-.84-.88-.21-.04-.43-.07-.65-.1.68,0,1.36.02,2.05.02,1.34.02,1.6-1.97.32-2.33-.87-.24-1.75-.44-2.62-.65,4.38.3,8.76.65,13.14,1.05.6.06.95-.33,1.06-.8.53.03,1.06.06,1.59.1.87.05,1.19-.83.92-1.47.22.03.44.06.65.09,1.34.21,1.97-1.75.58-2.09-.45-.11-.89-.2-1.34-.3.82-.36.91-1.89-.14-2.04-.1-.01-.19-.02-.29-.04h0s-.01,0-.02,0c-3.7-.54-7.42-.96-11.13-1.29-.89-.14-1.78-.27-2.67-.38,3.29-.13,6.57-.25,9.86-.39.78-.03.79-1.24,0-1.22-1.73.04-3.46.08-5.2.12.11-.25.15-.54.05-.78.17,0,.34-.01.52-.02.87-.03,1.12-1.35.21-1.56-.1-.02-.2-.04-.3-.06.95-.29,1.1-1.91-.03-2.13-1.36-.26-2.72-.5-4.09-.73.81,0,1.62,0,2.43,0,1.15,0,1.39-1.34.75-1.97.89-.36.73-1.91-.43-2-2.14-.17-4.28-.31-6.42-.44-.05-.21-.14-.4-.29-.56.88-.54.78-2.07-.51-2.08-.48,0-.96.02-1.44.02-.05-.46-.33-.9-.81-1.05-.88-.27-1.77-.5-2.65-.7.98-.27,1.96-.55,2.94-.82,1.16-.32.98-2.32-.29-2.18-1.63.19-3.26.37-4.89.56.49-.26.69-.83.58-1.32,2.07-.24,4.09-.69,5.98-1.72.65-.36.52-1.43-.21-1.6-8.52-2.02-17.19-1.95-25.66.24-.95.25-.71,1.62.23,1.67,2.46.12,4.91.24,7.37.36.46.02,1.36-.02,2.37-.03-.97.06-1.95.12-2.92.18-5.96.02-11.88.55-17.76,1.62-.93.17-1,1.32-.46,1.88-1.24.43-2.28,1.13-2.81,2.32-.35.78.07,1.58.95,1.65,3.96.3,7.92.58,11.88.87.02.11.05.22.09.32-1.26.05-2.52.12-3.78.16-5.95.06-11.89.49-17.82,1.34h-.02c-.1.02-.21.03-.31.04-1.31.19-.97,2.3.31,2.28,1.62-.03,3.23-.04,4.85-.06-.08.02-.17.03-.25.05-.97.2-.83,1.56-.01,1.82-.51.21-1,.45-1.47.72-.68.1-1.36.2-2.05.31-.94.15-1.01,1.34-.51,1.94.78.93,1.73,1.42,2.79,1.7,1.56.77,3.19,1.34,4.87,1.78-.05.25,0,.51.14.72-.02.02-.04.03-.05.04-3.22.41-6.42.91-9.61,1.54-1.39.27-.88,2.14.31,2.27,5.91.68,11.81,1.36,17.72,2.04-5.89.12-11.78.3-17.67.56-1.49.07-1.51,2.31,0,2.33.41,0,.81.03,1.22.04-.08.34,0,.73.22,1.02-1.44.07-1.42,2.28.06,2.33,5.96.17,11.91.52,17.84,1.04.8.1,1.61.22,2.41.34.19.21.44.36.78.4,1.89.22,3.77.44,5.66.66,1.7.32,3.38.68,5.07,1.07-8.46-.8-16.94-1.38-25.43-1.75-1.56-.08-3.11-.15-4.66-.21-1.24-.04-1.44,1.5-.65,2.1-.32.67,0,1.67,1,1.74,1.35.09,2.7.23,4.04.33-.26.67.09,1.61,1.05,1.69,4.07.32,8.13.64,12.2.95-1.94-.05-3.88-.14-5.82-.3-.94-.08-1.34.96-1.04,1.69-.46,0-.92,0-1.38,0-.77.02-1.01,1.26-.19,1.4,4.42.73,8.92,1.14,13.44,1.47.45.07.91.13,1.36.2-2.56.23-5.13.37-7.73.4-.76,0-1.17,1.16-.41,1.51,2.79,1.33,5.64,1.57,8.69,1.69,4.31.16,8.71.5,13.02.29ZM75.56,74.92c-1.24-.07-2.48-.14-3.72-.2,4.93-.55,9.89-.39,14.82.5-2.09.56-4.3.63-6.48.76-1.17-1.17-2.96-.96-4.62-1.05ZM74.47,79.78s.08-.02.11-.03c1.02-.17,2.04-.34,3.06-.46,1.21-.08,2.41-.17,3.61-.26l-6.78.77s0,0,0-.01ZM54.21,82.05c1.29-.37,2.85-.42,3.76-.56,1.72-.27,3.44-.53,5.16-.8.36.09.72.18,1.07.27-1.02.12-2.05.22-3.07.35-.68.09-1.03.65-1.07,1.2-1.95-.15-3.9-.31-5.86-.46ZM52.55,93.93c-1.65-.12-4.01.07-5.99-.35,6.03-.89,12.08-1.54,18.14-1.97.43.14.86.28,1.3.4-.93.06-1.85.12-2.78.18-.73.05-1.09.59-1.07,1.13-1.8.08-3.6.22-5.4.45-.33.04-.58.2-.75.41-1.15-.09-2.3-.17-3.45-.26Z"/>
        </g>
        <g>
          <path class="cls-4" d="M59.86,80.55c-.41-.11-.92-.12-1.5-.07-.21.02-.39.03-.55.03h-.91c-.37,0-.75.01-1.14.03-.37.02-.72.03-1.05.03h-.67c-.44,0-.88-.02-1.32-.06-.46-.04-.9-.06-1.31-.06-.26,0-.53.03-.8.1-.5.13-.58.43-.58.61,0,.04,0,.14.06.73.04.39.09.84.15,1.35.06.51.12,1.03.18,1.55.06.51.09.93.09,1.25,0,.44-.01.83-.03,1.17-.02.34-.03.68-.03,1.02v5.91c0,.71.01,1.41.03,2.08.02.69.03,1.39.03,2.06,0,3.79-.04,7.76-.12,11.79-.08,4-.12,7.91-.12,11.62,0,.87.06,1.67.19,2.39.18,1.07.85,1.3,1.37,1.3h.25l.21-2.35v-.02c-.08-1.75-.14-3.38-.18-4.87-.04-1.48-.06-3.08-.06-4.74.04-1.61.06-3.19.06-4.7s.04-3.1.12-4.62l.05-.82c.07,0,.15-.01.25-.01h3.32c.48,0,.65-.04.74-.08.22-.09.33-.32.33-.69,0-.18-.01-.34-.03-.47-.03-.19-.19-.41-.73-.41-.58,0-1.14.03-1.68.09-.52.06-1.06.09-1.61.09h-.4c-.06,0-.12,0-.18-.01v-.56c0-3.09.02-6.21.06-9.26.04-2.99-.08-6.29-.34-9.81.18.02.35.02.52.02h.82c1.09,0,1.81-.04,2.19-.13.7-.15,1.6-.14,2.46-.03.45.06.95.13,1.52.21h.06s.06-.01.06-.01c.18-.06.35-.21.51-.45.16-.24.23-.41.23-.55,0-.33-.2-.57-.54-.66Z"/>
          <path class="cls-4" d="M73.14,124.26v-.31c-.33-1.42-.64-2.67-.92-3.7-.28-1.03-.6-2.18-.96-3.47v-.1c-.41-1.5-.77-2.82-1.07-3.96-.3-1.12-.63-2.47-1-4.02-.24-.98-.29-1.4-.29-1.58,0-.29.11-.33.19-.35.46-.18.88-.57,1.25-1.14.35-.54.66-1.2.91-1.95.25-.74.43-1.52.55-2.3.12-.78.19-1.52.19-2.18v-.36c.04-1.13.06-1.93.06-2.45v-1.71c-.04-1.66-.05-2.93-.03-3.8.02-.89-.03-1.72-.16-2.46l-.18-1.09c-.08-.58-.21-1.22-.38-1.92-.18-.7-.4-1.41-.67-2.11v-.02c-.35-.69-.78-1.22-1.28-1.59-.5-.37-1.24-.68-2.26-.93h-.03c-.67-.09-1.1-.13-1.31-.13h-.43c-.6,0-1.06-.02-1.37-.06-.34-.04-.72-.06-1.13-.06s-.89.26-.95,1.5l.06,4.34c.04.82.06,1.67.06,2.52v7.53c0,.84-.01,1.69-.03,2.52-.02.81-.03,1.66-.03,2.54v4.73c.12.95.16,2.04.12,3.22-.04,1.2-.02,2.29.06,3.22v.05c0,.59.01,1.17.03,1.72.02.57.03,1.16.03,1.76v8.84l.03.06c.11.23.41.28.69.31.27.02.56.03.84.03h.14l.08-.11c.12-.16.24-.47.24-1.63v-.45c-.08-.92-.11-1.84-.09-2.74.02-.91,0-1.93-.03-3.03l-.18-10.2c1.11.21,1.93.31,2.5.31.26,0,.47-.02.65-.05l1.62,6.6c.12.48.31,1.33.57,2.52.26,1.19.57,2.43.91,3.67.34,1.24.69,2.37,1.04,3.34.41,1.17.74,1.65,1.14,1.65.27,0,.66-.03.84-.31l.05-.07v-.33c0-.08,0-.19-.06-.28,0,0,0-.02,0-.03ZM63.82,84.63c-.04-.37-.06-.8-.06-1.28v-.67c.24-.18.62-.27,1.12-.27.38,0,.75.04,1.1.12.35.08.62.12.84.13l1.23.64c1,.48,1.69,2.17,2.04,5.03h0c.04.24.07.62.09,1.13.02.53.04,1.16.06,1.89.02.73.03,1.54.03,2.4v2.65c0,1.2-.05,2.38-.15,3.51-.1,1.11-.3,2.12-.6,2.98-.29.85-.7,1.53-1.21,2.02-.5.48-1.12.71-1.91.71h-.78c-.51-.05-.76-.11-.88-.16l-.8-.2v-3.75s-.12-5.36-.12-5.36c0-.6-.01-1.21-.03-1.81-.02-.56-.03-1.17-.03-1.79v-3.17c0-.58.01-1.16.03-1.73.02-.6.03-1.18.03-1.73.04-.46.04-.89,0-1.29Z"/>
          <path class="cls-4" d="M83.91,80.48l-.18-.09-.14.14c-.21.21-.29.22-.29.22-.08,0-.12,0-.13,0-.08-.04-.17-.05-.29-.05h-.7v.14c-.15.04-.38.08-.72.11-.44.04-1.19.06-2.23.06-.31,0-.65-.02-1.01-.06-.29-.03-.55-.09-.78-.18-.12-.35-.2-.54-.42-.54h-.21s-.06.2-.06.2c-.03.09-.05.22-.05.43v.04c-.04.24-.07.47-.09.7-.02.22-.03.43-.03.61s-.01.27-.02.3c-.03.1-.04.21-.04.31,0,.96,0,1.71.03,2.27.02.56.05,1.14.09,1.71v.07c.04.6.07,1.29.09,2.03.02.76.03,1.77.03,3.01v1.34c0,.55-.01,1.11-.03,1.63-.02.52-.05,1.07-.09,1.64-.04.78-.07,1.64-.09,2.57-.02.92-.03,2.06-.03,3.48v2.35c0,.88.02,1.82.06,2.78.04,1.17.07,2.36.09,3.53.02,1.2.03,2.37.03,3.47v4.51c0,1.36-.04,2.69-.12,3.96,0,.91.11,1.45.35,1.71.24.26.54.4.91.4h.24c.09,0,.17-.03.22-.06,0,0,.01,0,.02,0h1.16s.08,0,.32.1h.04c.24.07.43.1.58.1.09,0,.17-.01.24-.03l.15-.05c.2,0,.4-.01.58-.03.24-.02.52-.05.82-.1.18-.04.37-.06.55-.06h.9s1.21.08,1.21.08v-.36c0-.54-.15-.92-.45-1.14-.27-.2-.62-.3-1.04-.3-.29,0-.57.02-.83.06l-.1.02c-.21.04-.41.07-.62.1-.23.04-.45.07-.65.09-.54.06-1.12.03-1.71,0-.3-.01-.57-.05-.82-.1v-3.56c0-1.22-.01-2.01-.03-2.36-.02-.32-.03-.58-.03-.75l.06-5.12v-.73c0-.45-.01-.88-.03-1.29-.02-.39-.03-.79-.03-1.2v-4.18c0-.83.02-1.55.06-2.16v-.42c.24-.03.49-.05.74-.06.34-.02.67-.03.99-.03h.55c.14,0,.31.02.49.06h.97s.03,0,.03,0c.3-.03.8-.09.8-.46v-.17c-.11-.58-.47-.9-1.01-.9h-1.68c-.34,0-.69-.02-1.04-.06h-.03c-.2,0-.39-.01-.58-.03-.12-.01-.24-.02-.36-.03v-.34c0-2.9.01-5.75.03-8.47.02-2.87.03-5.72.03-8.47v-.36c.6-.07,1.07-.13,1.4-.19.34-.06.84-.09,1.46-.09.22,0,.47.02.75.06.27.04.51.08.71.12.22.04.47.07.75.07h.69c.74,0,.82-.4.82-.57v-.07c-.15-.55-.57-1-1.25-1.35Z"/>
          <path class="cls-4" d="M95.36,123.73c-.29,0-.56.01-.82.03-.25.02-.5.05-.76.1-.18.04-.39.06-.62.06h-.73c-.69,0-1.38-.02-2.06-.06-.6-.03-1.23-.09-1.87-.15v-.42c0-3.5-.01-7.06-.03-10.58-.02-3.39-.03-6.95-.03-10.57v-.4l1.61-.05c.22,0,.5-.01.84-.03.34-.02.69-.03,1.05-.03h2.44c.58,0,.96-.32,1.07-.9v-.17c0-.37-.51-.43-.86-.46h-.88c-.09,0-.25,0-.54.03-.25.02-.52.03-.8.03h-1.4c-.34,0-.76-.01-1.27-.03-.4-.02-.76-.04-1.07-.06v-5.1h.06l-.06-5.48v-6.86c.64-.09,1.3-.14,1.98-.14.19,0,.41,0,.65.03.23.02.45.05.65.09.25.04.5.07.75.09.25.02.51.03.82.03.37,0,.7-.08.97-.24.31-.19.47-.57.47-1.14v-.36l-1.19.08h-.91c-.19,0-.37-.02-.56-.06-.25-.04-.5-.07-.75-.09-.17-.01-.35-.02-.54-.03v-.06h-.28c-.07,0-.22.01-.79.13h-.03c-.06.03-.2.06-.46.06h-1.58c-.32,0-.6.13-.82.37-.15.16-.31.5-.31,1.69.04,1.25.07,2.58.09,3.96.02,1.41.03,2.93.03,4.51,0,1.03-.01,2.18-.03,3.5-.02,1.27-.05,2.45-.09,3.5-.04.98-.07,1.91-.09,2.78-.02.85-.03,1.64-.03,2.35,0,1.47,0,2.63.03,3.54.02.93.05,1.79.09,2.57.04.56.07,1.12.09,1.64.02.54.03,1.09.03,1.64v1.28c0,1.23-.01,2.25-.03,3.01-.02.75-.05,1.45-.09,2.11v.04c-.04.57-.06,1.14-.06,1.7v2.23c0,.27.05.82.15,1.67h-.03v.52h.06v.26l.41-.26h.08s0,.05-.03.08c.04-.05.06-.1.07-.16.26-.14.54-.23.83-.26.37-.04.76-.06,1.16-.06.93,0,1.74.02,2.39.06.65.04,1.21.1,1.64.18h.05c.06,0,.12.01.18.03.1.03.21.04.31.04h.18c.07,0,.14-.01.21-.04l.53.26.13-.07c.63-.36,1.04-.82,1.22-1.37v-.04s.01-.05.01-.05c0-.46-.62-.46-.83-.46Z"/>
        </g>
        <g>
          <path class="cls-8" d="M97.35,38.49c-2.06-4.64-5.49-8.53-9.78-11.17-4.18-2.69-9.15-4.26-14.5-4.26-14.8,0-26.8,12-26.8,26.8,0,2.23.27,4.39.79,6.46-.61,1.07-.53,2.03-.32,2.69.24.74.65,1.3,1.19,1.63-.41,1.43-.83,3.04-.98,4.04-.28,1.8-.08,3.17.6,4.08.44.59,1.05.95,1.78,1.05.23.03.45.05.67.05,1.63,0,2.65-.87,3.3-1.93,4.9,5.36,11.95,8.73,19.79,8.73,14.8,0,26.8-12,26.8-26.8,0-4.07-.91-7.92-2.53-11.37Z"/>
          <path class="cls-2" d="M82.32,65.07c-4.6,1.95-9.82,1.69-13.93.52-3.61-1.02-4.53,3.43-.34,4.46,5.19,1.27,10.83.85,16.01-1.67,8.21-3.99,13.05-12.13,13.24-20.67-1.8,7.16-6.98,13.96-14.98,17.36Z"/>
          <g>
            <path class="cls-5" d="M79.72,40.17s0,0,0,0h0s0,0,0,0M75.51,28.19c-.58,0-1.19.15-1.81.48-4.37,2.32-1.27,8.97,6.02,11.5,0-.03.02-.06.02-.09-.02.02-.05.04-.07.07,0,0,0,0,0,0h0s0,0,0,0c-3.22-4.02-3.32-8.73-1.07-10.18-.83-1.13-1.9-1.79-3.1-1.78"/>
            <path class="cls-3" d="M80.22,29.52c-.63,0-1.17.16-1.62.45,1.57,2.14,2.23,5.95,1.14,10.11,4.58-4.29,4.8-10.25.77-10.55-.1,0-.2-.01-.29-.01"/>
            <path class="cls-10" d="M79.67,40.15s0,0,0,0h0s0,0,0,0M78.61,29.97c-2.26,1.45-2.16,6.16,1.07,10.18.02-.02.05-.04.07-.07,1.1-4.16.43-7.98-1.14-10.11"/>
          </g>
          <path class="cls-1" d="M47.06,56.32c-.51-2.07-.79-4.23-.79-6.46,0-14.8,12-26.8,26.8-26.8,5.34,0,10.32,1.56,14.5,4.26-3.81-2.35-8.3-3.71-13.11-3.71-13.83,0-25.04,11.21-25.04,25.04,0,1.74.18,3.44.51,5.07-1.06.62-1.85,1.25-2.41,1.92-.19.23-.34.45-.47.67ZM97.35,38.49c1.38,3.11,2.15,6.54,2.15,10.16,0,13.83-11.21,25.04-25.04,25.04-8.12,0-15.34-3.87-19.91-9.86-.05.25-.09.5-.14.75-.12.7-.38,2.15-1.12,3.36,4.9,5.36,11.95,8.73,19.79,8.73,14.8,0,26.8-12,26.8-26.8,0-4.07-.91-7.92-2.53-11.37Z"/>
          <path class="cls-9" d="M84.92,49.33c-.14-1.66.22-5.47,1.38-10.07,1.65-.81,3.38-1.54,3.02-2.88-.25-.94-1.13-.82-2.08-.43.47-1.59.68-2.69-.17-2.69-.75,0-1.84,1.78-2.87,4.25-1.49.89-3.16,2.38-2.87,3.58.15.62.79.51,1.54.16-.89,2.91-1.52,6.02-1.48,8.24.06,3.65,1.27,3.7,2.06,3.7s1.58-.56,2.24-2.4c0,0-.66-.4-.75-1.46ZM93.89,43.94c-.06-2.44.47-4.48.64-5.42.18-1.02.65-2.29-1.01-2.29-3.7,0-7.88,7.8-7.88,11.87,0,1.45.57,2.84,2.03,2.84,1.15,0,2.75-2,3.7-3.34.34,1.48,1.07,1.75,2,1.74,1.41-.02,1.77-1.49,1.77-1.49-.63-.43-1.19-1.86-1.24-3.91ZM91.14,45.14c0,.21,0,.42,0,.61-.48.47-1.08.96-1.53.96-.57,0-.44-2.08.26-3.88.8-2.07,2.07-3.36,2.07-3.36,0,0-.8,2-.8,5.67ZM62.11,37.99c-3.1,0-8.02,7.7-10.76,15.45-.1.29-.21.6-.32.91-2.23,1.19-3.8,2.66-3.26,4.34.3.92.84,1.25,1.5,1.22-.6,2.05-1.09,3.92-1.25,4.95-.37,2.41.24,3.72,1.45,3.89,2.17.3,3.32-1.23,3.88-4.36.57-3.19,1.15-5.95,1.73-8.35.85-.6,1.78-1.13,2.67-1.58-.1.63-.19,1.27-.27,1.91-.69,5.46,1.1,7.58,2.65,7.58s2.77-1.79,2.77-1.79c-1.01-.48-1.8-2.68-1.72-5.24.03-1.09.16-2.52.34-4.07.08-.03.15-.05.22-.08,1.15-.4,1.17-.67,1.17-1.04,0-.45-.43-.74-1.16-.77.58-4.33,1.36-8.8,1.53-9.68.26-1.36.36-3.3-1.17-3.3ZM58.21,51.68c-.66.18-1.39.39-2.16.64,2.59-9.04,4.87-11.08,4.87-11.08-.61,1.63-1.8,5.61-2.71,10.45ZM76.01,53.39c-.29-2.75.33-6.76.36-7.57.02-.65,0-1.97-1.32-1.97s-2.72,2.69-3.6,5.08c0,0,.91-3.3-1.5-3.3-1.79,0-3.72,5.09-3.72,5.09,0,0,.09-1.64-.98-1.64-1.38,0-2.23,3.1-2.52,6.08-.27,2.73-.39,5.77,1.61,5.77,1.73,0,1.8-1.84,1.89-2.54.09-.7.98-5.56,1.68-6.64,0,0-.51,3.74-.23,5.14.28,1.4.95,1.33,1.5,1.28.82-.08,1.4-.37,1.82-2.03.64-2.53,1.13-3.89,1.64-5.33,0,0-.12,2.61.05,4.09.22,1.86,1.29,2.71,2.16,2.71.97,0,1.91-.49,2.65-1.79,0,0-1.23-.12-1.48-2.44ZM78.42,54.66c-.53,0-1.53-.24-1.53-2.5,0-3.8,1.02-7.25,1.25-7.81.23-.55.76-2.15,1.88-2.15.92,0,.97,1.14.85,1.87-.29,1.73-.6,4.34-.63,6.32-.03,1.8.65,2.21.65,2.21-.63,1.29-1.49,2.05-2.46,2.05Z"/>
          <path class="cls-7" d="M96.05,38.24c.06-.01.11-.04.14-.09.04-.05.05-.1.05-.16,0-.09-.03-.16-.1-.2-.07-.05-.16-.07-.3-.07h-.37v.94h.23v-.38h.11l.18.38h.25l-.2-.42ZM95.97,38.1s-.08.03-.15.03h-.11v-.28h.1c.07,0,.12.01.16.04.03.02.05.06.05.11s-.02.08-.05.1ZM95.83,37.35c-.46,0-.84.38-.84.85s.38.85.84.85.84-.38.84-.85-.38-.85-.84-.85ZM95.83,38.9c-.39,0-.7-.32-.7-.71s.31-.71.7-.71.7.32.7.71-.31.71-.7.71Z"/>
        </g>
      </g>
    </g>
  </g>
</svg>