<?xml version="1.0" encoding="UTF-8"?>
<svg id="Layer_1" data-name="Layer 1" xmlns="http://www.w3.org/2000/svg" xmlns:xlink="http://www.w3.org/1999/xlink" viewBox="0 0 150 150">
  <defs>
    <style>
      .cls-1 {
        fill: url(#DEGRADE_02);
      }

      .cls-1, .cls-2, .cls-3, .cls-4, .cls-5, .cls-6, .cls-7, .cls-8 {
        stroke-width: 0px;
      }

      .cls-2 {
        fill: url(#DEGRADE_01);
      }

      .cls-3 {
        fill: #62bb46;
      }

      .cls-4 {
        fill: #b2d235;
      }

      .cls-5 {
        fill: #00a651;
      }

      .cls-6 {
        fill: #fff;
      }

      .cls-7 {
        fill: #ed1c24;
      }

      .cls-8 {
        fill: #00ae4d;
      }
    </style>
    <linearGradient id="DEGRADE_01" x1="53.73" y1="-36.56" x2="110.57" y2="-36.56" gradientTransform="translate(14.73 142.23) rotate(-10.26)" gradientUnits="userSpaceOnUse">
      <stop offset="0" stop-color="#cbdb2a"/>
      <stop offset="1" stop-color="#00a651"/>
    </linearGradient>
    <linearGradient id="DEGRADE_02" x1="31.53" y1="75" x2="118.47" y2="75" gradientUnits="userSpaceOnUse">
      <stop offset="0" stop-color="#cbdb2a"/>
      <stop offset=".83" stop-color="#00a651"/>
    </linearGradient>
  </defs>
  <path class="cls-6" d="M114.37,56.55c-3.34-7.52-8.91-13.84-15.86-18.12-6.78-4.37-14.85-6.9-23.51-6.9-24.01,0-43.47,19.46-43.47,43.47,0,3.61.44,7.12,1.27,10.48-1,1.74-.86,3.3-.52,4.37.39,1.21,1.06,2.11,1.93,2.64-.66,2.33-1.34,4.93-1.59,6.56-.45,2.91-.13,5.14.97,6.61.71.95,1.7,1.54,2.88,1.7.37.05.73.08,1.08.08,2.64,0,4.3-1.41,5.35-3.13,7.95,8.7,19.39,14.16,32.1,14.16,24.01,0,43.47-19.46,43.47-43.47,0-6.6-1.47-12.85-4.1-18.45Z"/>
  <path class="cls-2" d="M90,99.66c-7.46,3.17-15.92,2.73-22.6.84-5.86-1.66-7.35,5.57-.55,7.23,8.42,2.06,17.57,1.38,25.97-2.71,13.31-6.48,21.17-19.67,21.48-33.52-2.91,11.62-11.32,22.65-24.29,28.16Z"/>
  <g>
    <path class="cls-4" d="M85.78,59.28s0,0,0,0h0s0,0,0,0M78.94,39.85c-.94,0-1.92.25-2.93.78-7.09,3.76-2.06,14.56,9.77,18.65.01-.05.02-.09.04-.14-.04.04-.08.07-.12.11,0,0,0,0,0,0h0s0,0,0,0c-5.23-6.52-5.39-14.15-1.73-16.51-1.34-1.83-3.08-2.9-5.03-2.89"/>
    <path class="cls-3" d="M86.6,42.01c-1.02,0-1.9.26-2.63.73,2.54,3.46,3.62,9.65,1.84,16.4,7.43-6.96,7.78-16.62,1.25-17.11-.16-.01-.32-.02-.47-.02"/>
    <path class="cls-8" d="M85.7,59.25s0,0,0,0h0s0,0,0,0M83.97,42.74c-3.66,2.35-3.5,9.99,1.73,16.51.04-.04.08-.07.12-.11,1.78-6.75.7-12.94-1.84-16.4"/>
  </g>
  <path class="cls-1" d="M32.8,85.47c-.83-3.35-1.27-6.86-1.27-10.47,0-24.01,19.46-43.47,43.47-43.47,8.66,0,16.73,2.53,23.51,6.9-6.19-3.81-13.47-6.01-21.27-6.01-22.43,0-40.61,18.18-40.61,40.61,0,2.82.29,5.57.84,8.23-1.71,1-3,2.03-3.9,3.11-.31.37-.56.74-.76,1.09ZM114.37,56.55c2.24,5.04,3.49,10.61,3.49,16.48,0,22.43-18.18,40.61-40.61,40.61-13.17,0-24.88-6.27-32.3-16-.07.4-.15.81-.22,1.21-.2,1.13-.62,3.49-1.82,5.45,7.95,8.7,19.38,14.15,32.1,14.15,24.01,0,43.47-19.46,43.47-43.47,0-6.6-1.47-12.85-4.1-18.45Z"/>
  <path class="cls-7" d="M94.22,74.14c-.23-2.69.35-8.88,2.24-16.34,2.68-1.31,5.48-2.5,4.89-4.68-.41-1.53-1.83-1.34-3.38-.69.76-2.59,1.11-4.37-.28-4.37-1.22,0-2.99,2.88-4.65,6.9-2.42,1.44-5.13,3.86-4.65,5.81.25,1,1.28.83,2.49.25-1.44,4.72-2.47,9.77-2.41,13.36.1,5.92,2.07,6,3.33,6s2.57-.91,3.63-3.88c0,0-1.06-.65-1.21-2.37ZM108.76,65.39c-.1-3.96.76-7.27,1.04-8.79.29-1.65,1.06-3.71-1.63-3.71-5.99,0-12.79,12.66-12.79,19.24,0,2.35.93,4.61,3.28,4.61,1.87,0,4.47-3.24,6-5.42.56,2.4,1.74,2.84,3.25,2.82,2.28-.04,2.86-2.42,2.86-2.42-1.02-.69-1.93-3.02-2.01-6.34ZM104.31,67.35c0,.35,0,.68.02.99-.78.77-1.76,1.56-2.48,1.56-.92,0-.71-3.37.42-6.29,1.29-3.35,3.35-5.45,3.35-5.45,0,0-1.3,3.25-1.3,9.19ZM57.21,55.75c-5.03,0-13.01,12.49-17.45,25.05-.17.47-.34.97-.51,1.48-3.61,1.93-6.16,4.32-5.29,7.04.48,1.5,1.37,2.02,2.43,1.97-.98,3.33-1.78,6.36-2.04,8.03-.61,3.9.39,6.04,2.36,6.31,3.52.49,5.39-1.99,6.29-7.07.92-5.17,1.86-9.65,2.8-13.54,1.38-.98,2.88-1.83,4.32-2.56-.16,1.02-.3,2.06-.43,3.11-1.12,8.85,1.79,12.29,4.3,12.29s4.5-2.9,4.5-2.9c-1.64-.78-2.91-4.34-2.8-8.49.05-1.76.26-4.08.55-6.6.13-.05.25-.09.35-.13,1.86-.65,1.91-1.08,1.91-1.69,0-.73-.69-1.2-1.88-1.25.94-7.03,2.21-14.28,2.49-15.7.43-2.21.58-5.36-1.9-5.36ZM50.9,77.95c-1.06.29-2.26.63-3.51,1.03,4.2-14.67,7.9-17.97,7.9-17.97-.99,2.64-2.92,9.1-4.4,16.94ZM79.76,80.72c-.48-4.46.54-10.96.59-12.28.04-1.06-.01-3.2-2.13-3.2s-4.41,4.37-5.85,8.23c0,0,1.47-5.35-2.44-5.35-2.9,0-6.03,8.26-6.03,8.26,0,0,.15-2.66-1.6-2.66-2.24,0-3.61,5.03-4.09,9.86-.44,4.42-.64,9.35,2.61,9.35,2.81,0,2.92-2.98,3.07-4.12.15-1.14,1.59-9.02,2.73-10.76,0,0-.83,6.06-.38,8.34.46,2.27,1.55,2.16,2.43,2.08,1.32-.13,2.26-.59,2.95-3.29,1.05-4.1,1.83-6.3,2.65-8.64,0,0-.2,4.23.08,6.63.35,3.02,2.1,4.4,3.5,4.4,1.57,0,3.1-.8,4.3-2.9,0,0-2-.2-2.4-3.95ZM83.67,82.78c-.85,0-2.48-.39-2.48-4.06,0-6.17,1.65-11.77,2.02-12.66.37-.9,1.24-3.49,3.04-3.49,1.5,0,1.58,1.85,1.38,3.04-.46,2.8-.98,7.05-1.03,10.26-.04,2.92,1.05,3.59,1.05,3.59-1.01,2.1-2.42,3.33-3.99,3.33Z"/>
  <path class="cls-5" d="M112.26,56.15c.1-.02.18-.07.23-.15.06-.07.09-.16.09-.26,0-.15-.05-.26-.16-.33-.11-.07-.27-.11-.48-.11h-.6v1.53h.37v-.62h.18l.29.62h.4l-.33-.68ZM112.14,55.93c-.05.04-.13.05-.24.05h-.18v-.46h.16c.12,0,.2.02.25.06.05.04.08.1.08.18s-.03.13-.08.17ZM111.91,54.71c-.75,0-1.36.61-1.36,1.37s.61,1.37,1.36,1.37,1.36-.61,1.36-1.37-.61-1.37-1.36-1.37ZM111.91,57.23c-.63,0-1.14-.51-1.14-1.14s.51-1.14,1.14-1.14,1.14.51,1.14,1.14-.51,1.14-1.14,1.14Z"/>
</svg>