<?xml version="1.0" encoding="UTF-8"?>
<svg id="Layer_1" data-name="Layer 1" xmlns="http://www.w3.org/2000/svg" viewBox="0 0 150 150">
  <defs>
    <style>
      .cls-1 {
        fill: none;
        stroke: #dbdcdd;
        stroke-miterlimit: 10;
        stroke-width: 1.14px;
      }

      .cls-2 {
        fill: #c8252c;
      }

      .cls-2, .cls-3, .cls-4 {
        stroke-width: 0px;
      }

      .cls-3 {
        fill: #d0232a;
      }

      .cls-4 {
        fill: #fff;
      }
    </style>
  </defs>
  <g>
    <line class="cls-1" x1="7" y1="64.31" x2="142.87" y2="64.31"/>
    <line class="cls-1" x1="7.03" y1="83.48" x2="143" y2="83.4"/>
    <rect class="cls-2" x="7.01" y="66.19" width="135.85" height="15.49"/>
    <g>
      <path class="cls-4" d="M34.74,59.36c-.88-.2-1.54.32-1.99.84,0,0,.52-1.16.12-2.11-.39-.96-1.9-1.64-2.97-.79-.34.27-.74.85-1.01,1.3,0,0-.05-1.09-.49-1.95-.44-.85-2.05-1.28-3.03-.25-.4.42-.69,1.22-.83,1.69-.04-.38-.44-1.22-.79-1.65-.74-.91-2.3-.91-2.98.21-.4.65-.47,1.35-.48,1.87-.16-.29-.93-1.12-1.63-1.44-.7-.33-2.08.01-2.32,1.18-.18.91.05,1.9.05,1.9-.5-.49-1.31-1.07-2.32-.7-.45.17-1.15.6-1.19,1.79-.04,1.15,1.45,2.43,2.6,1.61l2.14,4.06c-2.32,1.97-3.79,4.91-3.79,8.19,0,5.93,4.8,10.74,10.74,10.74s10.74-4.81,10.74-10.74c0-3.29-1.47-6.23-3.8-8.2,0,0,1.98-3.92,2-3.97.29.33,2.63.68,2.72-1.77.03-.94-.6-1.68-1.48-1.81"/>
      <path class="cls-3" d="M33.72,75.08c0-5.06-4.1-9.15-9.15-9.15s-9.15,4.1-9.15,9.15,4.1,9.15,9.15,9.15,9.15-4.1,9.15-9.15"/>
      <rect class="cls-4" x="25.93" y="80.32" width="4.37" height=".41"/>
      <path class="cls-4" d="M19.01,80.73h4.38v-6.83s.49-.27,1.27-.27,1.28.27,1.28.27v3.34h4.37v-7.58s-2.31-.84-5.66-.84-5.63.84-5.63.84v11.08Z"/>
      <rect class="cls-4" x="25.93" y="80.32" width="4.37" height=".41"/>
      <path class="cls-4" d="M26.56,78.46c0,.24.04.41.16.53.1.12.22.19.37.19.1,0,.17-.03.24-.1.02-.02.08-.05.1-.1,0,.16-.02.29-.05.36-.05.17-.11.24-.24.24-.04,0-.1-.02-.14-.07-.02-.02-.05-.1-.07-.14h-.34c.02.17.08.31.2.4.1.1.22.15.34.15.29,0,.47-.15.57-.49.05-.19.07-.41.07-.67s-.02-.48-.07-.65c-.1-.29-.28-.43-.55-.43-.17,0-.31.07-.41.22-.12.15-.16.34-.16.55M27.15,78.82c-.07,0-.14-.02-.19-.09-.05-.07-.05-.17-.05-.29,0-.17.02-.27.1-.34.02-.02.08-.04.14-.04.08,0,.15.02.19.09.05.07.08.17.08.29,0,.16-.05.26-.12.34-.04.02-.1.04-.15.04"/>
      <path class="cls-4" d="M27.95,79.44c.05-.14.17-.28.35-.46.17-.14.26-.24.31-.31.07-.1.1-.2.1-.31,0-.1-.02-.16-.08-.21-.02-.08-.1-.1-.16-.1-.1,0-.17.04-.19.14-.03.04-.05.14-.05.26h-.3c0-.19.02-.34.07-.46.1-.22.24-.31.49-.31.16,0,.31.05.43.2.1.12.14.29.14.5,0,.17-.03.32-.1.44-.04.07-.14.16-.26.26l-.13.12-.16.17c-.05.04-.07.07-.1.12h.72v.38h-1.13c0-.14.03-.29.07-.43"/>
      <path class="cls-4" d="M29.23,79.44c.05-.14.16-.28.34-.46.14-.14.26-.24.31-.31.04-.1.09-.2.09-.31,0-.1-.02-.16-.07-.21-.02-.08-.11-.1-.17-.1-.1,0-.16.04-.22.14,0,.04-.02.14-.02.26h-.31c0-.19.02-.34.07-.46.09-.22.24-.31.48-.31.17,0,.31.05.44.2.09.12.13.29.13.5,0,.17-.01.32-.1.44-.07.07-.14.16-.26.26l-.12.12c-.1.1-.14.14-.2.17l-.06.12h.72v.38h-1.14c0-.14.02-.29.07-.43"/>
      <rect class="cls-4" x="25.93" y="77.71" width=".39" height="2.17"/>
      <path class="cls-3" d="M17.97,59.07c-.34.05-.65-.19-.7-.53-.04-.34.19-.65.53-.7.34-.05.65.19.7.53.05.34-.19.65-.53.7"/>
      <path class="cls-3" d="M22.34,57.92c-.34.04-.65-.19-.7-.53-.05-.34.19-.66.52-.7.34-.04.66.19.7.53.05.34-.19.65-.53.7"/>
      <path class="cls-3" d="M26.94,57.91c-.34.05-.65-.19-.7-.52-.05-.34.19-.65.53-.7.34-.04.65.19.7.53.04.34-.19.65-.53.7"/>
      <path class="cls-3" d="M31.36,58.98c-.34.05-.65-.19-.7-.52-.05-.34.19-.66.52-.7.34-.04.66.19.7.53.04.34-.19.65-.53.7"/>
      <path class="cls-3" d="M34.59,60.16c-.9-.14-1.69.6-2.16,1.15-.12-.83-.18-1.16-.33-1.77-.58-.26-1.52-.64-2.08-.89-.42.21-.9.65-1.3.84-.27-.41-.44-.75-.78-1.22-.78-.13-1.75-.26-2.25-.34-.29.2-.81.73-1.12,1.05-.25-.28-.72-.79-1.1-1.18-.42.07-1.58.33-2.13.42-.25.34-.47.81-.79,1.34-.56-.36-.94-.68-1.31-.84-.41.15-1.8.71-2.17.89-.09.3-.11.71-.34,1.74-.75-.99-2.1-1.75-2.86-.64-.41.6.04,1.3.41,1.48.51.25,1.19.06,1.42-.51.53.39,1.87,3.01,2.71,4.55,3.77-2.49,8.46-2.63,12.23,0,.83-1.34,1.98-3.81,2.7-4.64.27.75,1.33.93,1.85.36.53-.6.33-1.62-.6-1.77"/>
      <path class="cls-4" d="M24.88,59.61c-.18.24-.22.28-.35.43-.14-.16-.19-.23-.34-.42-.69-.89-1.31-.31-.63.81.27.45.63,1.02.98,1.49,0,0,.38-.51.98-1.44.75-1.18,0-1.67-.63-.86"/>
      <path class="cls-4" d="M28.81,60.29c-.24.17-.29.21-.45.32-.09-.19-.12-.27-.22-.5-.43-1.04-1.18-.65-.83.61.14.51.38,1.31.49,1.79,0,0,.64-.55,1.38-1.22,1.03-.93.45-1.6-.37-1"/>
      <path class="cls-4" d="M31.73,62.08c-.04-.21-.05-.29-.09-.53-.16-1.11-.94-.92-.95.38,0,.55.11,1.37.1,1.86,0,0,.74-1.3.94-1.71"/>
      <path class="cls-4" d="M17.23,62.17c.03-.21.05-.29.09-.54.16-1.11.94-.92.95.39,0,.54-.16,1.23-.15,1.72,0,0-.68-1.17-.88-1.57"/>
      <path class="cls-4" d="M20.4,60.33c.24.17.29.2.46.31.09-.19.11-.27.2-.51.4-1.04,1.17-.68.84.59-.13.52-.36,1.23-.53,1.79,0,0-.6-.51-1.33-1.17-1.03-.93-.49-1.59.36-1.01"/>
      <path class="cls-4" d="M22.35,62.77c.26-1.01.39-1.47.48-1.72.13.21.34.63.85,1.5-.49,0-.92.09-1.32.23"/>
      <path class="cls-4" d="M28.55,63.34c.74-.77.98-.99,1.2-1.2,0,.25,0,.81.02,1.74-.41-.27-.81-.44-1.23-.54"/>
      <g>
        <path class="cls-4" d="M95.78,72.33c0-1.01-.35-3.37-3.45-3.37h-3.36v1.27h0v9.64h1.17c.64,0,1.04-.48,1.04-1.05h0v-.13s0-.01,0-.02c0-.5,0-2.86,0-2.86h1.46c.88,0,1.68-.3,2.19-.84.59-.61.97-1.52.95-2.64M93.61,72.45c.02.47-.12.84-.38,1.12-.24.26-.62.41-1,.41h-1.06s.02-2.39.02-2.39c.05-.46.25-.64.67-.7h.31c.91,0,1.44.56,1.44,1.56"/>
        <path class="cls-4" d="M60.67,72.33c0-1.01-.35-3.37-3.46-3.37h-3.36v1.27h0v9.64h1.17c.65,0,1.04-.48,1.04-1.05h0v-.13s0-.01,0-.02c0-.5,0-2.86,0-2.86h1.46c.88,0,1.68-.3,2.2-.84.58-.61.96-1.52.95-2.64M58.5,72.45c0,.47-.12.84-.39,1.12-.24.26-.62.41-1,.41h-1.05s0-2.39,0-2.39c.07-.46.26-.64.68-.7h.3c.92,0,1.45.56,1.45,1.56"/>
        <path class="cls-4" d="M83.34,68.6c-1.19,0-2.25.41-3.05,1.21-1.06,1.04-1.66,2.72-1.66,4.56.04,1.61.46,3.06,1.28,4.11.86,1.12,2.08,1.7,3.47,1.7,1.19,0,2.25-.41,3.05-1.22,1.06-1.04,1.66-2.72,1.66-4.57-.04-1.62-.49-3.06-1.28-4.1-.89-1.13-2.08-1.7-3.48-1.7M84.91,77.53c-.42.41-.95.63-1.55.63-.71,0-1.31-.31-1.77-.91-.47-.67-.73-1.65-.73-2.84-.03-1.42.31-2.48.93-3.14.42-.41.95-.61,1.54-.61.71,0,1.35.31,1.79.9.49.65.73,1.65.73,2.86,0,1.39-.31,2.49-.96,3.12"/>
        <path class="cls-4" d="M100.91,68.6c-1.19,0-2.24.41-3.04,1.21-1.06,1.04-1.66,2.72-1.66,4.56.04,1.61.46,3.06,1.28,4.11.86,1.12,2.08,1.7,3.47,1.7,1.19,0,2.25-.41,3.05-1.22,1.04-1.04,1.66-2.72,1.66-4.57-.04-1.62-.49-3.06-1.28-4.1-.89-1.13-2.1-1.7-3.49-1.7M102.5,77.53c-.41.41-.95.63-1.54.63-.71,0-1.31-.31-1.77-.91-.47-.67-.73-1.65-.73-2.84-.04-1.42.31-2.48.93-3.14.42-.41.95-.61,1.53-.61.73,0,1.35.31,1.81.9.49.65.73,1.65.73,2.86,0,1.39-.31,2.49-.96,3.12"/>
        <path class="cls-4" d="M125.36,68.6c-1.19,0-2.25.41-3.05,1.21-1.06,1.04-1.66,2.72-1.66,4.56.04,1.61.46,3.06,1.28,4.11.86,1.12,2.08,1.7,3.47,1.7,1.19,0,2.25-.41,3.05-1.22,1.06-1.04,1.66-2.72,1.66-4.57-.04-1.62-.49-3.06-1.28-4.1-.89-1.13-2.08-1.7-3.48-1.7M126.93,77.53c-.42.41-.95.63-1.55.63-.71,0-1.31-.31-1.77-.91-.47-.67-.73-1.65-.73-2.84-.02-1.42.31-2.48.93-3.14.42-.41.95-.61,1.55-.61.71,0,1.35.31,1.79.9.49.65.73,1.65.73,2.86,0,1.39-.31,2.49-.96,3.12"/>
        <path class="cls-4" d="M51.53,79.87s.04,0,.06,0h1.36l-3.31-10.91h-1.75c-.62.02-.88.18-1.16,1.02l-3.05,9.89h1.21s.04,0,.06,0c.77,0,1.12-.46,1.27-.95l.12-.44s.02-.06.02-.09c.24-.86.58-1.03,1.23-1.04l2.21.02.44,1.57c.16.48.51.93,1.27.93M47.16,75.52l1.06-4.15v-.02h.09l.02.02,1.03,4.15h-2.2Z"/>
        <path class="cls-4" d="M67.74,79.87s.04,0,.06,0h1.36l-3.3-10.91h-1.76c-.62.02-.88.18-1.16,1.02l-3.05,9.89h1.21s.04,0,.07,0c.77,0,1.13-.46,1.28-.95l.11-.44s.02-.06.03-.09c.23-.86.58-1.03,1.22-1.04l2.21.02.44,1.57c.16.48.51.93,1.28.93M63.37,75.52l1.05-4.15v-.02h.09l.02.02,1.04,4.15h-2.2Z"/>
        <path class="cls-4" d="M136.04,71.15l.58-1.95c-.97-.48-1.82-.7-2.65-.7-.96,0-1.88.38-2.5,1.03-.58.61-.89,1.43-.89,2.39.02,2.09,1.02,2.75,1.99,3.12.18.08.38.13.55.2.8.25,1.48.49,1.48,1.34,0,.38-.09.68-.29.89-.24.25-.62.36-1.17.36s-1.35-.23-1.93-.46l-.52,2.06c.92.4,1.81.61,2.6.61,1.08,0,1.97-.33,2.59-.97.62-.63.91-1.56.91-2.73,0-.83-.18-1.46-.57-1.96-.43-.57-1.15-1-2.17-1.29-.88-.24-1.28-.59-1.28-1.13,0-.36.09-.64.29-.85.26-.26.66-.39,1.21-.39.47,0,1.22.19,1.77.44"/>
        <path class="cls-4" d="M120.29,79.88h0v-2.19h-3.03v-7.68c0-.57-.4-1.05-1.04-1.05h-1.26v10.91h0s5.33.01,5.33.01Z"/>
        <path class="cls-4" d="M77.97,74.24c0-1.67-.47-3.04-1.35-3.97-.81-.85-1.91-1.29-3.21-1.29h-3.36v10.91h3.38c.86,0,2.09-.21,3.08-1.23.95-.98,1.48-2.47,1.46-4.42M75.79,74.38c0,1.21-.27,2.13-.85,2.73-.49.51-1.06.78-1.9.78h-.87l.02-6.95h.71c.91,0,1.51.26,2.01.75.59.57.87,1.47.88,2.68"/>
        <path class="cls-4" d="M44.36,72.33c-.01-1.01-.36-3.37-3.46-3.37h-3.36v1.27h0v9.64h1.17c.64,0,1.03-.48,1.03-1.05h0v-.13s0-.01,0-.02c0-.5,0-2.86,0-2.86h1.46c.88,0,1.67-.3,2.2-.84.58-.61.95-1.52.95-2.64M42.2,72.45c0,.47-.12.84-.39,1.12-.24.26-.62.41-1,.41h-1.05s0-2.39,0-2.39c.07-.46.26-.64.68-.7h.31c.91,0,1.44.56,1.45,1.56"/>
        <path class="cls-4" d="M113.81,68.96h-1.17c-.64,0-1.04.49-1.04,1.06,0,0,0,0,0,0h0c0,.85,0,5.49,0,5.49,0,1.94-.51,2.47-1.38,2.48-1.02.01-1.37-.8-1.39-2.42-.02-2.19,0-3.35,0-5.54h0c0-.59-.39-1.06-1.04-1.06h-1.24c-.02,2.1-.02,4.3,0,6.9,0,1.47.36,2.6,1.04,3.33.62.66,1.5,1,2.61,1,2.24,0,3.59-1.59,3.61-4.28v-6.95s0,0,0,0Z"/>
      </g>
    </g>
  </g>
  <g>
    <path class="cls-2" d="M25.38,90.78c.39.03.66.05.76.03.02-.02.53-1.7.53-1.72.02-.05-.23.14-.26.17-.03.03-.32.51-.48.7-.15.19-.54.82-.54.82M27.41,88.67l-.42,1.66c-.05.2-.11.45-.15.64-.02.09-.04.17-.05.24-.01.06-.11.57-.3,1.55,0,0-.15.25-.34.27-.09,0-.18-.1-.23-.21-.03-.05-.05-.1-.07-.14-.02-.04.02-.4.12-1.07-.14-.02-.28-.02-.41,0-.07,0-.14,0-.22,0-.15,0-.3-.02-.39-.02-.09,0-.18.15-.32.36-.29.42-.72,1.05-.74,1.05-.01,0-.17.06-.33.06-.05,0-.11-.01-.16-.03-.21-.08-.25-.39-.25-.39l1.45-2.07c.28-.42.48-.69.73-1.05.37-.53.75-1.04.8-1.04.1.02.38-.15.43-.15.05,0,.11,0,.14-.08.02-.07.18-.04.32-.04.14-.01.42.48.42.48"/>
    <path class="cls-2" d="M31.97,90.03c.03.06.07.14.12.21.09.17.15.31.13.33.05.25.03.5.02.59,0,.08-.02.26-.04.5.42-.62.49-.7.49-.71.09-.09.27-.33.45-.59.18-.24.5-.64.56-.72.05-.08.11-.13.2-.13s.18.02.28.16c.04.05.06.11.05.18,0,.07-.03.13-.04.19,0,.11-.09.27-.15.39-.07.11-.51.63-.79.92-.27.29-.6.68-.8,1.02-.13.21-.31.46-.36.51-.05.05-.13.15-.29.14-.21-.24-.3-.37-.33-.44,0-.03,0-.13.02-.27.02-.14.04-.27.06-.39.02-.2.05-.45.07-.7l-.11.13c-.27.3-.6.68-.8,1.02-.13.21-.31.46-.36.51-.05.05-.12.15-.29.14-.2-.24-.28-.37-.33-.44,0-.03,0-.13.02-.27.02-.14.05-.27.07-.39.03-.21.06-.48.07-.65.02-.18-.06-.65-.17-.88-.05-.11-.12-.21-.17-.3-.1-.18-.07-.18-.04-.27.02-.05.05-.1.1-.16.16-.01.31.01.45.07.18.17.45.67.45,1.11,0,.14,0,.24,0,.29,0,.05-.01.12-.02.21,0,.08-.02.19-.02.3.42-.62.49-.7.49-.71.04-.04.1-.11.18-.23l.29-.38s-.1-.19.18-.49c.09-.14.21-.1.22-.1l.08.16s.02.06.05.11"/>
    <path class="cls-2" d="M34.85,92.08s-.01,0-.01.02h.02c.16.17.42.08.61-.07.22-.18.44-.45.56-.62.37-.51.34-.92.29-1.07-.08-.02-.15-.03-.21-.03-.12,0-.2.01-.3.06-.1.05-.2.11-.32.22-.1.1-.24.27-.31.37-.07.1-.13.18-.2.37-.07.18-.15.44-.15.75h.02ZM36.51,91.93c-.19.31-.72.8-1.06.91-.49.14-.83-.25-.97-.44-.11-.18-.23-.56-.23-.86,0-.28.11-.59.25-.85.12-.24.24-.42.26-.44.15-.21.53-.58.97-.58.04,0,.16-.01.29,0,.22,0,.31.04.44.14.1.07.19.16.24.24.07.07.07.1.1.15.05.07.11.2.15.44.05.33-.26.96-.45,1.29"/>
    <path class="cls-2" d="M40.16,90.78c-.1.22-.66,1.49-.69,1.57-.02.08-.02.16.12.24.12.07.22.05.3.03.04,0,.07-.02.09-.02.02,0,.02,0,.02,0,.08.32-.27.45-.54.47-.21,0-.37-.04-.5-.13-.1-.08-.2-.24-.2-.46,0-.15.04-.2.05-.27.04-.1.16-.41.5-1.18.07-.15.12-.3.16-.42-.02-.12-.15-.16-.27-.16-.04,0-.07,0-.1.01-.08.03-.14.06-.19.1h-.01s0,.01,0,.01c-.14.14-.27.25-.36.42-.08.15-.32.71-.45.95-.11.25-.11.28-.26.52-.1.17-.15.25-.34.31-.04.01-.08.02-.14.02-.16,0-.3-.08-.27-.23.02-.03.31-.71.77-1.73.04-.09.11-.24.11-.36,0-.13-.08-.21-.34-.16-.15.04-.33-.01-.39-.05-.11-.09-.11-.25-.05-.33.1-.12.25-.17.4-.19.15-.02.36-.05.46-.07.48.02.55.34.58.45,0,.02.01.04.02.04.02,0,.03,0,.05-.01.04-.02.09-.05.13-.09.04-.04.1-.08.14-.12.07-.04.12-.07.15-.09.19-.08.24-.11.46-.14.11-.01.19-.01.24,0,.07.02.12.04.17.06.12.05.22.2.25.31.07.21,0,.5-.1.71"/>
    <path class="cls-2" d="M42.16,91.51c.16-.21.37-.83.39-1,0,0,.02-.16-.22-.21l-.28.02c-.19.04-.4.22-.58.42-.18.19-.37.55-.39.92-.02.36.13.46.37.44.24-.02.56-.38.72-.59M43.39,90.38c-.36,1.02-.46,1.62-.51,1.86-.04.22-.01.26.06.28.07.03.28.05.31.05s.08.36-.1.56c-.17.19-.25.24-.44.22-.19,0-.18-.07-.24-.14,0,0-.19-.19-.17-.83-.22.25-.45.38-.63.43-.17.07-.25.06-.37.05-.12,0-.34-.09-.48-.22-.15-.13-.24-.29-.28-.44-.04-.2-.06-.38-.05-.54.02-.33.09-.77.38-1.22.28-.48.75-.68,1.07-.76.32-.08.37-.04.51-.01.16.02.33.16.39.24.04.04.07.04.08.01.19-.37.32-.63.4-.79.08-.16.13-.27.16-.31.02-.05.07-.13.14-.24.21-.32.45-.62.54-.68.11-.08.29-.08.43-.08h.04s.12.01.15.04c-1.19,2.07-1.37,2.52-1.37,2.52"/>
    <path class="cls-2" d="M45.22,90.24s-.29.17-.58.7c.5-.01.77-.13.78-.13.29-.11.66-.4.52-.65-.15-.24-.62.03-.72.08M45.38,91.42c-.07.02-.6.21-.81-.14-.07-.06-.07.13-.07.24v.06c.04.43.23.6.35.63.07,0,.1.01.1.01s.04,0,.1,0c.18,0,.62-.05,1.04-.36.15,0,.16.14.16.14.02.14-.02.31-.07.37-.05.05-.69.58-1.3.5-.44-.05-.69-.32-.8-.51-.04-.07-.07-.12-.08-.14,0-.02-.03-.09-.07-.21-.03-.12-.04-.31-.04-.56l.13-.56c.17-.45.36-.68.58-.88.25-.19.67-.4.98-.43.3-.03.6.1.68.18.06.05.21.24.21.55,0,.1-.03.22-.08.35-.15.4-.88.73-1.02.77"/>
    <path class="cls-2" d="M47.05,91.55c.07-.17.12-.31.16-.43.09-.24.19-.53.24-.71l-.23-.14c-.19-.16,0-.43,0-.43.11-.14.42-.15.5-.1,0,0,.19-.07.32.24l.04.23c.27-.41.73-.57.57-.48.36-.14.53-.08.7,0,.19.07.38.3.36.55-.02.19-.08.32-.45.25-.28-.12-.55-.04-.55-.04-.25.02-.65.38-.77.65-.05.1-.14.37-.24.63-.1.27-.34.95-.48,1.08-.3.24-.47.19-.64.05l.48-1.33Z"/>
    <path class="cls-2" d="M53.05,87.31c.04.16-.1.27-.19.36-1.03.25-1.46,1.65-1.61,2.07.16.03.94-.12.89,0-.07.19-.06.41-.26.5-.21.03-.27.12-.51.09l-.25-.04c-.22.8-.36,1.44-.55,2.04-.21.68-.4,1.01-.76,1.41-.13.15-.65.53-.86.45-.34-.15-.66-.45-.08-.63.71-.22,1.09-1.5,1.1-1.51,0,.01.27-1.05.39-1.4.11-.33-.24-.26-.31-.28h.04s-.22,0-.22,0c-.24-.1-.25-.62-.01-.62s.57-.04.7-.04c.1-.29.25-.79.39-1.05.37-.65.73-1.24,1.6-1.53.17-.02.5-.05.51.15"/>
    <path class="cls-2" d="M54.41,90.43c.13-.25.12-.28.28-.53.1-.17.16-.25.37-.31.17-.05.49,0,.43.21,0,.02-.35.8-.85,1.82-.08.16-.07.71.42.4.14-.08.44-.16.56-.08.13.08.08.23.04.33-.07.15-.21.32-.34.39-.15.08-.21.09-.31.14-.48.16-.77-.12-.88-.28-.02-.05-.09-.3-.12-.28-.03.01-.2.21-.3.26-.78.57-1.35.28-1.4.27-.12-.06-.22-.21-.25-.32-.07-.21,0-.5.1-.71.1-.22.66-1.33.69-1.41.02-.08.01-.16-.13-.24-.12-.07-.36.07-.39-.07-.03-.28.22-.41.53-.47.05-.01.11-.02.18-.02.19,0,.41.04.5.11.1.07.19.24.19.42s-.04.17-.19.49c-.1.22-.26.57-.48,1.08-.07.15-.1.27-.12.37.02.15.15.15.27.1.3-.1.59-.44.68-.62.08-.14.4-.83.53-1.07"/>
    <path class="cls-2" d="M58.17,88.67c-.35.3-.53.51-.72.74-.16.21-.35.56-.49.85-.03.06-.17.36-.15.45,0,0-.01.04-.03.14.38-.21.74-.56,1.01-.9.14-.18.26-.34.35-.5.1-.16.15-.26.16-.3.05-.14.12-.36.04-.53l-.17.05ZM59.02,88.74c-.04.55-.36,1.2-.84,1.73-.48.53-1.1.88-1.5,1.04-.04.01-.01.15.07.41.28.86,1.18.3,1.34.22,0,.02.03.12.03.27,0,.08-.01.14-.04.19-.1.16-.42.39-.58.41-.06,0-.13.01-.21.01-.23,0-.51-.05-.67-.18-.34-.3-.48-.62-.5-1.12-.13.04-.3.09-.55.17,0,0-.18.05-.25-.07-.04-.3.21-.48.21-.48.06-.02.36-.13.51-.18.05-.02.08-.03.08-.03,0,0,.01-.12.02-.16.21-1.16.76-1.86.66-1.76.34-.47,1.02-1.21,1.55-1.21.08,0,.18.02.25.05.23.08.44.48.42.69"/>
    <path class="cls-2" d="M63.53,90.03c.03.06.07.14.12.21.09.17.15.31.13.33.05.25.03.5.02.59,0,.08-.02.26-.04.5.42-.62.49-.7.49-.71.09-.09.27-.33.45-.59.17-.24.49-.64.55-.72.05-.08.11-.13.2-.13s.18.02.28.16c.04.05.06.11.05.18,0,.07-.03.13-.04.19,0,.11-.08.27-.15.39-.07.11-.51.63-.79.92-.27.29-.6.68-.8,1.02-.13.21-.31.46-.36.51-.05.05-.13.15-.29.14-.21-.24-.3-.37-.33-.44,0-.03,0-.13.02-.27.02-.14.04-.27.06-.39.02-.2.05-.45.07-.7l-.12.13c-.27.3-.6.68-.8,1.02-.13.21-.32.46-.36.51-.05.05-.12.15-.29.14-.2-.24-.28-.37-.33-.44,0-.03,0-.13.02-.27.02-.14.05-.27.07-.39.03-.21.06-.48.07-.65.02-.18-.05-.65-.17-.88-.05-.11-.12-.21-.17-.3-.1-.18-.07-.18-.04-.27.02-.05.05-.1.1-.16.16-.01.31.01.45.07.18.17.45.67.45,1.11,0,.14,0,.24,0,.29,0,.05-.01.12-.02.21,0,.08-.02.19-.02.3.42-.62.49-.7.49-.71.04-.04.1-.11.18-.23l.29-.38s-.1-.19.18-.49c.08-.14.21-.1.22-.1l.08.16s.02.06.05.11"/>
    <path class="cls-2" d="M66.41,92.08s-.01,0-.01.02h.02c.16.17.42.08.61-.07.22-.18.44-.45.56-.62.37-.51.34-.92.29-1.07-.08-.02-.15-.03-.21-.03-.12,0-.2.01-.3.06-.1.05-.2.11-.32.22-.1.1-.24.27-.31.37-.07.1-.13.18-.2.37-.07.18-.15.44-.15.75h.02ZM68.07,91.93c-.19.31-.72.8-1.06.91-.49.14-.83-.25-.97-.44-.11-.18-.23-.56-.23-.86,0-.28.12-.59.25-.85.12-.24.24-.42.26-.44.15-.21.53-.58.97-.58.04,0,.16-.01.29,0,.22,0,.31.04.44.14.1.07.19.16.24.24.07.07.07.1.1.15.06.07.11.2.15.44.05.33-.26.96-.45,1.29"/>
    <path class="cls-2" d="M68.98,91.55c.06-.17.11-.31.16-.43.09-.24.19-.53.24-.71l-.23-.14c-.19-.16,0-.43,0-.43.11-.14.42-.15.5-.1,0,0,.19-.07.32.24l.04.23c.27-.41.73-.57.57-.48.36-.14.53-.08.7,0,.19.07.38.3.36.55-.02.19-.08.32-.45.25-.28-.12-.55-.04-.55-.04-.25.02-.65.38-.77.65-.05.1-.15.37-.24.63-.1.27-.34.95-.48,1.08-.3.24-.47.19-.64.05l.48-1.33Z"/>
    <path class="cls-2" d="M73.96,88.67c-.34.3-.53.51-.72.74-.16.21-.35.56-.49.85-.03.06-.17.36-.15.45,0,0-.01.04-.03.14.38-.21.74-.56,1.01-.9.14-.18.26-.34.35-.5.1-.16.15-.26.16-.3.05-.14.12-.36.04-.53l-.17.05ZM74.81,88.74c-.04.55-.36,1.2-.84,1.73-.48.53-1.1.88-1.51,1.04-.03.01-.01.15.07.41.28.86,1.18.3,1.33.22,0,.02.03.12.03.27,0,.08-.01.14-.04.19-.1.16-.42.39-.58.41-.06,0-.13.01-.21.01-.23,0-.51-.05-.67-.18-.34-.3-.48-.62-.5-1.12-.13.04-.3.09-.55.17,0,0-.18.05-.25-.07-.04-.3.2-.48.2-.48.06-.02.36-.13.51-.18.05-.02.08-.03.08-.03,0,0,.01-.12.02-.16.21-1.16.76-1.86.66-1.76.34-.47,1.02-1.21,1.55-1.21.08,0,.18.02.25.05.23.08.44.48.42.69"/>
    <path class="cls-2" d="M76.53,91.51c.16-.21.37-.83.39-1,0,0,.02-.16-.22-.21l-.28.02c-.19.04-.41.22-.58.42-.18.19-.37.55-.39.92-.02.36.13.46.37.44.24-.02.56-.38.72-.59M77.76,90.38c-.36,1.02-.47,1.62-.51,1.86-.04.22-.01.26.06.28.07.03.28.05.31.05s.08.36-.1.56c-.17.19-.25.24-.44.22-.19,0-.18-.07-.24-.14,0,0-.19-.19-.17-.83-.22.25-.45.38-.63.43-.17.07-.25.06-.37.05-.12,0-.34-.09-.48-.22-.14-.13-.24-.29-.28-.44-.04-.2-.06-.38-.05-.54.02-.33.09-.77.37-1.22.28-.48.75-.68,1.07-.76.32-.08.37-.04.51-.01.16.02.33.16.39.24.04.04.07.04.08.01.19-.37.32-.63.4-.79.08-.16.13-.27.16-.31.02-.05.07-.13.14-.24.21-.32.46-.62.55-.68.11-.08.29-.08.43-.08h.04s.12.01.15.04c-1.19,2.07-1.37,2.52-1.37,2.52"/>
    <path class="cls-2" d="M80.95,92.08s-.01,0-.01.02h.02c.16.17.42.08.61-.07.22-.18.44-.45.56-.62.37-.51.34-.92.29-1.07-.08-.02-.15-.03-.21-.03-.12,0-.2.01-.3.06-.1.05-.2.11-.32.22-.1.1-.24.27-.31.37-.07.1-.13.18-.2.37-.07.18-.15.44-.15.75h.02ZM82.61,91.93c-.19.31-.72.8-1.06.91-.49.14-.83-.25-.97-.44-.11-.18-.23-.56-.23-.86,0-.28.11-.59.25-.85.12-.24.24-.42.26-.44.15-.21.53-.58.97-.58.04,0,.16-.01.29,0,.22,0,.31.04.44.14.1.07.19.16.24.24.07.07.07.1.1.15.05.07.11.2.15.44.05.33-.26.96-.45,1.29"/>
    <path class="cls-2" d="M86.7,87.31c.04.16-.1.27-.19.36-1.03.25-1.46,1.65-1.61,2.07.16.03.94-.12.89,0-.07.19-.06.41-.26.5-.21.03-.27.12-.51.09l-.25-.04c-.22.8-.36,1.44-.55,2.04-.21.68-.4,1.01-.76,1.41-.13.15-.65.53-.86.45-.34-.15-.66-.45-.08-.63.71-.22,1.09-1.5,1.1-1.51,0,.01.27-1.05.39-1.4.11-.33-.24-.26-.31-.28h.04s-.22,0-.22,0c-.24-.1-.25-.62-.01-.62s.57-.04.7-.04c.1-.29.25-.79.39-1.05.38-.65.73-1.24,1.6-1.53.17-.02.5-.05.51.15"/>
    <path class="cls-2" d="M87.73,89.76c.19-.07.46-.13,1.17-.13,0,0,.53-1.16.73-1.68.39.05.34.45.34.45-.05.31-.05.24-.18.58-.13.34-.22.59-.27.68h.35s.19,0,.31.05c.12.06.07.28.07.28-.05.22-.3.23-.42.26-.16.02-.35.02-.57,0-.37.98-.42.98-.42.95,0-.03-.02.08-.07.27-.07.29-.11.53,0,.69.27.43,1.23-.31,1.23-.31.34-.02.06.56-.07.66-.86.68-1.28.42-1.47.33-.19-.11-.26-.21-.34-.51-.09-.31-.05-.68.02-1-.02-.05.02-.22.32-.85l.1-.21s-.33-.01-.64-.1c-.24-.06-.19-.41-.19-.41"/>
    <path class="cls-2" d="M91.94,90.62c-.15.04-.31.17-.44.27-.11.1-.16.16-.3.36-.13.19-.22.36-.23.57-.01.22,0,.47.05.48.04.02.18.04.3-.03.11-.06.5-.39.6-.53.05-.07.18-.25.28-.45.07-.14.08-.18.1-.25.02-.08.04-.19.04-.31,0-.06-.01-.11-.04-.15-.16,0-.36.05-.36.05M91.77,89.99c.31-.09.5-.07.67-.02.16.06.2.07.27.13.07.05.11-.11.21-.27.08-.11.24-.19.28-.21.02-.02.2.04.31.09.1.05.12.02.18.17-.44.75-.56,1.03-.62,1.28-.05.29-.16.87.02.95.18.08.54-.21.56-.22.04-.02.16.02.16.02t.11.51c-.16.15-.33.29-.49.41-.04.02-.1.04-.16.04-.18,0-.41-.1-.57-.27-.13-.14-.24-.3-.22-.45.03-.16-.17.28-.68.6-.29.19-.59.3-.75.25-.15-.05-.68-.6-.68-.62s-.07-.57.04-.86c.02-.1.07-.21.13-.33.12-.22.22-.39.41-.63.15-.18.6-.5.82-.56"/>
    <path class="cls-2" d="M95.65,92.06c.09-.24.01-.35-.13-.49-.1-.1-.27-.24-.5-.37-.19-.13-.53-.42-.51-.68.03-.71.71-.93,1.03-.96.68-.08.92.17,1.08.38.11.14.01.22-.05.3-.05.07-.23.18-.33.05-.13-.16-.33-.27-.55-.27-.07,0-.14.02-.2.05-.11.07-.32.33-.21.54.07.13.42.37.54.44.19.1.37.32.47.47.04.05.22.48,0,.83-.25.44-.93.69-1.54.56-.65-.11-.84-.68-.84-.66-.02-.02.07-.42.35-.39.3.1.42.52.74.54.2.02.53-.02.66-.34"/>
    <path class="cls-2" d="M96.82,89.76c.19-.07.46-.13,1.17-.13,0,0,.53-1.16.73-1.68.39.05.34.45.34.45-.05.31-.05.24-.18.58-.13.34-.22.59-.27.68h.34s.19,0,.31.05c.12.06.07.28.07.28-.05.22-.3.23-.42.26-.16.02-.35.02-.57,0-.38.98-.42.98-.42.95,0-.03-.02.08-.07.27-.07.29-.11.53,0,.69.27.43,1.23-.31,1.23-.31.34-.02.06.56-.07.66-.86.68-1.28.42-1.47.33-.19-.11-.26-.21-.34-.51-.09-.31-.05-.68.02-1-.02-.05.02-.22.32-.85l.1-.21s-.33-.01-.64-.1c-.24-.06-.19-.41-.19-.41"/>
    <path class="cls-2" d="M100.93,90.24s-.29.17-.58.7c.5-.01.77-.13.78-.13.29-.11.67-.4.52-.65-.15-.24-.62.03-.72.08M101.09,91.42c-.07.02-.6.21-.81-.14-.07-.06-.07.13-.07.24v.06c.04.43.23.6.35.63.07,0,.1.01.1.01,0,0,.04,0,.1,0,.18,0,.62-.05,1.04-.36.15,0,.16.14.16.14.02.14-.02.31-.07.37-.05.05-.69.58-1.3.5-.44-.05-.69-.32-.8-.51-.04-.07-.07-.12-.08-.14,0-.02-.03-.09-.07-.21-.03-.12-.04-.31-.04-.56l.13-.56c.18-.45.36-.68.58-.88.25-.19.67-.4.98-.43.3-.03.6.1.68.18.06.05.21.24.21.55,0,.1-.02.22-.08.35-.15.4-.88.73-1.02.77"/>
    <path class="cls-2" d="M106.06,92.06c.09-.24.01-.35-.13-.49-.1-.1-.27-.24-.5-.37-.19-.13-.53-.42-.51-.68.03-.71.71-.93,1.03-.96.68-.08.92.17,1.08.38.12.14.01.22-.05.3-.05.07-.24.18-.33.05-.13-.16-.33-.27-.55-.27-.07,0-.14.02-.21.05-.11.07-.32.33-.2.54.07.13.42.37.54.44.19.1.37.32.46.47.04.05.22.48,0,.83-.25.44-.92.69-1.54.56-.65-.11-.84-.68-.84-.66-.02-.02.07-.42.35-.39.3.1.42.52.74.54.2.02.53-.02.66-.34"/>
    <path class="cls-2" d="M109.07,88.67c.07.22-.07.6-.38.68-.2.05-.37-.12-.36-.34.02-.23.15-.52.43-.57.18-.05.24.09.3.23M108.78,90.15c0,.12-.32.79-.4.96-.08.18-.3.68-.35.84-.04.15-.04.3.08.33.14.03.52-.07.54.24,0,.1-.11.14-.31.26-.19.12-.34.13-.48.1-.13-.02-.4-.15-.48-.48-.08-.34.03-.74.1-.9.07-.14.5-1.14.54-1.27.03-.06-.42-.04-.3-.44.1-.15.45-.12.57-.14,0,0,.27,0,.38.12.15.15.13.25.11.37"/>
    <path class="cls-2" d="M112.04,90.78c-.1.22-.67,1.49-.69,1.57-.02.08-.02.16.12.24.12.07.22.05.3.03.04,0,.07-.02.09-.02.02,0,.02,0,.02,0,.08.32-.27.45-.54.47-.21,0-.37-.04-.5-.13-.1-.08-.2-.24-.2-.46,0-.15.04-.2.05-.27.04-.1.16-.41.5-1.18.07-.15.12-.3.16-.42-.02-.12-.15-.16-.27-.16-.04,0-.07,0-.1.01-.08.03-.14.06-.19.1h-.01s0,.01,0,.01c-.14.14-.27.25-.36.42-.08.15-.32.71-.45.95-.11.25-.11.28-.26.52-.1.17-.15.25-.34.31-.04.01-.08.02-.14.02-.16,0-.3-.08-.27-.23.02-.03.31-.71.77-1.73.04-.09.11-.24.11-.36,0-.13-.08-.21-.34-.16-.15.04-.33-.01-.39-.05-.12-.09-.12-.25-.05-.33.1-.12.25-.17.41-.19.15-.02.36-.05.46-.07.48.02.55.34.58.45,0,.02.01.04.02.04.02,0,.03,0,.05-.01.04-.02.09-.05.13-.09.04-.04.1-.08.14-.12.07-.04.12-.07.15-.09.19-.08.24-.11.46-.14.11-.01.19-.01.24,0,.07.02.11.04.17.06.12.05.22.2.25.31.07.21,0,.5-.1.71"/>
    <path class="cls-2" d="M112.93,92.89c-.19-.08-.6-.36-.63-.81-.05-.46.05-1.1.51-1.64.45-.56,1.01-.86,1.31-.91,0,0,.31-.04.38.11.1.09.13.24.13.33v.08c0,.18-.12.29-.25.31-.07,0-.13,0-.19-.03-.1-.05-.09-.15-.17-.15-.04,0-.07.01-.1.04-.35.22-.54.45-.72.72-.12.24-.22.5-.25.72-.03.22.03.42.1.49.11.1.35.18.7-.05l.42-.33c.18.02.2.07.25.1.05.04.05.15.05.21,0,.02,0,.04,0,.04-.16.24-.19.31-.44.54-.33.3-.91.31-1.12.23"/>
    <path class="cls-2" d="M116.22,90.24s-.29.17-.58.7c.5-.01.77-.13.78-.13.29-.11.67-.4.52-.65-.14-.24-.62.03-.72.08M116.38,91.42c-.07.02-.6.21-.81-.14-.07-.06-.07.13-.07.24v.06c.04.43.23.6.35.63.07,0,.1.01.1.01s.04,0,.1,0c.18,0,.62-.05,1.05-.36.15,0,.16.14.16.14.02.14-.02.31-.07.37-.05.05-.69.58-1.3.5-.44-.05-.69-.32-.8-.51-.04-.07-.07-.12-.08-.14,0-.02-.03-.09-.07-.21-.03-.12-.04-.31-.04-.56l.13-.56c.18-.45.36-.68.58-.88.25-.19.67-.4.98-.43.3-.03.6.1.68.18.06.05.21.24.21.55,0,.1-.02.22-.08.35-.15.4-.88.73-1.01.77"/>
    <path class="cls-2" d="M123,92.12l-.07.37c0,.12-1.32.21-1.67.28-.45.11-1.23.33-1.54.3-.04,0-.1-.24-.13-.35,0-.04,0-.08.04-.11.07-.07.49-.26,1.08-.33.07,0,.15-.15.21-.28.03-.07.05-.13.07-.18.02-.05.24-.82.65-2.27-.16.11-.31.19-.45.24-.29.1-.45.18-.62.15-.16-.03-.34-.21-.34-.3.02-.09.07-.21.24-.29.24-.12.76-.37.99-.5.31-.18.92-.65.95-.65.04-.02.13.01.13.02,0,0,.15.16.18.19.02.03.1.07.06.14-.03.07-.06.18-.13.38-.1.27-.31.88-.44,1.31-.17.56-.45,1.83-.45,1.84,0,.1,1.23-.43,1.26.02"/>
    <path class="cls-2" d="M125.45,89.48c.03-.2.07-.24-.25-.58-1-.27-1.37.85-1.13,1.14.19.21.41.21.77.1.44-.13.62-.64.62-.66M124.1,88.38c.19-.13.36-.23.53-.27.04-.01.39-.07.53-.04.26.05.67.36.67.37s.34.63.34,1.4c0,.41-.24,1.11-.51,1.72-.25.61-.83,1.24-1.41,1.62-.15.1-.67.3-.8.26-.12-.03-.24-.22-.24-.23,0-.02.06-.17.17-.29.04-.04.08-.07.14-.08.1-.03.29-.19.47-.37.09-.09.17-.18.25-.26.16-.18.21-.24.33-.38.16-.2.37-.45.45-.65.08-.18.17-.35.29-.57-.06.05-.6.39-.9.36-.12-.02-.89.04-1.04-.93-.15-.95.75-1.66.75-1.66"/>
    <path class="cls-2" d="M127.7,88.72c.31-.15.6-.18.71-.19.13-.01.14-.02.24.06.13.09.31.26.39.37.12.15.07.37.04.63-.03.26-.17.6-.34.85-.16.25-.69.77-.91.99-.24.22-.33.41-.34.45-.02.03.59-.16.88-.19.29-.03.61-.06.88-.02.26.04.35.09.38.18.03.08.1.51.02.59-.04.04-.44.05-.86.05h-.76c-.1,0-.17,0-.2.01-.23.03-1.14.31-1.23.33-.09.02-.22.08-.25-.04-.03-.12-.07-.28-.07-.43,0-.08,0-.13.02-.15.02-.02.05-.07.1-.14.04-.07.1-.15.15-.22.12-.17.24-.34.36-.43.06-.05.14-.13.24-.23.3-.3.7-.72.8-.83.13-.13.54-.66.48-.97-.03-.1-.13-.09-.13-.09,0,0-.08,0-.33.12-.25.12-.65.39-.74.49-.09.1-.17.24-.32.22-.15-.02-.32-.39-.21-.62.09-.19.27-.33.5-.47,0,0,.24-.19.53-.33"/>
    <path class="cls-2" d="M131.44,88.72c.31-.15.6-.18.71-.19.13-.01.14-.02.24.06.13.09.31.26.39.37.11.15.07.37.04.63-.03.26-.17.6-.34.85-.16.25-.69.77-.91.99-.24.22-.33.41-.34.45-.02.03.59-.16.88-.19.29-.03.61-.06.88-.02.26.04.35.09.38.18.03.08.1.51.02.59-.04.04-.44.05-.86.05h-.76c-.1,0-.17,0-.21.01-.23.03-1.14.31-1.23.33-.09.02-.22.08-.25-.04-.03-.12-.07-.28-.07-.43,0-.08,0-.13.02-.15.02-.02.06-.07.1-.14.04-.07.1-.15.15-.22.11-.17.24-.34.36-.43.06-.05.14-.13.24-.23.3-.3.7-.72.8-.83.13-.13.54-.66.48-.97-.02-.1-.13-.09-.13-.09,0,0-.08,0-.33.12-.25.12-.65.39-.74.49-.09.1-.17.24-.32.22-.15-.02-.32-.39-.21-.62.09-.19.27-.33.5-.47,0,0,.24-.19.53-.33"/>
  </g>
</svg>