<?xml version="1.0" encoding="UTF-8"?>
<svg id="Layer_1" data-name="Layer 1" xmlns="http://www.w3.org/2000/svg" viewBox="0 0 150 150">
  <defs>
    <style>
      .cls-1 {
        fill-rule: evenodd;
      }

      .cls-1, .cls-2, .cls-3, .cls-4, .cls-5 {
        stroke-width: 0px;
      }

      .cls-1, .cls-4 {
        fill: #fff;
      }

      .cls-2 {
        fill: #2056ae;
      }

      .cls-3 {
        fill: #69cff6;
      }

      .cls-5 {
        fill: #ed1c24;
      }
    </style>
  </defs>
  <path class="cls-1" d="M118.41,74.94c.05,23.98-19.34,43.46-43.32,43.51-.03,0-.06,0-.1,0-23.98,0-43.41-19.44-43.41-43.41,0-.03,0-.06,0-.1.01-23.97,19.45-43.39,43.41-43.39s43.4,19.42,43.41,43.39h0Z"/>
  <path class="cls-3" d="M75,45.21c-16.44,0-29.78,13.33-29.78,29.78s13.33,29.78,29.78,29.78,29.78-13.33,29.78-29.78-13.34-29.78-29.78-29.78M118.42,74.99c0,23.98-19.44,43.42-43.42,43.42s-43.42-19.44-43.42-43.42,19.44-43.42,43.42-43.42,43.42,19.44,43.42,43.42"/>
  <path class="cls-5" d="M88.44,71.56l5.96-7.44h-6.13l-2.92,3.67,3.1,3.77Z"/>
  <path class="cls-2" d="M80.22,79.77v.08h11.47v-.09s-.17-.03-.35-.06c-.77-.1-1.38-.31-1.8-.49-1.73-.71-3.18-2.12-4.42-3.58,0,0-.92,1.21-1.74,2.1-1.22,1.33-2.54,1.89-3.16,2.04M74.17,79.77c-.75-.19-1.45-.59-1.67-.73-2.41-1.5-4-4.13-4-7.23,0-4.77,3.86-8.63,8.63-8.63,2.35,0,4.69.9,6.55,3.08l.1.13.08-.06-9.31-16.11-17.1,29.64h16.71v-.09M77.13,67.99c1.19,0,2.21.53,2.95,1.4.26.32.35.41.55.68.71.9.95,1.22,1.37,1.75-.42.5-.66.85-1.37,1.76-.21.26-.29.35-.55.67-.74.88-1.77,1.4-2.95,1.4-2.11,0-3.81-1.71-3.81-3.82,0-2.1,1.71-3.83,3.81-3.83"/>
  <path class="cls-2" d="M74.49,88.48v-.79s-.03.05-.16.1c-.23.1-.56.18-.9.26-.42.09-1.26.25-1.24.85.03.61.65.75,1.13.7.74-.07,1.14-.51,1.17-1.11M72.39,86.66l-1.39-.04c.05-.28.05-1.98,2.44-1.95,1.27.03,2.56.43,2.56,2.05v3.28c0,.13.02.25.07.38.05.1.09.13.18.21h-1.63s-.05-.12-.09-.38c-.03-.18-.03-.18-.05-.31,0,0-.24.78-1.53.83-1.11.05-2.24-.6-2.31-1.69-.04-.72.43-1.29.98-1.57.44-.21,1.07-.36,1.98-.47.56-.09.83-.17.85-.5.03-.46-.43-.7-.95-.72-1.23-.02-1.13.86-1.13.86M62.95,85.97h.79v2.92c0,.47.04,1.07.5,1.41.46.33,1.08.29,1.66.28h.49v-1.17s-.37,0-.37,0c-.25,0-.41-.02-.54-.12-.2-.15-.18-.4-.18-.54v-2.78h1.05v-1.08h-1.05v-1.8h-1.56s0,1.79,0,1.79h-.79v1.09M67.29,90.59h1.58v-2.6c0-.72.14-1.38.79-1.7.34-.17.6-.19.98-.14v-1.35s-.23-.05-.4-.06c-.51-.03-1,.26-1.29.79-.03.04-.04.08-.09.2l-.05-.82h-1.51v5.7M59.89,85.95c-1.13,0-1.24,1.1-1.24,1.1h2.52s-.17-1.11-1.28-1.1M57.04,87.91c-.09-1.73,1.04-3.23,2.82-3.2,3.14.04,2.98,3.46,2.98,3.46h-4.24s.04,1.36,1.4,1.36c.89,0,1.15-.72,1.15-.72l1.62.1s-.45,1.83-2.77,1.9c-1.07.03-2.87-.76-2.97-2.89M55.84,90.59v-6.53h2.42v-1.42h-6.49v1.42h2.38v6.53h1.69M88.65,88.48v-.79s-.03.05-.17.1c-.24.09-.55.18-.9.25-.43.09-1.26.26-1.24.85.02.61.65.75,1.13.7.74-.07,1.14-.52,1.18-1.11M86.54,86.66l-1.4-.04c.05-.27.05-1.98,2.45-1.94,1.27.02,2.57.43,2.57,2.04v3.28c0,.13.02.25.07.38.05.1.09.13.17.21h-1.62s-.06-.12-.09-.38c-.03-.18-.03-.18-.04-.31,0,0-.25.78-1.53.83-1.11.05-2.24-.6-2.31-1.69-.05-.72.43-1.29.98-1.57.43-.21,1.07-.36,1.97-.47.56-.08.83-.17.86-.5.02-.45-.44-.7-.95-.71-1.24-.01-1.13.86-1.13.86M80.72,84.03v2.45h1.18c.87.03,1.53-.35,1.52-1.23,0-.88-.6-1.26-1.55-1.22h-1.15ZM80.72,90.59h-1.68v-7.94h2.75c1.93-.07,3.27.84,3.27,2.57,0,2.12-1.52,2.66-3.44,2.63h-.89v2.74M91.28,90.59v-7.93s1.59,0,1.59,0v4.33l1.99-2.12h1.87l-2.11,2.19,2.36,3.53h-1.91l-1.58-2.52-.61.62v1.91h-1.59"/>
  <path class="cls-2" d="M99.08,82.19h.39c.33,0,.7-.02.7-.41s-.37-.41-.7-.41h-.39v.82ZM98.54,80.92h1.13c.7,0,1.03.32,1.03.88,0,.51-.3.76-.7.81l.76,1.24h-.57l-.73-1.2h-.39v1.2h-.54v-2.93ZM99.53,84.51c1.16,0,2.11-.95,2.11-2.11s-.95-2.11-2.11-2.11-2.11.94-2.11,2.11.94,2.11,2.11,2.11M99.53,79.83c1.41,0,2.56,1.15,2.56,2.56s-1.15,2.57-2.56,2.57-2.57-1.15-2.57-2.57,1.15-2.56,2.57-2.56"/>
  <path class="cls-1" d="M41.23,69.62c-.02,1.2-.99,2.16-2.22,2.14-1.21-.02-2.15-1.01-2.14-2.21.02-1.21,1.01-2.17,2.21-2.15,1.22.02,2.16,1.01,2.14,2.22"/>
  <path class="cls-1" d="M108.74,69.62c.02,1.2,1,2.16,2.22,2.14,1.2-.02,2.15-1.01,2.13-2.21-.02-1.21-1-2.17-2.21-2.15-1.22.02-2.17,1.01-2.15,2.22"/>
  <path class="cls-4" d="M44.98,88.23l.98,1.5-3.37,3.61v.02s4.88-1.3,4.88-1.3l.83,1.28-3.28,3.98v.02s4.82-1.63,4.82-1.63l.91,1.4-7.46,2.24-.8-1.23,3.44-4.2v-.02s-5.24,1.43-5.24,1.43l-.77-1.19,5.06-5.93Z"/>
  <path class="cls-4" d="M51.6,97.66l1.25,1.07-1.8,2.12,2.43,2.07,1.81-2.12,1.26,1.07-4.84,5.69-1.25-1.07,2.09-2.46-2.44-2.07-2.09,2.46-1.25-1.07,4.84-5.69Z"/>
  <path class="cls-4" d="M59.02,105.64l-1.88,1.64,1.62.84.26-2.48ZM59.47,103.42l1.21.63-.57,8.13-1.65-.86.16-1.7-2.57-1.34-1.28,1.12-1.61-.84,6.32-5.13Z"/>
  <path class="cls-4" d="M64.34,107.09l-2.04-.62.42-1.39,5.65,1.72-.42,1.4-2.04-.62-1.75,5.76-1.58-.48,1.75-5.76Z"/>
  <path class="cls-4" d="M70.21,109.99l-1.34-.19,1.19-2.84,1.51.21-1.36,2.81Z"/>
  <path class="cls-4" d="M76.26,109.26c-.26-.34-.78-.51-1.19-.52-.47,0-1.11.2-1.12.75-.02,1.36,3.43.54,3.39,3.16-.03,1.67-1.38,2.44-2.92,2.42-.96-.01-1.8-.31-2.5-.98l1.19-1.27c.33.45.87.72,1.42.73.54.01,1.15-.23,1.15-.76.02-1.37-3.49-.69-3.46-3.18.03-1.59,1.42-2.41,2.89-2.38.85.01,1.65.25,2.28.82l-1.15,1.22Z"/>
  <path class="cls-4" d="M90.62,111.2c-.76.78-1.71,1.32-2.75,1.66-2.22.73-4.31-.19-5.06-2.47-.75-2.27.39-4.26,2.61-4.99,1.12-.37,2.2-.44,3.13-.02l-.71,1.56c-.57-.3-1.15-.37-1.95-.1-1.33.44-1.89,1.69-1.46,3.01.44,1.32,1.62,2,2.96,1.56.68-.22,1.12-.58,1.36-.83l-.38-1.15-1.27.42-.47-1.44,2.78-.91,1.22,3.71Z"/>
  <path class="cls-4" d="M95.69,107.33c1.18-.76,1.4-2.11.65-3.28-.75-1.17-2.07-1.53-3.26-.77-1.18.76-1.4,2.11-.65,3.28.76,1.17,2.08,1.53,3.26.76M92.26,102.01c1.96-1.26,4.22-.89,5.52,1.12,1.29,2.01.7,4.22-1.27,5.49-1.96,1.26-4.22.89-5.52-1.12-1.3-2.01-.7-4.22,1.26-5.48"/>
  <path class="cls-4" d="M103.43,101.05c.95-1.04.82-2.4-.21-3.34-1.03-.94-2.4-.95-3.34.09-.94,1.04-.82,2.4.21,3.34,1.03.94,2.4.95,3.34-.09M98.75,96.78c1.57-1.72,3.85-1.95,5.62-.33,1.77,1.62,1.75,3.9.18,5.62-1.57,1.72-3.85,1.95-5.62.33-1.77-1.62-1.75-3.9-.18-5.62"/>
  <path class="cls-4" d="M108.02,94.28l.4-.75c.71-1.36.74-2.64-.76-3.44-1.3-.68-2.45.03-3.1,1.26l-.45.86,3.92,2.07ZM101.99,92.95l1.15-2.18c1.13-2.13,2.97-3.43,5.39-2.15,2.14,1.13,2.36,3.48,1.32,5.45l-1.26,2.38-6.6-3.5Z"/>
  <path class="cls-4" d="M48.58,49.08l.79-.76c.42-.4.69-.95.21-1.45-.54-.55-1.17-.08-1.63.36l-.61.59,1.24,1.27ZM45.19,47.96l1.99-1.94c1.12-1.08,2.39-1.62,3.62-.35,1.22,1.26.74,2.47-.39,3.57l-.86.84,2.03,2.09-1.18,1.15-5.21-5.36Z"/>
  <path class="cls-4" d="M54.65,44l.83-.51c.51-.32,1.16-.75.73-1.44-.39-.64-1.03-.38-1.54-.06l-.91.57.89,1.44ZM51.62,42.24l2.46-1.52c1.3-.8,2.67-1.03,3.59.44.55.89.5,1.88-.29,2.59l3.28,1.68-1.68,1.04-2.9-1.72-.69.43,1.57,2.54-1.4.86-3.94-6.35Z"/>
  <path class="cls-4" d="M65.09,42.55c1.34-.41,1.93-1.65,1.52-2.98-.41-1.34-1.58-2.04-2.92-1.63-1.34.41-1.92,1.65-1.52,2.98.41,1.33,1.58,2.03,2.92,1.63M63.24,36.49c2.23-.68,4.3.29,5,2.58.7,2.29-.48,4.25-2.71,4.93-2.23.68-4.3-.29-5-2.58-.7-2.29.48-4.25,2.71-4.93"/>
  <path class="cls-4" d="M71.86,36.51l-2.13.12-.09-1.45,5.9-.36.09,1.46-2.13.13.37,6-1.64.1-.37-6.01Z"/>
  <path class="cls-4" d="M78.53,34.81l5.02.77-.23,1.5-3.39-.52-.21,1.38,3.2.49-.23,1.51-3.2-.49-.23,1.51,3.58.54-.23,1.51-5.21-.79,1.13-7.39Z"/>
  <path class="cls-4" d="M91.1,40.37c-.16-.49-.51-.87-1.08-1.1-1.15-.47-2.39.13-2.91,1.42-.52,1.29-.05,2.57,1.06,3.02.62.25,1.22.18,1.73-.17l.89,1.46c-.91.59-2.04.58-2.99.2-2.16-.87-3.16-2.93-2.27-5.15.9-2.21,3.05-3,5.21-2.13.77.31,1.65.97,1.93,1.96l-1.56.49Z"/>
  <path class="cls-4" d="M96.18,42.55l-1.76-1.21.82-1.2,4.88,3.32-.82,1.21-1.76-1.2-3.39,4.97-1.36-.93,3.39-4.97Z"/>
  <path class="cls-4" d="M103.67,49.32c.06-.42-.19-.92-.47-1.21-.32-.33-.92-.65-1.33-.26-.98.94,2.04,2.81.15,4.63-1.2,1.16-2.7.74-3.77-.37-.67-.69-1.05-1.5-1.07-2.46l1.74-.05c-.08.56.11,1.13.49,1.52.38.39.98.65,1.36.28.99-.95-1.98-2.96-.18-4.69,1.15-1.11,2.71-.7,3.73.36.59.61.99,1.35,1.03,2.19l-1.67.05Z"/>
</svg>