<svg xmlns="http://www.w3.org/2000/svg" xmlns:xlink="http://www.w3.org/1999/xlink" width="293" height="51" viewBox="0 0 293 51">
  <defs>
    <clipPath id="clip-path">
      <rect id="Rectangle_208" data-name="Rectangle 208" width="293" height="51" transform="translate(0 -0.452)" fill="none"/>
    </clipPath>
  </defs>
  <g id="Partner_Ballkanik_Logo" data-name="Partner Ballkanik Logo" transform="translate(0 4.452)">
    <g id="Group_220" data-name="Group 220" transform="translate(0 -4)" clip-path="url(#clip-path)">
      <path id="Path_455" data-name="Path 455" d="M50.548,31.222A19.325,19.325,0,0,1,31.222,50.548H0V19.329A19.325,19.325,0,0,1,19.329,0H31.222A19.324,19.324,0,0,1,50.548,19.329Zm-6.791-10.3A14.135,14.135,0,0,0,29.621,6.794H20.927A14.132,14.132,0,0,0,6.794,20.927v22.83H29.621A14.138,14.138,0,0,0,43.758,29.621Z" transform="translate(0 0)" fill="#1a1818"/>
      <path id="Path_456" data-name="Path 456" d="M37.39,50.548A19.328,19.328,0,0,1,18.061,31.222V0H49.283A19.329,19.329,0,0,1,68.612,19.329V31.222A19.326,19.326,0,0,1,49.283,50.548Zm10.3-6.791A14.132,14.132,0,0,0,61.819,29.624v-8.7A14.132,14.132,0,0,0,47.685,6.794H24.855v22.83A14.135,14.135,0,0,0,38.991,43.758Z" transform="translate(39.9 0)" fill="#be1f24"/>
      <path id="Path_457" data-name="Path 457" d="M42.681,17.466a16.312,16.312,0,0,1-2.577-.244v3.986a.416.416,0,0,1-.417.417H38.564a.4.4,0,0,1-.395-.417V6.06c0-.286.064-.417.462-.507a18.208,18.208,0,0,1,4.05-.507c3.28,0,4.8,2.137,4.8,5.44v1.585c0,3.456-1.585,5.395-4.8,5.395m2.863-6.98c0-2.314-.684-3.809-2.863-3.809A16.066,16.066,0,0,0,40.1,6.9v8.719a17.313,17.313,0,0,0,2.577.218c2.157,0,2.863-1.409,2.863-3.764Z" transform="translate(84.323 11.147)" fill="#1a1818"/>
      <path id="Path_458" data-name="Path 458" d="M50.175,17.312H49.164a.44.44,0,0,1-.44-.44v-.485a6.721,6.721,0,0,1-3.392,1.078c-1.871,0-3.588-.815-3.588-3.565v-.266c0-2.375,1.386-3.565,5.3-3.565h1.63V9.186c0-1.849-.639-2.484-2.356-2.484a31.734,31.734,0,0,0-3.37.173h-.109c-.2,0-.4-.064-.4-.353V5.755c0-.244.157-.379.465-.42a18.894,18.894,0,0,1,3.411-.289c3.062,0,4.294,1.544,4.294,4.14v7.686a.443.443,0,0,1-.443.44m-1.5-5.857h-1.63c-2.664,0-3.366.6-3.366,2.16v.263c0,1.585.748,2,2.025,2A6.07,6.07,0,0,0,48.679,15Z" transform="translate(92.221 11.147)" fill="#1a1818"/>
      <path id="Path_459" data-name="Path 459" d="M50.421,6.721a5.638,5.638,0,0,0-3.039.924v9.226a.456.456,0,0,1-.44.44H45.864a.439.439,0,0,1-.42-.44V5.643a.427.427,0,0,1,.42-.443H46.9a.425.425,0,0,1,.42.443v.462a5.265,5.265,0,0,1,3.1-1.059c.308,0,.462.135.462.4v.9c0,.244-.154.375-.462.375" transform="translate(100.395 11.147)" fill="#1a1818"/>
      <path id="Path_460" data-name="Path 460" d="M54.477,19.159a10.994,10.994,0,0,1-1.431.109c-2.025,0-2.994-.53-2.994-2.949V8.633l-2.134-.241c-.244-.022-.42-.154-.42-.4V7.4a.391.391,0,0,1,.42-.4h2.134V4.846a.449.449,0,0,1,.395-.44l1.146-.177h.067a.35.35,0,0,1,.331.375V7h2.378a.445.445,0,0,1,.44.443v.748a.442.442,0,0,1-.44.44H51.99v7.686c0,1.21.308,1.386,1.187,1.386h1.236c.308,0,.462.087.462.308v.77c0,.2-.112.331-.4.375" transform="translate(104.931 9.345)" fill="#1a1818"/>
      <path id="Path_461" data-name="Path 461" d="M59.264,17.312H58.208a.44.44,0,0,1-.44-.44V9.629c0-2.227-.751-2.908-2.423-2.908a7,7,0,0,0-2.972.857v9.294a.458.458,0,0,1-.44.44H50.852a.436.436,0,0,1-.417-.44V5.643a.424.424,0,0,1,.417-.443h1.1a.425.425,0,0,1,.42.443v.42a6.6,6.6,0,0,1,3.5-1.017c2.644,0,3.832,1.653,3.832,4.583v7.243a.442.442,0,0,1-.44.44" transform="translate(111.421 11.147)" fill="#1a1818"/>
      <path id="Path_462" data-name="Path 462" d="M63.447,11.873H56.072v.308c0,2.619,1.037,3.588,3.065,3.588a30.153,30.153,0,0,0,3.915-.244h.109a.313.313,0,0,1,.353.308v.751c0,.286-.09.44-.44.5a19.838,19.838,0,0,1-3.938.375c-2.535,0-5-1.187-5-5.282V10.2c0-3.148,1.739-5.151,4.891-5.151,3.216,0,4.843,2.025,4.843,5.151v1.191c0,.286-.154.485-.42.485M61.907,10.2c0-2.487-.943-3.456-2.882-3.456-1.893,0-2.952,1.078-2.952,3.456v.2h5.834Z" transform="translate(119.593 11.15)" fill="#1a1818"/>
      <path id="Path_463" data-name="Path 463" d="M62.967,6.721a5.638,5.638,0,0,0-3.039.924v9.226a.456.456,0,0,1-.44.44H58.41a.436.436,0,0,1-.417-.44V5.643A.424.424,0,0,1,58.41,5.2h1.033a.425.425,0,0,1,.42.443v.462a5.265,5.265,0,0,1,3.1-1.059c.308,0,.462.135.462.4v.9c0,.244-.154.375-.462.375" transform="translate(128.119 11.147)" fill="#1a1818"/>
      <path id="Path_464" data-name="Path 464" d="M67.352,20.693a20.687,20.687,0,0,1-4.689-.574c-.594-.135-.684-.289-.684-.639V4.047a.461.461,0,0,1,.465-.44h2.664a.44.44,0,0,1,.44.44V7.856a14.948,14.948,0,0,1,1.8-.154c3.723,0,5.526,2.179,5.526,5.635v1.717c0,3.565-1.958,5.639-5.526,5.639m1.961-7.355c0-1.54-.395-2.686-1.961-2.686a17,17,0,0,0-1.8.109v6.868a11.513,11.513,0,0,0,1.8.135c1.566,0,1.961-1.146,1.961-2.709Z" transform="translate(136.927 7.968)" fill="#be1f24"/>
      <path id="Path_465" data-name="Path 465" d="M75.675,17.674H73.207a.442.442,0,0,1-.44-.44v-.353a4.86,4.86,0,0,1-3.062.992,3.433,3.433,0,0,1-3.764-3.787v-.2c0-2.577,1.653-3.723,5.417-3.723h1.187V9.372c0-1.255-.616-1.518-1.65-1.518-1.409,0-2.972.087-3.655.154h-.109a.36.36,0,0,1-.4-.4V5.829a.489.489,0,0,1,.417-.485,17.717,17.717,0,0,1,3.813-.462c3.167,0,5.151,1.277,5.151,4.49v7.863a.442.442,0,0,1-.44.44m-3.062-5.395H71.358c-1.54,0-1.938.53-1.938,1.608v.2c0,.924.462,1.1,1.386,1.1a4.1,4.1,0,0,0,1.807-.485Z" transform="translate(145.677 10.785)" fill="#be1f24"/>
      <path id="Path_466" data-name="Path 466" d="M73.084,20.493H70.4a.48.48,0,0,1-.462-.462V4.046a.46.46,0,0,1,.462-.44h2.686a.424.424,0,0,1,.417.44V20.031a.444.444,0,0,1-.417.462" transform="translate(154.503 7.966)" fill="#be1f24"/>
      <path id="Path_467" data-name="Path 467" d="M75.02,20.493H72.334a.48.48,0,0,1-.462-.462V4.046a.46.46,0,0,1,.462-.44H75.02a.424.424,0,0,1,.417.44V20.031a.444.444,0,0,1-.417.462" transform="translate(158.78 7.966)" fill="#be1f24"/>
      <path id="Path_468" data-name="Path 468" d="M84.684,8.34l-4.095,5.571,4.073,6.12a.234.234,0,0,1,.045.177.278.278,0,0,1-.286.286H81.1a.554.554,0,0,1-.552-.308l-3.171-5.173v5.019a.462.462,0,0,1-.44.462H74.27a.48.48,0,0,1-.462-.462V4.046a.46.46,0,0,1,.462-.44h2.664a.442.442,0,0,1,.44.44v9.2l3.347-5.042a.664.664,0,0,1,.571-.331H84.44c.2,0,.331.109.331.241a.368.368,0,0,1-.087.221" transform="translate(163.057 7.966)" fill="#be1f24"/>
      <path id="Path_469" data-name="Path 469" d="M87.3,17.674H84.836a.442.442,0,0,1-.44-.44v-.353a4.86,4.86,0,0,1-3.062.992,3.433,3.433,0,0,1-3.764-3.787v-.2c0-2.577,1.653-3.723,5.417-3.723h1.187V9.372c0-1.255-.616-1.518-1.65-1.518-1.409,0-2.972.087-3.655.154h-.109a.36.36,0,0,1-.4-.4V5.829a.489.489,0,0,1,.417-.485,17.711,17.711,0,0,1,3.809-.462c3.171,0,5.154,1.277,5.154,4.49v7.863a.442.442,0,0,1-.44.44m-3.062-5.395H82.987c-1.544,0-1.938.53-1.938,1.608v.2c0,.924.462,1.1,1.386,1.1a4.1,4.1,0,0,0,1.807-.485Z" transform="translate(171.368 10.785)" fill="#be1f24"/>
      <path id="Path_470" data-name="Path 470" d="M91.934,17.674H89.27a.463.463,0,0,1-.443-.462V9.882c0-1.544-.286-2.047-1.627-2.047a4.7,4.7,0,0,0-2.07.7v8.674a.462.462,0,0,1-.44.462H82.027a.48.48,0,0,1-.462-.462V5.5a.438.438,0,0,1,.44-.44h2.465a.438.438,0,0,1,.44.44v.53A5.571,5.571,0,0,1,88.5,4.882c3.19,0,3.9,2.224,3.9,5v7.33a.482.482,0,0,1-.462.462" transform="translate(180.194 10.785)" fill="#be1f24"/>
      <path id="Path_471" data-name="Path 471" d="M89.068,6.508H86.209a.441.441,0,0,1-.443-.44V4.021a.442.442,0,0,1,.443-.443h2.859a.446.446,0,0,1,.443.443V6.068a.445.445,0,0,1-.443.44m-.087,14.047H86.3a.438.438,0,0,1-.44-.44V8.379a.436.436,0,0,1,.44-.44h2.686a.442.442,0,0,1,.44.44V20.115a.445.445,0,0,1-.44.44" transform="translate(189.475 7.904)" fill="#be1f24"/>
      <path id="Path_472" data-name="Path 472" d="M98.633,8.34l-4.095,5.571,4.072,6.12a.234.234,0,0,1,.045.177.278.278,0,0,1-.286.286H95.045a.554.554,0,0,1-.552-.308l-3.171-5.173v5.019a.462.462,0,0,1-.44.462H88.219a.48.48,0,0,1-.462-.462V4.046a.46.46,0,0,1,.462-.44h2.664a.442.442,0,0,1,.44.44v9.2L94.67,8.208a.66.66,0,0,1,.571-.331h3.148c.2,0,.331.109.331.241a.368.368,0,0,1-.087.221" transform="translate(193.873 7.966)" fill="#be1f24"/>
    </g>
  </g>
</svg>
