<?xml version="1.0" encoding="utf-8"?>
<!-- Generator: Adobe Illustrator 28.2.0, SVG Export Plug-In . SVG Version: 6.00 Build 0)  -->
<svg version="1.1" id="Layer_1" xmlns="http://www.w3.org/2000/svg" xmlns:xlink="http://www.w3.org/1999/xlink" x="0px" y="0px"
	 viewBox="0 0 512 512" style="enable-background:new 0 0 512 512;" xml:space="preserve">
<style type="text/css">
	.st0{fill:#D2302D;}
	.st1{fill:#FFFFFF;}
</style>
<g>
	<g>
		<path class="st0" d="M458.6,322.1c-0.8-27.4-23.4-51.7-50.4-54.1c-12.1-1.1-24.4-0.9-36.4-0.7c-5,0.1-10.2,0.1-15.2,0.1
			c-2.5,0-4.6,0.2-6.2,0.8c-4.9,1.6-7.4-0.4-9.6-3.9c-11-17.6-26.5-26.9-46-27.5c-25.7-0.8-51.5-0.5-75.8-0.2
			c-19,0.3-34.7,8.7-45.5,24.3c-4.1,5.9-7.7,7.6-15.3,7c-17.4-1.2-34.2-1.4-50-0.6c-22.7,1.3-39.3,12.6-49.5,33.7
			c-1.8,3.8-3,8.1-4,12.3c-0.5,1.9-1,3.9-1.6,5.8v73.9c1.5,6.7,3.2,12.1,6.8,16.8c7.3,9.5,17.2,14,30.4,14h0c83.8,0,169,0,251.4,0
			l80,0c1.2,0,2.1,0,3.1-0.1c19.6-0.9,33.6-14.8,34-33.9C459.2,364.7,459.1,342.6,458.6,322.1z M162.2,402.6l-1.4,0.1
			c-0.6,0-1.1,0.1-1.6,0.1c-1,0.1-1.9,0.1-2.8,0.1c-13.1,0-26.2,0-39.2,0c-9.1,0-18.2,0-27.4,0c-10.8,0-15.9-5-15.9-15.8l0-14.9
			c0-14.9,0-30.2,0-45.4c0.1-18.6,10.7-32.7,28.5-37.5c2.9-0.8,6.2-1.2,9.8-1.3c14.1-0.1,26.9-0.1,39.1,0
			c10.2,0.1,10.9,0.8,10.9,10.8V402.6z M328.6,371.3l0,26.1c0,0.8,0,1.6-0.1,2.5c0,0.4-0.1,0.9-0.1,1.4l-0.1,1.4H183.7l-0.1-1.3
			c0-0.3-0.1-0.7-0.1-1c-0.1-0.7-0.2-1.5-0.2-2.3c0-8.3,0-16.5,0-24.8c0-25.4,0-51.6,0-77.4c0.1-18.4,10.4-32.3,27.7-37.2
			c4-1.1,8.5-1.3,11.8-1.3c19.1-0.1,39.5-0.1,66.2,0c23.6,0.1,39.5,15.9,39.6,39.4C328.6,321.7,328.6,346.9,328.6,371.3z
			 M437.8,389.3c0,7.8-5.4,13.4-12.8,13.5c-10.3,0.1-20.7,0.1-31,0.1c-7.9,0-15.8,0-23.6,0c-6,0-11.9,0-17.9,0
			c-0.4,0-0.8-0.1-1.2-0.3c-0.2-0.1-0.4-0.2-0.6-0.2l-1-0.4v-25.7c0-27,0-54.9-0.1-82.3c0-3.4,1.5-5.1,4.8-5.2
			c1.7-0.1,3.4-0.2,5.1-0.3c3.4-0.2,6.9-0.3,10.4-0.4c2.3,0,4.6,0,6.9,0c9,0,18.3,0,27.4,0.5c18.7,1.2,33.4,17.3,33.6,36.9
			C438,347.5,437.9,369.7,437.8,389.3z"/>
	</g>
	<g>
		<path class="st0" d="M255.9,88.1C255.9,88.1,255.9,88.1,255.9,88.1c-38.3,0-69.5,31.2-69.6,69.5c0,18.5,7.3,35.9,20.5,49.1
			c13.2,13.2,30.6,20.5,49.1,20.5c0,0,0,0,0,0c18.5,0,35.9-7.3,49.1-20.5c13.2-13.2,20.5-30.7,20.4-49.1
			C325.4,119.2,294.2,88.1,255.9,88.1z M290.2,192c-9.2,9.2-21.4,14.3-34.2,14.3h-0.1c-26.7,0-48.4-21.8-48.5-48.4
			c-0.1-13,5-25.2,14.1-34.5c9.2-9.2,21.3-14.3,34.3-14.3h0.2c12.9,0,25.1,5,34.3,14.2c9.2,9.2,14.3,21.4,14.3,34.3
			C304.5,170.5,299.4,182.7,290.2,192z"/>
	</g>
	<g>
		<path class="st0" d="M167.6,169c-9.8-9.6-22.5-14.9-36-14.9c-0.2,0-0.4,0-0.6,0c-28.5,0.3-51.6,23.5-51.5,51.7
			c0,7,1.4,13.7,4.1,19.9c2.6,6.2,6.5,12,11.5,16.9c9.9,9.7,22.8,15,36.4,14.9c28.5-0.3,51.6-23.5,51.5-51.8
			C183.1,191.9,177.6,178.9,167.6,169z M131.4,236.5L131.4,236.5c-8.1,0-15.8-3.2-21.6-9c-5.9-5.9-9.1-13.6-9.2-21.7
			c0-8.1,3.2-15.8,9-21.7c5.8-5.8,13.5-9,21.7-9c0,0,0,0,0,0c16.9,0,30.7,13.7,30.8,30.6C162.2,222.4,148.1,236.5,131.4,236.5z"/>
	</g>
	<g>
		<path class="st0" d="M380.4,154.1L380.4,154.1c-28.4,0-51.6,23.1-51.8,51.5c-0.1,13.7,5.3,26.6,15.1,36.5
			c9.9,9.9,22.9,15.4,36.6,15.4h0.1c13.8,0,26.9-5.5,36.8-15.5c9.8-9.9,15.1-22.8,14.9-36.4C431.8,177.2,408.6,154.1,380.4,154.1z
			 M402.3,227.2c-5.9,6-13.6,9.3-21.8,9.4h-0.3c-16.5,0-30.5-14-30.7-30.6c-0.1-8,3-15.6,8.8-21.5c5.8-6,13.6-9.3,21.9-9.3h0.2
			c16.7,0,30.4,13.6,30.6,30.5C411.2,213.7,408.1,221.3,402.3,227.2z"/>
	</g>
</g>
</svg>
