<svg xmlns="http://www.w3.org/2000/svg" xmlns:xlink="http://www.w3.org/1999/xlink" width="309" height="54" viewBox="0 0 309 54">
  <defs>
    <clipPath id="clip-path">
      <rect id="Rectangle_208" data-name="Rectangle 208" width="309" height="54" transform="translate(0 0.145)" fill="#fff"/>
    </clipPath>
  </defs>
  <g id="Partner_Ballkanik_Logo_White" data-name="Partner Ballkanik Logo White" transform="translate(0 4.726)">
    <g id="Group_220" data-name="Group 220" transform="translate(0 -4.871)" clip-path="url(#clip-path)">
      <path id="Path_455" data-name="Path 455" d="M53.308,32.927A20.38,20.38,0,0,1,32.927,53.308H0V20.384A20.38,20.38,0,0,1,20.384,0H32.927A20.379,20.379,0,0,1,53.308,20.384ZM46.146,22.07a14.907,14.907,0,0,0-14.908-14.9H22.07a14.9,14.9,0,0,0-14.9,14.9V46.146H31.238A14.91,14.91,0,0,0,46.146,31.238Z" transform="translate(0 0.867)" fill="#fff"/>
      <path id="Path_456" data-name="Path 456" d="M38.445,53.308A20.383,20.383,0,0,1,18.061,32.927V0H50.988A20.384,20.384,0,0,1,71.372,20.384V32.927A20.381,20.381,0,0,1,50.988,53.308ZM49.3,46.146a14.9,14.9,0,0,0,14.9-14.9V22.07a14.9,14.9,0,0,0-14.9-14.9H25.226V31.241a14.907,14.907,0,0,0,14.908,14.9Z" transform="translate(43.065 0.867)" fill="#fff"/>
      <path id="Path_457" data-name="Path 457" d="M42.927,18.144a17.2,17.2,0,0,1-2.718-.257v4.2a.439.439,0,0,1-.44.44H38.585a.42.42,0,0,1-.416-.44V6.115c0-.3.068-.44.487-.535a19.2,19.2,0,0,1,4.271-.535c3.459,0,5.063,2.254,5.063,5.737v1.672c0,3.645-1.672,5.689-5.063,5.689m3.019-7.361c0-2.44-.721-4.017-3.019-4.017A16.944,16.944,0,0,0,40.21,7v9.2a18.259,18.259,0,0,0,2.718.23c2.274,0,3.019-1.486,3.019-3.97Z" transform="translate(91.01 12.899)" fill="#fff"/>
      <path id="Path_458" data-name="Path 458" d="M50.635,17.981H49.569a.464.464,0,0,1-.464-.464v-.511a7.088,7.088,0,0,1-3.577,1.137c-1.973,0-3.784-.86-3.784-3.76V14.1c0-2.5,1.462-3.76,5.594-3.76h1.719V9.412c0-1.949-.673-2.62-2.484-2.62a33.466,33.466,0,0,0-3.554.183H42.9c-.21,0-.42-.068-.42-.372V5.794c0-.257.166-.4.491-.443a19.925,19.925,0,0,1,3.6-.3c3.229,0,4.528,1.628,4.528,4.366v8.106a.467.467,0,0,1-.467.464M49.058,11.8H47.338c-2.809,0-3.55.629-3.55,2.278v.278c0,1.672.789,2.112,2.136,2.112a6.4,6.4,0,0,0,3.134-.927Z" transform="translate(99.535 12.899)" fill="#fff"/>
      <path id="Path_459" data-name="Path 459" d="M50.693,6.813a5.946,5.946,0,0,0-3.205.975v9.73a.48.48,0,0,1-.464.464H45.887a.463.463,0,0,1-.443-.464V5.675a.45.45,0,0,1,.443-.467h1.09a.448.448,0,0,1,.443.467v.487a5.552,5.552,0,0,1,3.273-1.117c.325,0,.487.142.487.42v.951c0,.257-.162.4-.487.4" transform="translate(108.357 12.899)" fill="#fff"/>
      <path id="Path_460" data-name="Path 460" d="M54.858,19.974a11.594,11.594,0,0,1-1.509.115c-2.136,0-3.158-.558-3.158-3.11V8.873L47.94,8.62c-.257-.024-.443-.162-.443-.42V7.577a.412.412,0,0,1,.443-.423h2.251V4.88a.474.474,0,0,1,.416-.464l1.208-.186h.071a.369.369,0,0,1,.349.4V7.154h2.508a.469.469,0,0,1,.464.467V8.41a.467.467,0,0,1-.464.464H52.235v8.106c0,1.276.325,1.462,1.252,1.462h1.3c.325,0,.487.091.487.325v.812c0,.21-.118.349-.42.4" transform="translate(113.252 10.953)" fill="#fff"/>
      <path id="Path_461" data-name="Path 461" d="M59.746,17.981H58.632a.464.464,0,0,1-.464-.464V9.879c0-2.349-.792-3.066-2.555-3.066a7.378,7.378,0,0,0-3.134.9v9.8a.483.483,0,0,1-.464.464H50.875a.46.46,0,0,1-.44-.464V5.675a.448.448,0,0,1,.44-.467h1.161a.448.448,0,0,1,.443.467v.443a6.956,6.956,0,0,1,3.689-1.073c2.789,0,4.041,1.743,4.041,4.833v7.639a.467.467,0,0,1-.464.464" transform="translate(120.258 12.899)" fill="#fff"/>
      <path id="Path_462" data-name="Path 462" d="M63.956,12.246H56.178v.325c0,2.762,1.093,3.784,3.232,3.784a31.8,31.8,0,0,0,4.129-.257h.115a.331.331,0,0,1,.372.325v.792c0,.3-.095.464-.464.531a20.921,20.921,0,0,1-4.153.4c-2.674,0-5.276-1.252-5.276-5.571V10.479c0-3.32,1.834-5.432,5.158-5.432,3.391,0,5.107,2.136,5.107,5.432v1.256c0,.3-.162.511-.443.511m-1.625-1.767c0-2.623-1-3.645-3.039-3.645-2,0-3.114,1.137-3.114,3.645v.21h6.153Z" transform="translate(129.078 12.901)" fill="#fff"/>
      <path id="Path_463" data-name="Path 463" d="M63.239,6.813a5.946,5.946,0,0,0-3.205.975v9.73a.48.48,0,0,1-.464.464H58.433a.46.46,0,0,1-.44-.464V5.675a.448.448,0,0,1,.44-.467h1.09a.448.448,0,0,1,.443.467v.487a5.552,5.552,0,0,1,3.273-1.117c.325,0,.487.142.487.42v.951c0,.257-.162.4-.487.4" transform="translate(138.279 12.899)" fill="#fff"/>
      <path id="Path_464" data-name="Path 464" d="M67.646,21.626A21.817,21.817,0,0,1,62.7,21.02c-.626-.142-.721-.3-.721-.673V4.071a.486.486,0,0,1,.491-.464H65.28a.464.464,0,0,1,.464.464V8.088a15.764,15.764,0,0,1,1.9-.162c3.926,0,5.828,2.3,5.828,5.943v1.811c0,3.76-2.064,5.946-5.828,5.946m2.068-7.757c0-1.625-.416-2.833-2.068-2.833a17.926,17.926,0,0,0-1.9.115v7.243a12.141,12.141,0,0,0,1.9.142c1.652,0,2.068-1.208,2.068-2.856Z" transform="translate(147.786 9.468)" fill="#fff"/>
      <path id="Path_465" data-name="Path 465" d="M76.206,18.372H73.6a.467.467,0,0,1-.464-.464v-.372a5.125,5.125,0,0,1-3.229,1.046c-2.017,0-3.97-.975-3.97-3.994v-.21c0-2.718,1.743-3.926,5.713-3.926h1.252V9.617c0-1.323-.65-1.6-1.74-1.6-1.486,0-3.134.091-3.855.162H67.2a.379.379,0,0,1-.42-.42V5.88a.516.516,0,0,1,.44-.511,18.684,18.684,0,0,1,4.021-.487c3.34,0,5.432,1.347,5.432,4.735v8.292a.467.467,0,0,1-.464.464m-3.229-5.689H71.654c-1.625,0-2.044.558-2.044,1.7v.21c0,.975.487,1.161,1.462,1.161a4.322,4.322,0,0,0,1.905-.511Z" transform="translate(157.23 12.508)" fill="#fff"/>
      <path id="Path_466" data-name="Path 466" d="M73.256,21.415H70.423a.506.506,0,0,1-.487-.487V4.07a.485.485,0,0,1,.487-.464h2.833a.447.447,0,0,1,.44.464V20.927a.468.468,0,0,1-.44.487" transform="translate(166.756 9.465)" fill="#fff"/>
      <path id="Path_467" data-name="Path 467" d="M75.192,21.415H72.359a.506.506,0,0,1-.487-.487V4.07a.485.485,0,0,1,.487-.464h2.833a.447.447,0,0,1,.44.464V20.927a.468.468,0,0,1-.44.487" transform="translate(171.372 9.465)" fill="#fff"/>
      <path id="Path_468" data-name="Path 468" d="M85.278,8.6l-4.319,5.875,4.295,6.454a.247.247,0,0,1,.047.186.293.293,0,0,1-.3.3H81.494a.584.584,0,0,1-.582-.325l-3.344-5.456v5.293a.488.488,0,0,1-.464.487H74.3a.506.506,0,0,1-.487-.487V4.07a.485.485,0,0,1,.487-.464H77.1a.467.467,0,0,1,.464.464v9.706L81.1,8.459a.7.7,0,0,1,.6-.349h3.32c.21,0,.349.115.349.254a.388.388,0,0,1-.091.234" transform="translate(175.988 9.465)" fill="#fff"/>
      <path id="Path_469" data-name="Path 469" d="M87.835,18.372h-2.6a.467.467,0,0,1-.464-.464v-.372a5.125,5.125,0,0,1-3.229,1.046c-2.017,0-3.97-.975-3.97-3.994v-.21c0-2.718,1.743-3.926,5.713-3.926h1.252V9.617c0-1.323-.65-1.6-1.74-1.6-1.486,0-3.134.091-3.855.162h-.115a.379.379,0,0,1-.42-.42V5.88a.516.516,0,0,1,.44-.511,18.678,18.678,0,0,1,4.017-.487c3.344,0,5.435,1.347,5.435,4.735v8.292a.467.467,0,0,1-.464.464m-3.229-5.689H83.283c-1.628,0-2.044.558-2.044,1.7v.21c0,.975.487,1.161,1.462,1.161a4.322,4.322,0,0,0,1.905-.511Z" transform="translate(184.959 12.508)" fill="#fff"/>
      <path id="Path_470" data-name="Path 470" d="M92.5,18.372H89.691a.488.488,0,0,1-.467-.487v-7.73c0-1.628-.3-2.159-1.716-2.159a4.953,4.953,0,0,0-2.183.741v9.148a.488.488,0,0,1-.464.487H82.052a.506.506,0,0,1-.487-.487V5.532a.462.462,0,0,1,.464-.464h2.6a.462.462,0,0,1,.464.464V6.09a5.875,5.875,0,0,1,3.787-1.208c3.364,0,4.109,2.345,4.109,5.273v7.73a.508.508,0,0,1-.487.487" transform="translate(194.484 12.508)" fill="#fff"/>
      <path id="Path_471" data-name="Path 471" d="M89.249,6.668H86.233a.465.465,0,0,1-.467-.464V4.045a.466.466,0,0,1,.467-.467h3.016a.47.47,0,0,1,.467.467V6.2a.469.469,0,0,1-.467.464m-.091,14.814H86.324a.462.462,0,0,1-.464-.464V8.641a.46.46,0,0,1,.464-.464h2.833a.467.467,0,0,1,.464.464V21.018a.469.469,0,0,1-.464.464" transform="translate(204.501 9.399)" fill="#fff"/>
      <path id="Path_472" data-name="Path 472" d="M99.227,8.6l-4.319,5.875L99.2,20.927a.247.247,0,0,1,.047.186.293.293,0,0,1-.3.3H95.443a.584.584,0,0,1-.582-.325l-3.344-5.456v5.293a.488.488,0,0,1-.464.487H88.244a.506.506,0,0,1-.487-.487V4.07a.485.485,0,0,1,.487-.464h2.809a.467.467,0,0,1,.464.464v9.706l3.53-5.317a.7.7,0,0,1,.6-.349h3.32c.21,0,.349.115.349.254a.388.388,0,0,1-.091.234" transform="translate(209.248 9.465)" fill="#fff"/>
    </g>
  </g>
</svg>
