<?xml version="1.0" encoding="UTF-8"?>
<svg id="Layer_1" data-name="Layer 1" xmlns="http://www.w3.org/2000/svg" viewBox="0 0 512 512">
  <defs>
    <style>
      .cls-1 {
        fill: #d2302d;
        stroke-width: 0px;
      }
    </style>
  </defs>
  <path class="cls-1" d="M414.91,406.07c-1.04-.03-2.1-.03-3.17-.03s-2.15,0-3.27.01c-1.05,0-2.14.01-3.28.01h-.5v-32.23c0-59.55.01-119.1-.03-178.66,0-2.11.44-3.73,2.65-5.28,17.06-11.95,22.4-33.39,12.98-52.14-1.8-3.57-3.6-7.14-5.4-10.72-5.44-10.79-11.06-21.96-16.48-33-2.36-4.79-5.85-6.92-11.33-6.92h-.02c-88.02.08-175.72.08-260.65-.01h-.03c-5.51,0-8.93,2.05-11.41,6.85-2.94,5.67-6,11.39-8.96,16.92-4.23,7.93-8.61,16.13-12.7,24.3-1.85,3.69-3.16,7.75-4.42,11.68-.58,1.78-1.17,3.61-1.8,5.4v8.45c.16.69.32,1.38.47,2.07.33,1.5.68,3.04,1.1,4.53,2.62,9.11,7.95,16.7,15.84,22.56,1.13.84,2.35,2.71,2.35,4.27.1,65.16.09,131.41.09,195.49v14.08c0,.29-.02.58-.05.98l-.08,1.22-.44.03c-1.48.1-3.04.08-4.55.06-6.03-.08-11.74-.15-14.73,6.94v5.08c1.51,3.06,3.83,5.38,6.89,6.89h323.36l.33-.18c.32-.18.65-.36.99-.52,4.43-2.11,6.58-6.24,5.61-10.8-.91-4.28-4.67-7.23-9.36-7.33ZM385.62,405.84H126.06v-208.41h.51c13.25.31,24.46-4.51,33.3-14.25l.36-.41.38.41c8.34,9.16,19.51,14.21,31.45,14.21h.01c11.93,0,23.46-5.15,31.62-14.13l.37-.4.37.4c8.48,9.11,19.7,14.12,31.6,14.12h.2c11.97-.06,23.13-5.1,31.43-14.18l.37-.4.37.4c8.77,9.4,19.34,14.16,31.39,14.16s22.71-4.77,31.43-14.17l.33-.36.36.32q13.3,11.45,33.29,14.59l.42.07v208.03ZM392.38,176.8c-5.68,2.39-12.18,2.35-17.84-.11-5.61-2.44-9.85-6.91-11.94-12.58-.66-1.81-1.1-3.95-1.32-6.56-.56-6.49-4.15-10.37-9.59-10.38h-.03c-5.8,0-9.23,5.19-9.51,10.08-.64,11.29-8.69,19.99-19.58,21.16-11.05,1.19-21.24-5.44-24.23-15.75-.6-2.06-.81-4.24-1.01-6.34l-.03-.26c-.47-4.96-3.94-8.52-8.61-8.84-4.98-.36-8.99,2.73-9.97,7.66-.18.94-.26,1.94-.34,2.9-.08,1.1-.17,2.23-.41,3.32-2.54,11.28-12.57,18.4-24.39,17.33-10.82-.97-19.38-10.1-19.94-21.23-.3-6.09-4.02-10.02-9.47-10.02h-.03c-5.37.02-9.06,3.84-9.38,9.74-.68,12.18-10.17,21.46-22.08,21.59h-.29c-12.17,0-21.39-8.51-22.46-20.79-.57-6.5-3.6-10.13-8.77-10.5-5.19-.37-9.32,3.03-10.07,8.28-.1.7-.18,1.4-.26,2.11-.2,1.81-.41,3.68-.95,5.44-1.8,5.85-5.89,10.56-11.52,13.27-3.12,1.49-6.51,2.25-9.9,2.25-2.83,0-5.66-.53-8.33-1.59-5.88-2.33-10.49-6.97-12.67-12.73-2.17-5.72-1.81-11.93,1.01-17.49,3.64-7.14,7.47-14.34,11.17-21.29,3.01-5.66,6.13-11.51,9.11-17.3,1.15-2.21,2.76-2.19,4.31-2.16h145.82c33.04,0,67.2.01,100.8-.06,2.71-.04,4.04.82,5.2,3.17,3.19,6.51,6.5,13.08,9.7,19.44,2.94,5.82,5.97,11.84,8.9,17.79,2.87,5.82,3.26,12.2,1.12,17.95-2.11,5.64-6.45,10.08-12.22,12.5Z"/>
  <path class="cls-1" d="M307.27,238.88c-12.15-13.97-29.39-22.47-47.3-23.31-1.15-.05-2.29-.08-3.43-.08-17.62,0-34.16,6.42-46.88,18.27-13.48,12.55-21.15,29.8-21.6,48.56v.68c-.01.43-.01.85,0,1.27.41,12.48,5.46,23.46,10.34,32.55,14.54,27.08,33.72,50.14,50.55,69.13,1.88,2.11,4.31,3.3,6.84,3.34,2.61.05,5.23-1.13,7.3-3.32,2.83-2.99,5.48-6.14,8.04-9.18,15.05-17.91,30.64-37.59,42.64-60.24,4.56-8.61,8.92-18.01,9.87-28.33,1.62-17.54-4.35-35.52-16.37-49.34ZM299.76,302.24c-4.25,8.98-9.34,17.51-14.82,25.66-5.49,8.15-11.35,15.9-17.15,23.32-2.44,3.13-4.95,6.16-7.6,9.37-1.23,1.5-2.49,3.02-3.77,4.59l-.39.47-.38-.47c-15.62-18.77-31.73-39.45-43.79-63.47-5.46-10.88-6.27-22.66-2.35-34.06,4.26-12.38,13.67-23.03,25.19-28.49,15.26-7.25,32.94-6.26,47.28,2.66,14.25,8.86,22.91,24.17,23.17,40.94.11,7.24-2.72,13.85-5.39,19.48Z"/>
  <path class="cls-1" d="M256.02,255.21h-.02c-15.59,0-28.27,12.7-28.26,28.28,0,7.54,2.95,14.64,8.3,19.99,5.35,5.34,12.44,8.29,19.97,8.29h.02c7.53-.01,14.63-2.96,19.99-8.32,5.36-5.35,8.31-12.45,8.3-19.98-.01-15.58-12.71-28.26-28.3-28.26ZM256.09,292.91h-.08c-2.51,0-4.86-.97-6.63-2.74-1.8-1.81-2.78-4.21-2.76-6.79.06-5.19,4.15-9.28,9.32-9.32,2.53.01,4.94.98,6.75,2.79,1.8,1.82,2.78,4.21,2.74,6.74-.06,5.1-4.25,9.28-9.34,9.32Z"/>
</svg>