<?xml version="1.0" encoding="UTF-8"?>
<svg id="Layer_1" data-name="Layer 1" xmlns="http://www.w3.org/2000/svg" viewBox="0 0 512 512">
  <defs>
    <style>
      .cls-1 {
        fill: #d2302d;
        stroke-width: 0px;
      }
    </style>
  </defs>
  <path class="cls-1" d="M432.87,175.27c.02-6.21-2.39-10.06-8.06-12.88-47.77-23.75-99.27-49.5-162.08-81.03-4.66-2.34-8.76-2.37-13.29-.09-52.25,26.26-105.72,53-163.47,81.77-4.76,2.37-6.87,5.86-6.85,11.32.09,20.39.08,41.12.07,61.18,0,6.68,0,13.36,0,20.05v20.08c.01,20.41.02,41.51-.05,62.27-.02,5.16,2.15,8.64,6.82,10.97,57.54,28.68,111.03,55.43,163.52,81.79,2.29,1.15,4.44,1.72,6.58,1.72s4.19-.55,6.38-1.65c59.13-29.68,112.38-56.3,162.79-81.39,5.3-2.64,7.65-6.46,7.64-12.4-.14-55.91-.13-110.31,0-161.7ZM265.03,263.41c0-1.9.15-1.98,1.15-2.48,39.52-19.66,79.66-39.74,118.47-59.15l29.94-14.97v24.56c0,40.33,0,80.67.04,121,0,1.93-.15,2-1.14,2.5-39.41,19.61-79.44,39.63-118.15,58.98l-30.27,15.13v-22.94c0-40.88,0-81.76-.04-122.64ZM97.37,214.51v-27.73c3.69,1.85,7.38,3.7,11.07,5.55,9.57,4.8,19.47,9.77,29.25,14.56,1.38.68,1.47.91,1.46,2.26-.1,15.01-.08,30.27-.07,45.03v11.5c.01,8.04,3.29,11.32,11.33,11.34,1.41,0,2.83.02,4.24.03,3.8.03,7.72.07,11.61-.09,1.57-.07,2.53.36,3.81,1.69,3.87,3.99,7.86,7.97,11.72,11.82,2.26,2.26,4.53,4.51,6.78,6.78,1.33,1.34,5.38,5.42,11.09,2.92,5.58-2.44,5.56-7.89,5.56-9.94-.04-13.39-.03-26.78-.03-40.45v-9.09s4.74,2.36,4.74,2.36c7.19,3.58,14.15,7.06,21.11,10.54,1.24.62,2.49,1.24,3.74,1.85,3.8,1.88,7.73,3.82,11.46,5.85.18.12.48.51.58.75.1,48.51.08,97.84.07,145.54v1.32l-36.66-18.33c-37.09-18.54-74.18-37.09-111.28-55.61-1.64-.82-1.64-.84-1.64-1.77.08-39.57.08-79.8.08-118.7ZM186.99,267.99v2.17c-2.16-2.19-4.21-4.29-6.16-6.45-3-3.32-6.51-4.94-10.71-4.94-.32,0-.64,0-.96.03-3.26.19-6.54.15-10.01.1-.53,0-1.06-.01-1.59-.02v-41.97l8.28,4.13c1.74.87,3.48,1.73,5.22,2.59,4.97,2.46,10.1,5,15.05,7.62.24.14.65.65.78.95.13,11.92.11,24.06.09,35.79ZM197.08,215.13c-.48.25-1.31.36-1.62.3-8.29-4-16.67-8.23-24.76-12.31l-2.61-1.32,53.52-28.44c28.68-15.24,58.34-30.99,87.48-46.54,1.57-.84,2.25-.87,3.62-.15,7.44,3.86,14.8,7.52,22.6,11.39,1.19.59,2.39,1.18,3.58,1.78-52.42,27.88-96.36,51.23-141.82,75.3ZM260.57,132.06c-35.83,19.04-72.88,38.72-109.27,58.18-2.53,1.35-3.94,1.39-6.28.17-9.88-5.14-19.73-10.03-30.15-15.22-2.06-1.03-4.14-2.06-6.23-3.1l30.76-15.38c37.37-18.68,76.02-38,113.99-57.08,2.11-1.06,3.26-1.05,5.37.04,8.86,4.61,17.67,8.98,27,13.6,1.74.86,3.5,1.73,5.26,2.61l-30.44,16.18ZM403.43,172.11l-29.76,14.88c-38,18.99-77.28,38.64-115.9,58-1.42.71-2.08.72-3.37.06-9.8-5.01-19.8-10.01-29.47-14.84-2.98-1.49-5.96-2.98-8.93-4.47l64.13-34.06c25.24-13.4,51.33-27.26,76.97-40.97,1.48-.79,2.16-.8,3.64-.04,10.76,5.49,21.74,10.96,32.36,16.26,3.45,1.72,6.9,3.44,10.35,5.17Z"/>
</svg>