<?xml version="1.0" encoding="utf-8"?>
<!-- Generator: Adobe Illustrator 28.2.0, SVG Export Plug-In . SVG Version: 6.00 Build 0)  -->
<svg version="1.1" id="Layer_1" xmlns="http://www.w3.org/2000/svg" xmlns:xlink="http://www.w3.org/1999/xlink" x="0px" y="0px"
	 viewBox="0 0 512 512" style="enable-background:new 0 0 512 512;" xml:space="preserve">
<style type="text/css">
	.st0{fill:#D2302D;}
	.st1{fill:#FFFFFF;}
</style>
<g>
	<path class="st0" d="M345.7,225.8c-8.8-8.9-18.2-18.4-27.8-27.7c-2.3-2.2-5-4-7.6-4.9c-7.7-2.8-15.1-1-21.3,5.2l-5.6,5.6
		c-34.5,34.5-70.2,70.2-105.2,105.3c-1.7,1.7-2.8,3.7-3.4,6c-2.5,9.7-4.9,19.7-7.2,29.3c-1.2,4.8-2.4,9.6-3.5,14.5
		c-0.8,3.2-1.6,6.4-2.4,9.5c-0.4,1.5-0.8,2.9-1.1,4.4l0,0c-0.4,1.5-0.4,2.9,0,4.2l0.1,0.2c1,2.5,2.7,4.4,5.1,5.6
		c0.8,0.4,1.7,0.7,2.6,0.8c0.3,0,0.5,0,0.7,0c0.8,0,1.4-0.1,2-0.3l0.7-0.2c0.2-0.1,0.4-0.1,0.6-0.2l14.1-3.5
		c13.8-3.4,28-6.9,42-10.4c2.4-0.6,4.7-1.8,6.1-3.2c33.3-33.2,68.7-68.6,111.5-111.4C354.1,246,354.1,234.2,345.7,225.8z
		 M183.9,349.4c1.3-5.3,2.6-10.6,3.8-15.8l22.4,22.4c-5.1,1.3-10.4,2.6-15.8,3.8C190.2,355.8,186.9,352.5,183.9,349.4z M333.1,242.9
		c-1.4,1.4-2.7,2.7-4,4.1l-0.2,0.2L296.6,215c0.2-0.2,0.3-0.4,0.5-0.6c1.6-1.7,3.3-3.5,5.1-5.1c0.9-0.9,2.2-0.5,3,0.1
		c0.4,0.3,0.8,0.7,1.2,1.2c8.9,8.9,17.8,17.8,26.7,26.7C335.5,239.7,335.5,240.5,333.1,242.9z M315.9,259.6l-88.2,88.2l-31.7-31.7
		l88.2-88.2L315.9,259.6z"/>
	<path class="st0" d="M414.6,86.6c-105.8,0-211.6,0-317.4,0c-18.2,0-29.6,11.3-29.6,29.4c0,93.3,0,186.7,0,280c0,2.5,0,5,0.5,7.4
		c2.9,13.4,13.8,22,28.2,22c53.2,0,106.3,0,159.5,0c52.9,0,105.8,0,158.7,0c18.4,0,29.8-11.3,29.8-29.6c0-93.2,0-186.4,0-279.6
		C444.4,97.9,433,86.6,414.6,86.6z M374.3,111.2c5.7-5.7,9.3,1.1,13.3,4.2c4.2-3.1,7.7-9.9,13.5-4.1c5.7,5.8-1.2,9.3-4.3,13.3
		c3.1,4.1,10,7.6,4.2,13.4c-5.7,5.7-9.3-1-13.3-4.2c-4.1,3-7.6,10-13.4,4.3c-5.8-5.7,1.1-9.3,4.1-13.4
		C375.5,120.5,368.5,116.9,374.3,111.2z M186.9,118.3c1.9-0.2,3.9-0.2,5.9-0.1c4,0.2,6.6,2.8,6.5,6.4c0,3.6-2.6,6-6.7,6.2
		c-0.8,0-1.6,0-2.4,0c0,0,0,0,0,0c-1,0-2.1,0.1-3.1,0c-3.5-0.3-5.9-2.8-5.9-6.1C181.1,121.4,183.4,118.7,186.9,118.3z M150.7,118.6
		c2.9-0.6,6-0.6,8.9-0.1c3.2,0.5,4.9,3.1,4.7,6.3c-0.2,3.4-2.3,5.5-5.7,5.9c-1,0.1-2.1,0-3.1,0c0,0,0,0,0,0c-1.3,0-2.6,0.2-3.9,0
		c-3-0.6-4.9-2.4-5.2-5.5C146,121.8,147.5,119.3,150.7,118.6z M117.7,118.2c1.7-0.1,3.4-0.1,5.1,0c4,0.2,6.5,2.7,6.5,6.3
		c0,3.6-2.5,6-6.6,6.2c-0.8,0-1.6,0-2.4,0c-0.9,0-1.8,0-2.7,0c-3.7-0.2-6.3-2.7-6.4-6.1C111.1,121.2,113.8,118.5,117.7,118.2z
		 M425.9,162.6c0,2.2,0.2,215.8,0.2,233.1c0,3.7-0.9,6.3-2.8,8.2c-3.3,3.3-8.6,3.3-8.6,3.3l-317.4,0c-4,0-7-1-8.8-3
		c-2.9-3.1-2.7-8.1-2.7-8.1l0-0.2l0-233.2L425.9,162.6z"/>
</g>
</svg>
